/* XPM */
static char *e54cd0ba370d4acff93b6669e7c099e3g40Y6XtPb7OHuOit[] = {
/* columns rows colors chars-per-pixel */
"16 16 131 2 ",
"   c #1D2120",
".  c #1F2022",
"X  c #3A3026",
"o  c #3C3228",
"O  c #2E2B32",
"+  c #2E2C31",
"@  c #3B3A40",
"#  c #374744",
"$  c #3A4646",
"%  c #374842",
"&  c #3B4648",
"*  c #4D4A43",
"=  c #4F4A44",
"-  c #564E4B",
";  c #574E4F",
":  c #594F4E",
">  c #4F545A",
",  c #4E555B",
"<  c #555553",
"1  c gray33",
"2  c #555555",
"3  c #595051",
"4  c #635D5F",
"5  c #645E62",
"6  c #626063",
"7  c gray42",
"8  c gray43",
"9  c #7C7269",
"0  c #7C736A",
"q  c #7B7F7E",
"w  c #8E6D5E",
"e  c #8F6E5F",
"r  c #A36E5C",
"t  c #A3705B",
"y  c #9A7668",
"u  c #9B7769",
"i  c #B27A69",
"p  c #B37B6A",
"a  c #7E807D",
"s  c #858B87",
"d  c #858B89",
"f  c #9A968B",
"g  c #9D968C",
"h  c #949297",
"j  c gray59",
"k  c gray60",
"l  c #9F9F9F",
"z  c #A09583",
"x  c #A29585",
"c  c #AFAFAD",
"v  c #B1B0AE",
"b  c #B2B2B2",
"n  c #B3B5B2",
"m  c #B2B4B3",
"M  c #B4B4B4",
"N  c gray73",
"B  c #C0BEC3",
"V  c #C0BDC4",
"C  c gray76",
"Z  c #C6C6C6",
"A  c #C6C6C8",
"S  c gray80",
"D  c #DFD6CD",
"F  c #D0D0D0",
"G  c #E0D6CC",
"H  c #E2E2E2",
"J  c #E2E6E5",
"K  c #E1E7E7",
"L  c #E4E4E4",
"P  c gray90",
"I  c #EEEEEE",
"U  c #EFEFEF",
"Y  c #F4F0F1",
"T  c #F6F6F6",
"R  c #F8F7F3",
"E  c #F7FCF5",
"W  c #F4FEF5",
"Q  c #F7FFF4",
"!  c #F6FFF5",
"~  c #F6FDF6",
"^  c #F6FFF7",
"/  c #F8F9F4",
"(  c #F9FBF6",
")  c #F9FEF7",
"_  c #FDFFF7",
"`  c #FFF7FF",
"'  c #F6FCF8",
"]  c #F9F9F9",
"[  c #FBF9FA",
"{  c #F9FBFA",
"}  c gray98",
"|  c #FBFBFB",
" . c #FFF8F9",
".. c #FFF9FA",
"X. c #FBFDFA",
"o. c #FAFCFB",
"O. c #FDFEF8",
"+. c #FDFFF9",
"@. c #FEFFF8",
"#. c #FEFFFA",
"$. c #FFFFFA",
"%. c #FEFFFB",
"&. c #FFFFFB",
"*. c #F9F8FD",
"=. c #FBFBFD",
"-. c #FAF9FE",
";. c #FAFBFF",
":. c #FFF8FD",
">. c #FEF9FF",
",. c #FFF9FF",
"<. c #FDFBFE",
"1. c #FCFAFF",
"2. c #FCFBFF",
"3. c #FDFBFF",
"4. c #FFFAFF",
"5. c #FBFDFC",
"6. c #F9FFFF",
"7. c gray99",
"8. c #FDFDFD",
"9. c #FEFFFD",
"0. c #FFFFFD",
"q. c #FDFCFF",
"w. c #FCFDFF",
"e. c #FEFCFF",
"r. c #FFFCFF",
"t. c #FFFDFF",
"y. c #FDFFFE",
"u. c #FEFEFE",
"i. c #FFFEFF",
"p. c #FEFFFF",
"a. c white",
/* pixels */
"a.a.a.a.} a.a.a.a.a.a.} a.a.a.a.",
"} a.a.a.a.} a.a.a.a.} a.a.a.a.} ",
"a.a.a.a.T a.a.} } a.a.T a.a.a.a.",
"a.} a.a.a.I a.a.a.a.I a.a.a.} a.",
"a.a.a.a.M 7 H b b H 7 M a.a.a.a.",
"} a.} L 7 F k N N k F 7 L } a.} ",
"a.a.a.I 1 C F L L F C 1 I a.a.a.",
"a.} a.a.j 8 l S S l 8 j a.a.} a.",
"! _ ..2.B < f z x g 1 V ` ..#.! ",
"2.a.2.;.n 0 e t r e 0 n ;.2.a.a.",
"2.2.a.6.' D y i i y G ! 6.a.2.2.",
"#.#./ 6.K q * X o = a K o.R #.#.",
"! #.#.Y @ , & # % $ , @ Y #.#.! ",
"a.;.} a.h O 6 c v 6 + h a.} ;.a.",
"a.;.a.o.a.4 ; - : 3 5 a.} a.;.a.",
"a.#.) ! a.Z   s d   A a./ ) a.2."
};
