/* XPM */
static char *fe74b01db378455e90171c9615080776IeyQU1P5S52dyxg9[] = {
/* columns rows colors chars-per-pixel */
"16 16 126 2 ",
"   c #413838",
".  c #2C2323",
"X  c #2E2525",
"o  c #443A3A",
"O  c #312A2B",
"+  c #171719",
"@  c #060B0D",
"#  c #05090C",
"$  c #111214",
"%  c #262123",
"&  c #3E3434",
"*  c #362B2B",
"=  c #372E2E",
"-  c #292020",
";  c #382F2F",
":  c #382E2E",
">  c #2C1C1C",
",  c #171111",
"<  c #302627",
"1  c #150D0F",
"2  c #130B0D",
"3  c #140B0D",
"4  c #150B0D",
"5  c #160B0D",
"6  c #170B0E",
"7  c #271A1B",
"8  c #372C2C",
"9  c #251D1D",
"0  c #251818",
"q  c #2A2121",
"w  c #312424",
"e  c #241E1E",
"r  c #372A2A",
"t  c #240E10",
"y  c #240C0F",
"u  c #250C0F",
"i  c #210D0F",
"p  c #200D10",
"a  c #280D0F",
"s  c #290D0F",
"d  c #2A0D0F",
"f  c #361F20",
"g  c #322A2A",
"h  c #1F1818",
"j  c #3A3030",
"k  c None",
"l  c #3F3535",
"z  c #391A1B",
"x  c #360F10",
"c  c #2A0F11",
"v  c #0E1014",
"b  c #051015",
"n  c #071015",
"m  c #230F12",
"M  c #3A0F11",
"N  c #3E1213",
"B  c #402D2D",
"V  c #3D3333",
"C  c #3F2F2F",
"Z  c #461314",
"A  c #331012",
"S  c #061015",
"D  c #211014",
"F  c #4E1112",
"G  c #462324",
"H  c #473334",
"J  c #4E1516",
"K  c #121015",
"L  c #401214",
"P  c #532627",
"I  c #483333",
"U  c #411517",
"Y  c #090F14",
"T  c #291014",
"R  c #542626",
"E  c #433939",
"W  c #382E2E",
"Q  c #3D2A2A",
"!  c #381315",
"~  c #0F0E13",
"^  c #1F0F13",
"/  c #502121",
"(  c #372D2D",
")  c #382B2B",
"_  c #3E2828",
"`  c #3E1315",
"'  c #170D12",
"]  c #260E12",
"[  c #522222",
"{  c #392F2F",
"}  c #3F3131",
"|  c #402828",
" . c #431315",
".. c #1F0C11",
"X. c #2D0D11",
"o. c #502020",
"O. c #402E2E",
"+. c #3A2E2E",
"@. c #471315",
"#. c #280C10",
"$. c #350D11",
"%. c #402F2F",
"&. c #3A2F2F",
"*. c #3F3030",
"=. c #4B1214",
"-. c #310B0E",
";. c #3C0D0F",
":. c #3B2F2F",
">. c #413030",
",. c #501214",
"<. c #390A0E",
"1. c #430C0F",
"2. c #3D2E2E",
"3. c #462F2F",
"4. c #541113",
"5. c #42090C",
"6. c #4A0B0D",
"7. c #422D2D",
"8. c #4A2929",
"9. c #581113",
"0. c #4B080B",
"q. c #510A0D",
"w. c #3F2D2D",
"e. c #5D1012",
"r. c #53070A",
"t. c #58090C",
/* pixels */
"  . X   o O + @ # $ % & * = - ; ",
": > , = < 1 2 3 4 5 6 7 8 9 0 q ",
"  w e r t y u i p a s d f g h j ",
"k l l z x c v b b n m M N B l l ",
"V l C Z A S b b b b b D F G l l ",
"o o H J K S S S S S S S L P o o ",
"; o I U Y Y Y Y Y Y Y Y T R o E ",
"W ; Q ! ~ ~ ~ ~ ~ ~ ~ ~ ^ / ; ; ",
"( ) _ ` ' ' ' ' ' ' ' ' ] [ ; ; ",
"{ } |  .................X.o.O.+.",
"{ } | @.#.#.#.#.#.#.#.#.$.o.%.+.",
"&.*.| =.-.-.-.-.-.-.-.-.;.o.O.+.",
":.>.| ,.<.<.<.<.<.<.<.<.1.o.B 2.",
"2.3.| 4.5.5.5.5.5.5.5.5.6.o.7.8.",
"j 2.| 9.0.0.0.0.0.0.0.0.q.o.w.:.",
"&.} | e.r.r.r.r.r.r.r.r.t.o.O.:."
};
