/* XPM */
static char *b6181bb76257407c97c6334790933515sz7qSOmQTQX1gp5b[] = {
/* columns rows colors chars-per-pixel */
"16 16 186 2 ",
"   c #B66B3A",
".  c #B56939",
"X  c #C27E45",
"o  c #D89E58",
"O  c #C17C44",
"+  c #C67F45",
"@  c #BE8B4F",
"#  c #3C2E22",
"$  c #926D40",
"%  c #D18F4E",
"&  c #BB723E",
"*  c #D39754",
"=  c #DAA15A",
"-  c #CB8A4D",
";  c #CC8C4D",
":  c #BD7640",
">  c #C27D45",
",  c #D9A059",
"<  c #C47F45",
"1  c #AB653B",
"2  c #835338",
"3  c #33251E",
"4  c #946F41",
"5  c #D49855",
"6  c #DBA35B",
"7  c #CD8D4E",
"8  c #BF7841",
"9  c #BF7741",
"0  c #CD8D4D",
"q  c #CC8B4D",
"w  c #C17941",
"e  c #995435",
"r  c #5A2C29",
"t  c #2C1F1C",
"y  c #987243",
"u  c #D49150",
"i  c #B86E3C",
"p  c #C8874A",
"a  c #C48046",
"s  c #B86D3A",
"d  c #AF6639",
"f  c #AB6338",
"g  c #AD6539",
"h  c #B56A3A",
"j  c #B96D3B",
"k  c #9B5736",
"l  c #5D2F2A",
"z  c #85643C",
"x  c #C4874B",
"c  c #B76C3B",
"v  c #B76C3A",
"b  c #B26839",
"n  c #AB6438",
"m  c #8C4D33",
"M  c #6D372E",
"N  c #7B4130",
"B  c #AD6438",
"V  c #BB6E3B",
"C  c #5F302A",
"Z  c #2B231C",
"A  c #745635",
"S  c #CE9050",
"D  c #BA713E",
"F  c #B76B3A",
"G  c #9C5836",
"H  c #723B2F",
"J  c #B56B3A",
"K  c #824631",
"L  c #5D2C2B",
"P  c #6D382E",
"I  c #BB6F3B",
"U  c #8F5133",
"Y  c #583028",
"T  c #2B1C1B",
"R  c #362B20",
"E  c #6A4C31",
"W  c #824932",
"Q  c #884933",
"!  c #7A4031",
"~  c #68322D",
"^  c #B86C3A",
"/  c #995735",
"(  c #834732",
")  c #8D4E33",
"_  c #B16839",
"`  c #A55F37",
"'  c #A66037",
"]  c #B06739",
"[  c #763C30",
"{  c #3C2421",
"}  c #1D1917",
"|  c #221919",
" . c #412322",
".. c #482524",
"X. c #482624",
"o. c #492724",
"O. c #AC6438",
"+. c #7E4331",
"@. c #804531",
"#. c #A15C36",
"$. c #68372C",
"%. c #37221F",
"&. c #201B18",
"*. c #261E1A",
"=. c #382B21",
"-. c #3D2E22",
";. c #713A2F",
":. c #6A352D",
">. c #6C362E",
",. c #35231E",
"<. c #241C19",
"1. c #1F1918",
"2. c #392C21",
"3. c #AA7D48",
"4. c #C38F51",
"5. c #BF8C4F",
"6. c #331E1E",
"7. c #351F1E",
"8. c #38211F",
"9. c #36221F",
"0. c #251C19",
"q. c #1E1917",
"w. c #4C3A27",
"e. c #9C7041",
"r. c #C17F46",
"t. c #CA8347",
"y. c #644C30",
"u. c #634B30",
"i. c #634B2F",
"p. c #664E31",
"a. c #493927",
"s. c #221B19",
"d. c #1D1717",
"f. c #694F32",
"g. c #D89A55",
"h. c #BB713E",
"j. c #A15B35",
"k. c #975434",
"l. c #985534",
"z. c #D29654",
"x. c #D59B56",
"c. c #D79E58",
"v. c #D69C57",
"b. c #9C7142",
"n. c #1B1716",
"m. c #664D31",
"M. c #834631",
"N. c #64312D",
"B. c #67332D",
"V. c #BC733E",
"C. c #CE8E4E",
"Z. c #DBA15A",
"A. c #D59955",
"S. c #BF7842",
"D. c #BA703D",
"F. c #382B20",
"G. c #191516",
"H. c #674D31",
"J. c #D39654",
"K. c #B56A39",
"L. c #CB8B4D",
"P. c #BA713D",
"I. c #925032",
"U. c #894E36",
"Y. c #855439",
"T. c #674E31",
"R. c #AB7744",
"E. c #C07B43",
"W. c #A35D36",
"Q. c #C37E45",
"!. c #CC8C4E",
"~. c #C8864A",
"^. c #B96F3C",
"/. c #965434",
"(. c #773D30",
"). c #997343",
"_. c #D59250",
"`. c #C17B44",
"'. c #BE753F",
"]. c #9B5836",
"[. c #5D302A",
"{. c #2D201C",
"}. c #957041",
"|. c #C68146",
" X c #68342D",
".X c white",
/* pixels */
"  . X o o O + @ # $ % & * = -   ",
"; : > , , < 1 2 3 4 % & 5 6 ;   ",
"7 8 9 0 q w e r t y u i p 7 a s ",
"  d f g h j k l t z x & c v b n ",
"h m M N B V k C t Z A S D F G H ",
"J K L P f I d U Y T R E W Q ! ~ ",
"^ / ( ) _ ` ' ] [ { } |  ...X.o.",
"O.f f O.f +.@.#.$.%.&.*.=.-.# # ",
";.H H H ;.:.>.$.,.<.1.2.3.4.5.5.",
"6.6.6.6.6.7.8.9.0.q.w.e.r.t.t.t.",
"y.u.i.i.y.p.a.} s.d.f.g.h.j.k.l.",
"z.x.c.v.* g.b.2.*.n.m.* & M.N.B.",
"V.C.Z.A.S.D.r.3.F.G.H.J.& M.N.B.",
"K.L.6 A.P.I.U.Y.3 T.R.E.c W./ G ",
"  Q.!.~.^./.(.r t )._.c `.'.B ].",
"          s k [.{.}.% & J.|.k. X"
};
