/* XPM */
static char *c1c14ec203744b2cfd164f4aeaab925elIwN3CbAQwvSuoYx[] = {
/* columns rows colors chars-per-pixel */
"16 16 10 1 ",
"  c #251D19",
". c None",
"X c #231C19",
"o c #251E1A",
"O c #251D1A",
"+ c #D89E58",
"@ c #271F1A",
"# c #B66B3A",
"$ c #67332D",
"% c #241C19",
/* pixels */
" .XXXXXXXXXXXXXX",
"oO++++++++++++@X",
"X+++#+++####+++X",
"X++##+++#####++X",
"X+###+++#++###+X",
"X+#+#####++###+X",
"X+############+X",
"X+##$$######+#+X",
"X$##$$#++#####$X",
"X$#####++#####$X",
"X$#$#########$$X",
"X$#######$$###$X",
"X$##$$###$$#$#$X",
"X$##$$########$X",
"XX$$$$$$$$$$$$X.",
"X%XXXXXXXXXXXXXX"
};
