/* XPM */
static char *efe0d450f7c5415cb932fc370f2b6904lcRALMXdlB3vANCK[] = {
/* columns rows colors chars-per-pixel */
"53 53 71 1 ",
"  c #2D2D2C",
". c #2F302F",
"X c #30302F",
"o c #2F3030",
"O c #343433",
"+ c #373836",
"@ c #393936",
"# c #343738",
"$ c #36393A",
"% c #3B3C3C",
"& c #403E3B",
"* c #41413F",
"= c #3C3F40",
"- c #3E4142",
"; c #424545",
": c #474947",
"> c #444748",
", c #464949",
"< c #4B4D4C",
"1 c #4C4F51",
"2 c #4E5252",
"3 c #525556",
"4 c #535758",
"5 c #565A5A",
"6 c #595D5D",
"7 c #5B5F60",
"8 c #5D6062",
"9 c #5F6365",
"0 c #5F6464",
"q c gray39",
"w c #606365",
"e c #606466",
"r c #646565",
"t c #636768",
"y c #636869",
"u c #646869",
"i c #666B6C",
"p c #676C6D",
"a c #6A6A6A",
"s c #696B6C",
"d c #6A6C6C",
"f c #6C6E6E",
"g c #6A6E70",
"h c #6C7071",
"j c #6C7171",
"k c #727373",
"l c #717374",
"z c #737575",
"x c #737576",
"c c #737879",
"v c #767879",
"b c #767A7C",
"n c #7A7B7C",
"m c #7D7D7E",
"M c #7C7F80",
"N c #7F7F80",
"B c #7F8181",
"V c #808080",
"C c #868788",
"Z c #878989",
"A c #89898A",
"S c #8A8A8B",
"D c #949595",
"F c #979898",
"G c #9A9B9B",
"H c #9D9E9F",
"J c #A1A3A3",
"K c #A5A5A6",
"L c gray66",
"P c gray69",
"I c gray80",
/* pixels */
"IIIIIIVVVVVVVVIIIIIIIIVVVVVVVVIIIIIIIIVVVVVVVVIIIIIII",
"IIIIIIVVVVVVVVIIIIIIIIVVVVVVVVIIIIIIIIVVVVVVVVIIIIIII",
"IIIIIIVVVVVVVVIIIIIIIIVVVVVVVVIIIIIIIIVVVVVVVVIIIIIII",
"IIIIIIVVVVVVVVIIIIIIIIVVVVVVVVIIIIIIIIVVVVVVVVIIIIIII",
"IIIIIIVVVVVVVVIIIIIIIIVVVVVVVVIIIIIIIIVVVVVVVVIIIIIII",
"IIIIIIVVVVVVVVIIIIIIIIVVVVVVVVIIIIIIIIVVVVVVVVIIIIIII",
"IIIIIIVVVVVVVVIIIIIIIIVVVVVVVVIIIIIIIIVVVVVVVVIIIIIII",
"VVVVVVIIIIIIIIVVVVVVVVIIIIIIIIVVVVVVVVIIIIIIIIVVVVVVV",
"VVVVVVIIIIIIIIVVVVVVVVIIIIIIIIVVVVVVVVIIIIIIIIVVVVVVV",
"VVVVVVIIIIIIIIVVVVVVVVIIIIIIIIVVVVVVVVIIIIIIIIVVVVVVV",
"VVVVVVIIIIIIIIVVVVVVVVIIIIIIIIVVVVVVVVIIIIIIIIVVVVVVV",
"VVVVVVIIKfssdk65446666kzzqqzvl86866667lkjjdAIIVVVVVVV",
"VVVVVVIIG557788686tu0udlb24zdtiee8888ee8665mIIVVVVVVV",
"VVVVVVIIH55778e8e5euetwdj,5dgtdu9688e888654MIIVVVVVVV",
"VVVVVVIIJ657888697t989edj;5ztuue88878888554mIIVVVVVVV",
"IIIIIIVVke56e987e89e6668d>6zite8768889985666VVIIIIIII",
"IIIIIIVVku0uyuut85444446p<8cju065578eetu79e6VVIIIIIII",
"IIIIIIVVa424452<<;<222,<3<<<>>;;;;>>;;><<2<6VVIIIIIII",
"IIIIIIVVf3<<;><<*;55<><<<<:<<,%->,;*<<,<23<rVVIIIIIII",
"IIIIIIVVq$%%$#%>;3zp855422<12246ee#O--%%%$O6VVIIIIIII",
"IIIIIIVVr$$$%%%-%3zj8965222224458eO$;>;-%%%6VVIIIIIII",
"IIIIIIVVr$%%%--;#5ju9885244444568e#%>;;--%%7VVIIIIIII",
"IIIIIIVVr-%=---<%6zfe967444544569dO%;;;;--%8VVIIIIIII",
"VVVVVVIIF=%%--;4*6vge88854455568td#%;,,;--%AIIVVVVVVV",
"VVVVVVIIF%-;,,<<%6jjuu986564454688#$-;;--%%AIIVVVVVVV",
"VVVVVVIIDOO+%%%%%#@#+%*;;*%%&%%%%%%@@@O.o%*AIIVVVVVVV",
"VVVVVVIIF6886457890ddgjzd%eMzzjdu877557ee86AIIVVVVVVV",
"VVVVVVIIG88ee445688uuutt8#dCzjuiutue759ee85AIIVVVVVVV",
"VVVVVVIIG769t5446967yduy6@ezuupuetu866ee865AIIVVVVVVV",
"VVVVVVIIG768t6656e770teut#ejdiiutye688ee865AIIVVVVVVV",
"VVVVVVIIF556e5655088e0eiuOtzjdggiue6760853,AIIVVVVVVV",
"IIIIIIVVr24464624507eyps4O5jjgdt8664655442=6VVIIIIIII",
"IIIIIIVVqOOX  XOO        %+OXOOO  O  O  O#%rVVIIIIIII",
"IIIIIIVVz655433,O;,,<2223686566535%;55358ednVVIIIIIII",
"IIIIIIVVm85567y2 2523456886886866e-;886656jBVVIIIIIII",
"IIIIIIVVn8556682@<5422445877866668%;566656jBVVIIIIIII",
"IIIIIIVVz6656554#255<2445666676666$,4565668nVVIIIIIII",
"IIIIIIVVz6678655.<544<456566556646$<4565668zVVIIIIIII",
"IIIIIIVVl6768e94 <2241456578864676#<8895566kVVIIIIIII",
"VVVVVVIILvnnnn65:33<43mMVVBVBm5354347qCCCZCPIIVVVVVVV",
"VVVVVVIIIIIIIIVVVVVVVVIIIIIIIIVVVVVVVVIIIIIIIIVVVVVVV",
"VVVVVVIIIIIIIIVVVVVVVVIIIIIIIIVVVVVVVVIIIIIIIIVVVVVVV",
"VVVVVVIIIIIIIIVVVVVVVVIIIIIIIIVVVVVVVVIIIIIIIIVVVVVVV",
"VVVVVVIIIIIIIIVVVVVVVVIIIIIIIIVVVVVVVVIIIIIIIIVVVVVVV",
"VVVVVVIIIIIIIIVVVVVVVVIIIIIIIIVVVVVVVVIIIIIIIIVVVVVVV",
"VVVVVVIIIIIIIIVVVVVVVVIIIIIIIIVVVVVVVVIIIIIIIIVVVVVVV",
"VVVVVVIIIIIIIIVVVVVVVVIIIIIIIIVVVVVVVVIIIIIIIIVVVVVVV",
"IIIIIIVVVVVVVVIIIIIIIIVVVVVVVVIIIIIIIIVVVVVVVVIIIIIII",
"IIIIIIVVVVVVVVIIIIIIIIVVVVVVVVIIIIIIIIVVVVVVVVIIIIIII",
"IIIIIIVVVVVVVVIIIIIIIIVVVVVVVVIIIIIIIIVVVVVVVVIIIIIII",
"IIIIIIVVVVVVVVIIIIIIIIVVVVVVVVIIIIIIIIVVVVVVVVIIIIIII",
"IIIIIIVVVVVVVVIIIIIIIIVVVVVVVVIIIIIIIIVVVVVVVVIIIIIII",
"IIIIIIVVVVVVVVIIIIIIIIVVVVVVVVIIIIIIIIVVVVVVVVIIIIIII"
};
