/* XPM */
static char *_3802acd4d114ba5cc25c0fb5e18abdav6Mh4W1PbPB2APZp[] = {
/* columns rows colors chars-per-pixel */
"64 64 162 2 ",
"   c #342F2C",
".  c #3B2D2C",
"X  c #33312E",
"o  c #323232",
"O  c #393633",
"+  c #3C3B34",
"@  c #3E3C39",
"#  c #4D2726",
"$  c #4A2827",
"%  c #432A29",
"&  c #4C2828",
"*  c #542525",
"=  c #5A2324",
"-  c #572827",
";  c #5A2C29",
":  c #40362E",
">  c #55322B",
",  c #413535",
"<  c #403E34",
"1  c #473738",
"2  c #423E3B",
"3  c #4B3839",
"4  c #573737",
"5  c #593B3E",
"6  c #613A34",
"7  c #434436",
"8  c #474837",
"9  c #484837",
"0  c #454539",
"q  c #4A463D",
"w  c #474939",
"e  c #4B4B3B",
"r  c #524836",
"t  c #56473F",
"y  c #574938",
"u  c #4E513C",
"i  c #52543D",
"p  c #545B3E",
"a  c #4E4441",
"s  c #4F4D41",
"d  c #524643",
"f  c #554C44",
"g  c #5E4F44",
"h  c #594B48",
"j  c #545243",
"k  c #5A5445",
"l  c #5A5B42",
"z  c #7B4449",
"x  c #60544F",
"c  c #605E48",
"v  c #7F5445",
"b  c #785E40",
"n  c #645450",
"m  c #665A52",
"M  c #5E6343",
"N  c #616645",
"B  c #636D47",
"V  c #6C6A47",
"C  c #64624C",
"Z  c #666C48",
"A  c #696C4A",
"S  c #7E6B47",
"D  c #716E4A",
"F  c #667249",
"G  c #6D734B",
"H  c #6E7C4E",
"J  c #71774D",
"K  c #7A774F",
"L  c #747B4F",
"P  c #6E6D51",
"I  c #736E54",
"U  c #727551",
"Y  c #767D51",
"T  c #797F51",
"R  c #7A725D",
"E  c #776660",
"W  c #7D6561",
"Q  c #7E7360",
"!  c #88474D",
"~  c #8C484F",
"^  c #845848",
"/  c #817E52",
"(  c #807C59",
")  c #816764",
"_  c #856A67",
"`  c #896D69",
"'  c #837466",
"]  c #817861",
"[  c #8B746D",
"{  c #8C796B",
"}  c #947672",
"|  c #937A73",
" . c #997C76",
".. c #9F7F79",
"X. c #758551",
"o. c #7C8453",
"O. c #7C8954",
"+. c #818655",
"@. c #818B56",
"#. c #858E58",
"$. c #8E8A5A",
"%. c #819357",
"&. c #869259",
"*. c #8A945B",
"=. c #869B5B",
"-. c #8C9B5D",
";. c #929D5F",
":. c #8C8861",
">. c #978166",
",. c #9F896B",
"<. c #959165",
"1. c #939F60",
"2. c #9D9860",
"3. c #A5837E",
"4. c #95A261",
"5. c #9BA463",
"6. c #93AB62",
"7. c #9DAB65",
"8. c #9AB465",
"9. c #9DBA67",
"0. c #9EBA68",
"q. c #A2A564",
"w. c #A8A265",
"e. c #A1AE67",
"r. c #A7A16C",
"t. c #A3AF69",
"y. c #A4B369",
"u. c #AAB66B",
"i. c #A2BF6A",
"p. c #ACBC6D",
"a. c #ADBD6E",
"s. c #B3BC6F",
"d. c #B8BA6D",
"f. c #B2AC72",
"g. c #A4C06B",
"h. c #A7C26C",
"j. c #A9C36D",
"k. c #ADC26E",
"l. c #A9C46D",
"z. c #B0C16F",
"x. c #AEC770",
"c. c #B1C370",
"v. c #B3C471",
"b. c #BCC774",
"n. c #B2C971",
"m. c #B6C973",
"M. c #B7CC74",
"N. c #B9CC74",
"B. c #BBCC75",
"V. c #B9CE75",
"C. c #BED177",
"Z. c #C3CE77",
"A. c #C2D479",
"S. c #CBD77B",
"D. c #CBDA7C",
"F. c #D0DD7E",
"G. c #AB8682",
"H. c #A58A80",
"J. c #B18D86",
"K. c #AE9188",
"L. c #B4948C",
"P. c #B9958E",
/* pixels */
"C.C.C.C.C.C.C.C.C.C.C.C.C.C.C.C.C.C.C.C.C.C.C.C.C.C.C.C.C.C.C.C.C.C.C.C.C.C.C.C.C.C.C.C.C.C.C.C.C.C.C.C.C.C.C.C.C.C.C.C.C.C.C.C.",
"C.C.C.C.C.C.C.C.C.C.C.C.C.C.C.C.C.C.C.C.C.C.C.C.C.C.C.C.C.C.C.C.C.C.C.C.C.C.C.C.C.C.C.C.C.C.C.C.C.C.C.C.C.C.C.C.C.C.C.C.C.C.C.C.",
"C.C.C.C.C.C.C.C.C.C.C.C.C.C.C.C.C.C.C.C.C.C.C.C.C.C.C.C.C.C.C.C.C.C.C.C.C.C.C.C.C.C.C.C.C.C.C.C.C.C.C.C.C.C.C.C.C.C.C.C.C.C.C.C.",
"C.C.C.C.C.C.C.C.C.C.C.C.C.C.C.C.C.C.C.C.C.C.C.C.C.C.C.C.C.C.C.C.C.C.C.C.C.C.C.C.C.C.C.C.V.M.M.M.M.M.M.M.M.V.C.C.C.C.C.C.C.C.C.C.",
"C.C.C.C.C.C.C.C.C.C.C.C.C.C.C.C.C.C.C.C.C.C.C.C.C.C.C.C.C.C.C.C.C.C.C.C.C.C.C.C.C.C.C.V.x.j.j.j.j.j.j.j.j.x.V.C.C.C.C.C.C.C.C.C.",
"C.C.C.C.C.C.V.M.M.M.M.M.M.V.C.C.C.C.C.C.C.C.C.C.C.C.C.C.C.C.C.C.C.C.C.C.C.C.C.C.V.M.M.n.h.i.i.i.i.i.i.i.i.h.n.V.C.C.C.C.C.C.C.C.",
"C.C.C.C.C.V.x.j.j.j.j.j.j.x.V.C.C.C.C.C.C.C.C.C.C.C.C.C.C.C.C.C.C.C.C.C.C.C.C.V.x.j.j.h.g.i.i.i.i.i.i.i.i.g.h.x.V.C.C.C.C.C.C.C.",
"C.C.C.C.V.n.h.i.i.i.i.i.i.h.n.M.M.V.C.C.C.C.C.C.C.C.C.C.C.C.C.C.C.C.C.C.C.C.V.n.h.i.i.i.i.i.i.i.i.i.i.i.i.i.i.l.M.C.C.C.C.C.C.C.",
"C.C.C.V.x.h.g.i.i.i.i.i.i.g.h.j.j.x.V.C.C.C.C.C.C.C.C.C.C.C.C.C.C.C.C.C.C.V.x.h.g.i.i.i.i.i.i.i.i.i.i.i.i.i.i.l.M.C.C.C.C.C.C.C.",
"C.C.C.M.j.i.i.i.i.i.i.i.i.i.i.i.i.h.n.V.C.C.C.C.C.C.C.C.C.C.C.C.C.C.C.C.C.M.j.i.i.i.i.i.i.i.i.i.i.i.i.i.i.i.i.l.M.C.C.C.C.C.C.C.",
"C.C.C.M.j.i.i.i.i.i.i.i.i.i.i.i.i.g.h.x.V.C.C.C.C.C.C.C.C.C.C.C.C.C.C.C.C.M.j.i.i.i.i.i.i.i.i.i.i.i.i.i.i.i.i.l.M.C.C.C.C.C.C.C.",
"C.C.C.M.j.i.i.i.i.i.i.i.i.i.i.i.i.i.i.l.M.C.C.C.C.C.C.C.C.C.C.C.C.C.C.C.C.V.x.h.g.i.i.i.i.i.i.i.i.i.i.i.i.g.h.x.V.C.C.C.C.C.C.C.",
"C.C.C.M.j.i.i.i.i.i.i.i.i.i.i.i.i.i.i.l.M.C.C.C.C.C.C.C.C.C.C.C.C.C.C.C.C.C.V.n.h.i.i.i.i.i.i.i.i.i.i.i.i.h.n.V.C.C.C.C.C.C.C.C.",
"C.C.C.M.j.i.i.i.i.i.i.i.i.i.i.i.i.i.i.l.M.C.C.C.C.C.C.C.C.C.C.C.C.C.C.C.C.C.C.V.x.l.l.l.l.l.l.l.l.l.l.l.l.x.V.C.C.C.C.C.C.C.C.C.",
"C.C.C.M.j.i.i.i.i.i.i.i.i.i.i.i.i.i.i.l.M.C.C.C.C.C.C.C.C.C.C.C.C.C.C.C.C.C.C.C.V.M.M.M.M.M.M.M.M.M.M.M.M.V.C.C.C.C.C.C.C.C.C.C.",
"C.C.C.V.x.h.g.i.i.i.i.i.i.i.i.i.i.g.h.x.V.C.C.C.C.C.C.C.C.C.C.m.u.y.y.y.y.u.m.C.C.C.C.C.V.v.u.y.y.y.y.p.m.M.M.M.M.V.C.C.C.C.C.C.",
"C.C.C.C.V.n.h.i.i.i.i.i.i.i.i.i.i.h.n.V.C.C.C.C.C.C.C.C.C.C.C.u.O.A Z Z Z @.u.C.C.C.C.C.V.e.o.Z Z Z G &.y.j.j.j.j.x.V.C.C.C.C.C.",
"C.C.C.C.C.V.x.l.l.l.l.l.l.g.0.6.0.k.V.C.C.C.C.C.C.C.C.C.C.m.p.1.A f f f f A -.y.v.M.m.c.y.*.C f f f k U =.6.0.i.i.h.n.V.C.C.C.C.",
"C.C.C.C.C.C.V.M.M.M.M.M.M.p.*.Y ;.c.C.C.C.C.C.C.C.C.C.C.C.u.O.P ' | } } | ' A L 6.j.i.6.Y I { | } } | Q A O.6.i.i.g.h.x.V.C.C.C.",
"C.C.C.C.C.C.C.C.C.C.C.V.p.4.G i Y 7.k.m.M.M.M.M.M.V.C.C.C.e.N k  .L.G.G.P. .f p =.i.0.&.l m H.P.G.J.L.[ j F 6.i.i.i.i.l.M.C.C.C.",
"C.C.C.C.C.C.C.C.C.C.C.c.-.Z w @ u G -.i.j.j.j.j.j.x.V.C.C.7.M f  .G.W W J...f i =.i.9.%.i n 3.3.W [ K.[ f B 6.i.i.i.i.l.M.C.C.C.",
"C.C.C.C.C.C.C.C.C.C.C.p.Y 7 o o X w O.8.i.i.i.i.i.h.n.V.C.7.M q ) _ d d [ ` a u X.=.=.H e h ` W d x [ E e B 6.i.i.g.h.x.V.C.C.C.",
"C.C.C.C.C.C.C.C.C.C.C.p.L 7 X o X 7 X.8.i.i.i.i.i.g.h.x.V.7.M + d d O + f d + @ u p p e @ 2 f a + 2 f a 7 B 6.i.i.h.n.V.C.C.C.C.",
"C.C.C.C.C.C.C.C.C.C.C.p.L 7 X o X 7 X.8.i.i.i.i.i.i.i.l.M.7.M X X o o o o o o o X X X X o o o o o o X X + F 6.l.l.x.V.C.C.C.C.C.",
"C.C.C.C.C.C.C.C.C.C.C.p.L 7 X o X 7 X.8.i.i.i.i.i.i.i.l.M.7.M X X o o o o o o o o X X o o o o o o o o X + G y.M.M.V.C.C.C.C.C.C.",
"C.C.C.C.C.C.C.C.C.V.p.4.Z + X o X 7 X.8.i.i.i.i.i.g.h.p.y.&.p X o o o o o o o o o o o o o o o o o o o X + G u.C.C.C.C.C.C.C.C.C.",
"C.C.C.C.C.C.C.C.C.c.*.N 8 O o o X 8 X.8.i.i.i.i.i.h.n.y.o.p @ o o o o o o o o o o o o o o o o o o o o X + G u.C.C.C.C.C.C.C.C.C.",
"C.C.C.C.C.C.C.V.p.;.Z @ X o o O 8 N =.i.l.l.l.l.l.x.V.e.M X X o o o o o o o o @ j s + o o o o o O 0 j e 7 N -.u.m.C.C.C.C.C.C.C.",
"C.C.C.C.C.C.C.c.*.M 8 O o o X 7 G 4.p.m.M.M.M.M.M.V.C.e.M X X o o o o o o o o k <.:.s o o o o o + C <.( e 7 l #.p.C.C.C.C.C.C.C.",
"C.C.C.C.C.C.C.p.o.7 X o o O 8 N ;.v.C.C.C.C.C.C.C.C.C.e.M X X o o o o o o o O c f.r.j o o o o o + I f.<.e X + G u.C.C.C.C.C.C.C.",
"C.C.C.C.C.C.C.p.o.7 X o X 7 G 4.p.V.C.C.C.C.C.C.C.C.C.e.M X X o o o o o o o O l w.2.j o o o o o + A w.$.e X + G u.C.C.C.C.C.C.C.",
"C.C.C.C.C.C.C.p.o.7 X o X 7 o.z.C.C.C.C.C.C.C.C.C.C.C.e.M X X X X X X o o o o e / K q o o , 5 3 , k / D 0 X + G u.C.C.C.C.C.C.C.",
"C.C.C.C.C.C.C.p.o.7 X o X 7 o.p.C.C.C.C.C.C.C.C.C.C.C.y.N X X X   X X X o o o + e q + o o 5 ~ z 3 @ e 8 O X + G u.C.C.C.C.C.C.C.",
"C.C.C.C.C.C.C.p.o.7 X o X 7 A 4.p.V.C.C.C.C.C.C.C.C.C.u.o.p + X X X X X o o o o o o o o o 5 ! z 1 o o o o X + G u.C.C.C.C.C.C.C.",
"C.C.C.C.C.C.C.p.o.7 X o o O 7 M *.p.V.V.V.V.V.V.V.V.V.v.y.#.p X X X o o o o o o o o o o o O 3 1 O o o o o o 7 L p.C.C.C.C.C.C.C.",
"C.C.C.C.C.C.C.p.o.7 X o o o X 7 A *.1.1.1.1.1.1.1.1.1.1.1.+.y .   X X X X o o o o o o o o o o o o o o o O 8 N &.z.C.C.C.C.C.C.C.",
"C.C.C.C.C.C.C.p.o.7 X o o o o O 7 u i i i i i i i i i i i r > # .       X X o o o o o o o o o o o o o O + Z ;.p.V.C.C.C.C.C.C.C.",
"C.C.C.C.C.C.A.c.o.7 X o o o o o X X X X X X X X X X X X X . * = $ .     X X o o o o o o o o o o o o O 8 N *.z.C.C.C.C.C.C.C.C.C.",
"C.C.C.C.C.A.S.b.#.w O o o o o o o o o o o o o o o o o o o . # = = # .   X X o o o o o o o o o o o O 7 A 5.v.V.C.C.C.C.C.C.C.C.C.",
"C.C.C.C.A.A.D.A.q.G e O o o o o o o o o o o o o o o o o o . % * = = $ .   X X X X X X X X X X X O 8 Z ;.b.D.A.A.A.A.C.C.C.C.C.C.",
"C.C.C.A.S.D.D.S.Z.t.J 7 X o o o o o o o o o o o o o o o o o   % * = = # .                     X 7 A e.b.S.D.D.D.D.S.A.C.C.C.C.C.",
"C.C.C.A.D.F.F.F.F.b.+.7 X o o o o o o o o o o o o o o o o o o . % * = = $ % % % % % % % % % % r V ;.b.F.F.F.F.F.F.D.A.A.C.C.C.C.",
"C.C.C.A.D.F.F.F.F.b.#.e O o o o o o o o o o o o o o o o o o o o   % - = - - - - ; ; - - - - ; b q.b.S.F.F.F.F.F.F.D.D.S.A.C.C.C.",
"C.C.C.A.S.D.D.F.F.Z.e.L i O X X o o o o o o o o o o o o o o o o o   % & & & & 6 ^ v 4 & & # > S d.F.F.F.F.F.F.F.F.F.F.D.A.C.C.C.",
"C.C.C.C.A.A.D.F.F.D.Z.u.L w O X X o o o o o o o o o o o o o o o o o   . . . O g ,.>.t . . . : D s.F.F.F.F.F.F.F.F.F.F.D.A.C.C.C.",
"C.C.C.C.C.A.S.D.D.D.D.V.5.J u O X o o o o o o o o o o o o o o o o o o o o o o s ] R q o o X O G s.F.F.F.F.F.F.F.F.D.D.S.A.C.C.C.",
"C.C.C.C.C.C.A.A.A.A.A.V.v.7.G + X o o o o o o o o o o o o o o o o o o o o o o + 0 0 O o o X O G s.F.F.F.F.F.F.F.F.D.A.A.C.C.C.C.",
"C.C.C.C.C.C.C.C.C.C.C.C.C.u.L + X o o o o o o o o o o o o o o o o o o o o o o o o o o o o X O G p.D.D.D.D.D.D.D.D.S.A.C.C.C.C.C.",
"C.C.C.C.C.C.C.C.C.C.C.C.C.u.L + X o o o o o o o o o o o o o o o o o o o o o o o o o o o o O 7 J u.A.A.A.A.A.A.A.A.A.C.C.C.C.C.C.",
"C.C.C.C.C.C.C.C.C.C.C.C.C.u.L < X o o o o o o o o o o o o o o o o o o o o o o o o o o o O w Z -.p.C.C.C.C.C.C.C.C.C.C.C.C.C.C.C.",
"C.C.C.C.C.C.C.C.C.C.C.C.C.p.T 7 X o o o o o o o o o o o o o o o o o o o o o o o o o o o O M 4.c.V.C.C.C.C.C.C.C.C.C.C.C.C.C.C.C.",
"C.C.C.C.C.C.C.C.C.C.C.C.C.p.o.7 X o o o o o + + O o o o o O + + O o o O + + O o o o o X O A y.A.C.C.C.C.C.C.C.C.C.C.C.C.C.C.C.C.",
"C.C.C.C.C.C.C.C.C.C.C.C.C.p.o.7 X o o o o O @ 2 + o o o o O 2 2 O o o O 2 2 O o o o o X O A u.S.A.C.C.C.C.C.C.C.C.C.C.C.C.C.C.C.",
"C.C.C.C.A.A.A.A.A.A.C.C.C.p.T 7 X o o o o O 2 2 + o o o o O 2 2 O o o O 2 2 O o o o o X O A p.D.A.C.C.C.C.C.C.C.C.C.C.C.C.C.C.C.",
"C.C.C.A.S.D.D.D.D.S.A.C.C.u.L < X o o o o o + @ O o o o o o + @ O o o O @ + o o o o o X O A p.D.A.C.C.C.C.C.C.C.C.C.C.C.C.C.C.C.",
"C.C.A.A.D.F.F.F.F.D.A.A.C.u.L + X o o o o X O O o o o o X X O O o o o o O O X X o o o X O A u.S.A.C.C.C.C.C.C.C.C.C.C.C.C.C.C.C.",
"C.A.S.D.D.F.F.F.F.D.D.S.A.p.o.u O O o o X X < 7 + o o o X X 7 7 O o o X X O 7 7 O o o O w Y p.A.C.C.C.C.C.C.C.C.C.C.C.C.C.C.C.C.",
"C.A.D.F.F.F.F.F.F.F.F.D.A.v.7.Y i O X X   + N G u O X X   7 Z G w X X X   9 G G 7 X X e Y 5.c.C.C.C.C.C.C.C.C.C.C.C.C.C.C.C.C.C.",
"C.A.D.F.F.F.F.F.F.F.F.D.A.V.v.e.Y u 7 7 7 l &.4.G e 7 7 7 M -.4.B 8 7 7 7 B 4.1.N 7 w A 7.v.V.C.C.C.C.C.C.C.C.C.C.C.C.C.C.C.C.C.",
"C.A.S.D.D.F.F.F.F.D.D.S.A.C.C.v.7.&.@.@.@.*.y.p.5.#.@.@.@.-.u.p.;.@.@.@.@.;.p.p.-.@.@.4.c.C.C.C.C.C.C.C.C.C.C.C.C.C.C.C.C.C.C.C.",
"C.C.A.A.D.F.F.F.F.D.A.A.C.C.C.V.m.c.z.z.z.v.m.V.v.c.z.z.z.v.V.V.v.c.z.z.z.v.V.V.v.z.c.v.V.C.C.C.C.C.C.C.C.C.C.C.C.C.C.C.C.C.C.C.",
"C.C.C.A.S.D.D.D.D.S.A.C.C.C.C.C.C.C.C.C.C.C.C.C.C.C.C.C.C.C.C.C.C.C.C.C.C.C.C.C.C.C.C.C.C.C.C.C.C.C.C.C.C.C.C.C.C.C.C.C.C.C.C.C.",
"C.C.C.C.A.A.A.A.A.A.C.C.C.C.C.C.C.C.C.C.C.C.C.C.C.C.C.C.C.C.C.C.C.C.C.C.C.C.C.C.C.C.C.C.C.C.C.C.C.C.C.C.C.C.C.C.C.C.C.C.C.C.C.C.",
"C.C.C.C.C.C.C.C.C.C.C.C.C.C.C.C.C.C.C.C.C.C.C.C.C.C.C.C.C.C.C.C.C.C.C.C.C.C.C.C.C.C.C.C.C.C.C.C.C.C.C.C.C.C.C.C.C.C.C.C.C.C.C.C."
};
