/* XPM */
static char *_920c516749f40388ad0943af443c0a0qZvA0b67iL28qcpX[] = {
/* columns rows colors chars-per-pixel */
"64 64 212 2 ",
"   c #1A1A35",
".  c #1A1B3A",
"X  c #1E2032",
"o  c #26252D",
"O  c #2A282A",
"+  c #2E2D2D",
"@  c #3E2726",
"#  c #332A27",
"$  c #312E2D",
"%  c #3C2929",
"&  c #31312F",
"*  c #212331",
"=  c #2E2D32",
"-  c #23253B",
";  c #2A293A",
":  c #312E33",
">  c #302F3D",
",  c #2D3139",
"<  c #353332",
"1  c #393533",
"2  c #3D3C36",
"3  c #35323C",
"4  c #3D393A",
"5  c #551E1E",
"6  c #591E1D",
"7  c #54201F",
"8  c #462322",
"9  c #4C2221",
"0  c #40282C",
"q  c #562323",
"w  c #473936",
"e  c #4E3439",
"r  c #443D3A",
"t  c #673531",
"y  c #3C4037",
"u  c #3D413A",
"i  c #474339",
"p  c #42443B",
"a  c #43493E",
"s  c #514F3C",
"d  c #58563E",
"f  c #62483D",
"g  c #1D1D40",
"h  c #222346",
"j  c #272941",
"k  c #22224A",
"l  c #2A2B4B",
"z  c #312F42",
"x  c #363244",
"c  c #3A3546",
"v  c #393A47",
"b  c #3A364B",
"n  c #36394C",
"m  c #262653",
"M  c #2C2D56",
"N  c #2C2C5C",
"B  c #302F58",
"V  c #2F3057",
"C  c #313354",
"Z  c #3B3753",
"A  c #34335A",
"S  c #393759",
"D  c #3D3A5C",
"F  c #2D2B61",
"G  c #302E63",
"H  c #343266",
"J  c #3C3964",
"K  c #35336C",
"L  c #39356D",
"P  c #3B3869",
"I  c #363673",
"U  c #393773",
"Y  c #3B3975",
"T  c #3D3A7A",
"R  c #413945",
"E  c #433D53",
"W  c #4A3658",
"Q  c #413B5D",
"!  c #763F44",
"~  c #413C63",
"^  c #443E6C",
"/  c #423E73",
"(  c #423D7B",
")  c #3D4244",
"_  c #3C4255",
"`  c #3F435F",
"'  c #3F4165",
"]  c #454D41",
"[  c #454A4A",
"{  c #554948",
"}  c #4A5143",
"|  c #585640",
" . c #474857",
".. c #424558",
"X. c #464D5A",
"o. c #494E5A",
"O. c #4D535C",
"+. c #5E5157",
"@. c #625749",
"#. c #675752",
"$. c #745D59",
"%. c #5A624F",
"&. c #5A644D",
"*. c #56625B",
"=. c #5D695D",
"-. c #636D4D",
";. c #6F6D4F",
":. c #6C6551",
">. c #616D5F",
",. c #6C7651",
"<. c #6D7852",
"1. c #6B795C",
"2. c #797552",
"3. c #747C54",
"4. c #484766",
"5. c #42416A",
"6. c #555D62",
"7. c #515469",
"8. c #474173",
"9. c #494275",
"0. c #4B4B70",
"q. c #46417A",
"w. c #4A437C",
"e. c #544C78",
"r. c #5A507C",
"t. c #5A6264",
"y. c #636D61",
"u. c #746364",
"i. c #677061",
"p. c #6C7762",
"a. c #6F7963",
"s. c #727D65",
"d. c #915F53",
"f. c #826C65",
"g. c #8C7669",
"h. c #957973",
"j. c #9D7E78",
"k. c #778358",
"l. c #7E8B5A",
"z. c #778564",
"x. c #7A8D63",
"c. c #7E9362",
"v. c #878357",
"b. c #818D5B",
"n. c #969259",
"m. c #859A65",
"M. c #8C9C62",
"N. c #8C9B6A",
"B. c #909E61",
"V. c #919F6B",
"C. c #9D827A",
"Z. c #A5837D",
"A. c #8EA666",
"S. c #8DA069",
"D. c #93A264",
"F. c #98A765",
"G. c #94AF67",
"H. c #9CAB67",
"J. c #95A36D",
"K. c #9BAC6D",
"L. c #96B267",
"P. c #9AB469",
"I. c #9DBA69",
"U. c #AAA467",
"Y. c #A1AD69",
"T. c #A1B26A",
"R. c #A2BE6A",
"E. c #AABB6D",
"W. c #A6B671",
"Q. c #A7BB70",
"!. c #ADBF72",
"~. c #B1BF70",
"^. c #A4C06B",
"/. c #A9C36D",
"(. c #AFC670",
"). c #B2C372",
"_. c #B6CA73",
"`. c #BBCE75",
"'. c #BCCF76",
"]. c #BDD076",
"[. c #BED177",
"{. c #C3D378",
"}. c #C4D479",
"|. c #CDDB7C",
" X c #D0DD7E",
".X c #443F80",
"XX c #464182",
"oX c #4B4584",
"OX c #4B4485",
"+X c #4F4880",
"@X c #4E4789",
"#X c #524A85",
"$X c #544B8C",
"%X c #594F8F",
"&X c #5B5285",
"*X c #5A518B",
"=X c #574F90",
"-X c #5C5291",
";X c #63588B",
":X c #615793",
">X c #645995",
",X c #695D95",
"<X c #655A98",
"1X c #6A5E9A",
"2X c #6E619D",
"3X c #70639F",
"4X c #6E61A1",
"5X c #7365A3",
"6X c #7768A7",
"7X c #7668A8",
"8X c #AF8C85",
"9X c #B6958C",
/* pixels */
"[.[.[.[.[.[.[.[.[.[.[.[.[.[.[.[.[.[.[.[.[.[.[.[.[.[.[.[.[.[.[.[.[.[.[.[.[.[.[.[.[.[.[.[.[.[.[.[.[.[.[.[.[.[.[.[.[.[.[.[.[.[.[.[.",
"[.[.[.[.[.[.[.[.[.[.[.[.[.[.[.[.[.[.[.[.[.[.[.[.[.[.[.[.[.[.[.[.[.[.[.[.[.[.[.[.[.[.[.[.[.[.[.[.[.[.[.[.[.[.[.[.[.[.[.[.[.[.[.[.",
"[.[.[.[.[.[.[.[.[.[.[.[.[.[.[.[.[.[.[.[.[.[.[.[.[.[.[.[.[.[.[.[.[.[.[.[.[.[.[.[.[.[.[.[.[.[.[.[.[.[.[.[.[.[.[.[.[.[.[.[.[.[.[.[.",
"[.[.[.[.[.[.[.[.[.[.[.[.[.[.[.[.[.[.[.[.[.[.[.[.[.[.[.[.[.[.[.[.[.[.[.[.[.[.[.[.[.[.[.`.`._._._._._._._._.`.`.[.[.[.[.[.[.[.[.[.",
"[.[.[.[.[.[.[.[.[.[.[.[.[.[.[.[.[.[.[.[.[.[.[.[.[.[.[.[.[.[.[.[.[.[.[.[.[.[.[.[.[.[.[.`.(././././././././.(.`.[.[.[.[.[.[.[.[.[.",
"[.[.[.[.[.`.`._._._._._._._.`.[.'.'.'.'.'.'.'.'.'.'.'.'.'.'.'.'.'.'.'.'.'.'.'.`._._._.(.^.R.R.R.R.R.R.R.R./.).`.`.[.[.[.[.[.[.[.",
"[.[.[.[.[.`.(././././.R.R.R.Q.!.!.!.!.!.!.!.!.!.!.!.!.!.!.!.!.!.!.!.!.!.!.!.!.Q.T.P.L.L.L.G.G.G.G.G.L.L.P.R.^.(.`.[.[.[.[.[.[.[.",
"[.[.[.`.`.)./.^.R.R.I.L.A.m.m.m.m.m.N.N.N.N.N.N.N.N.N.N.N.N.N.N.N.N.N.N.N.N.m.m.c.x.x.x.x.x.x.x.x.x.c.m.A.L.I./._.[.[.[.[.[.[.[.",
"[.[.[.`.(./.^.R.R.R.I.A.c.a.>.=.=.>.y.i.i.i.i.i.i.i.i.i.i.i.i.i.i.i.i.i.i.y.>.=.=.=.=.=.=.=.=.=.=.=.>.1.c.A.I./._.[.[.[.[.[.[.[.",
"[.[.[._./.^.R.R.R.R.L.m.1.*.o._ _ _ ........................................_ _ _ _ _ _ _ _ _ _ _ _ X.*.a.m.P./._.[.[.[.[.[.[.[.",
"[.[.[._./.R.R.I.P.L.A.x.>.o.A M M M B A B M M M M M M M M M B M M M M M M M M M M M M M M M M M M M A o.=.x.A.I.(.`.[.[.[.[.[.[.",
"[.[.[._./.R.I.L.A.m.x.p.t.4.J H P P P P P H H H H H H H H H H H G F F F F F F F F F F F F F F F F F H 4.6.p.x.S.T.).`.[.[.[.[.[.",
"[.[.[._./.R.I.A.c.1.=.6.7.0.9.w.w.+X#X+Xw.w.w.q.q.q.q.q.q.q.q./ / U L L L L L L L L L L L L L L L L P 5.4.6.i.z.V.W._.[.[.[.[.[.",
"[.[.[._./.R.L.m.1.*.X.4.0.e.&X*X:X>X<X>X:X*X*X*X*X*X*X*X*X*X$X#X+Xw.( ( ( ( ( ( ( ( ( ( ( ( ( ( ( ( ( / 5.5.o.y.x.K.).`.[.[.[.[.",
"[.[.`.).R.L.A.x.=.o.D J 9.&X>X1X2X5X6X5X2X1X>X>X>X>X>X>X>X>X:X*X$X$XoXoXoXoXoXoXoXoXoXoXoXoXoXoXoXoXXX( P H D O.p.N.W.).).`.`.[.",
"[.[.`.!.K.m.x.i.6.4.J Y +X*X1X5X6X6X6X6X3X2X1X>X>X>X:X:X:X:X:X-X$X$X@X@X@X@X@X@X@X@X@X@X@X@X@X@X@X@XoX( Y K J 4.t.s.N.K.W.).`.[.",
"[.[._.W.N.z.>.6.4.5./ q.$X>X5X6X6X6X5X5X2X2X1X>X:X-X-X-X-X-X*X$X$X$X@X@X@X@X@X@X@X@X@X@X@X@X@X@X@X@XoXXX( Y U 5.4.6.i.x.J.W._.[.",
"[.[.).K.x.=.X.' 5./ q.#X-X1X6X6X6X5X2X2X1X1X,X>X-X%X$X$X$X$X$X$X$X@X@X@X@X@X@X@X@X@X@X@X@X@X@X@X@X@XoXoXXXq.( / ' ` o.=.x.K.).[.",
"[.'.).J.s.O.A H P ( oX$X<X4X7X6X5X2X1X1X1X,X>X:X-X$X$X@X@X@X@X+XoXw.w.XXoX@X@X@X@X@XoXoXoXw.w.+XoX@X@XoXoXoXXX/ P A C O.s.J.).'.",
"[.'.).J.a.o.C F L ( oX=X<X4X6X6X5X2X1X,X>X>X:X-X$X$X@X@X@X@X+X^ S Z Z D q.oX@X@X@XoXq.D Z Z Z ^ +X@X@X@X@X@XoX( L N V o.p.J.).'.",
"[.'.).J.a.o.V F L ( oX$X:X1X5X3X,X;X;X>X:X-X-X$X$X$X@X@X@XoX9. .{ { { { 4.9.oX@XoX9.4.{ { { {  .9.oX@X@X@X@XoX( L N M X.p.J.).'.",
"[.'.).J.a.o.V F L ( oX$X-X<X1X,Xr...0.*X-X%X$X$X$X@X@X@XoX^ E u.j.j.j.h.+.E w.@Xw.Q +.h.Z.j.C.u.E ^ oX@X@X@XoX( L F M o.p.J.).'.",
"[.'.).J.a.o.V F L ( oX$X-X>X;Xe.E 3 E 0.#X$X$X@X@X@X@XoXoX~ R f.8Xj.Z.8X#.c 9.@X9.c #.8XZ.j.9Xg.R ~ oX@X@X@XoX( L N V o.a.J.).'.",
"[.'.).J.a.o.V F L ( oX$X-X:X&XE < + : c 9.$X@X@X@X@X@XoXXXJ 4 $.g.@.$.h.@.c ^ w.^ c { h.$.@.h.f.R ~ oX@X@X@XoX( L N M o.a.J.).'.",
"[.'.).J.a.o.V F L ( oX$X-X:X&Xb + + + 3 9.$X@X@X@X@XoXoXXXJ 3 i { 2 r { r < x b c < r { r 2 { { 1 ~ oX@X@X@XoX( L N V o.a.J.).'.",
"[.'.).J.a.o.V F L ( oX$X-X:X&Xb + + + 3 8.@X@X@X@X@XoXoX( D : $ $ + $ $ $ + + + + + $ $ $ + $ $ : ~ oX@X@X@XoX( L N V o.a.J.).'.",
"[.'.).J.a.o.V F L ( oX$X-X:Xr.b + + + 3 8.@X@X@X@X@XoXXX( S = + + + + + + + + + + + + + + + + + : ~ oX@X@X@XoX( L N V o.a.J.).'.",
"[.'.).J.a.o.V F L ( oX$X*Xe...3 + + + 3 8.@X@X@X@X@XoXq.J x = + + + + + + + + + + + + + + + + + : ~ oX@X@X@XoX( L N V o.a.J.).'.",
"[.'.).J.a.o.V F L ( oX#Xe...< + + + : b q.@X@X@X@X@XoX/ x + + + + + + + + 1 i 2 & + + + + < i r < D w.oX@X@XoX( L N V o.a.J.).'.",
"[.'.).J.a.o.V F L ( +X9.E 3 + + + : b ^ oX@X@X@X@X@XoX/ x + + + + + + + + | v.;.< + + + + a v.2.2 3 D w.@X@XoX( L N V o.a.J.).'.",
"[.'.).J.a.o.V F L ( oX8.3 + + + < b 5.oX@X@X@X@X@X@XoX/ x + + + + + + + & @.U.v.2 + + + + | U.n.p + x 9.@X@XoX( L N V o.a.J.).'.",
"[.'.).J.a.o.V F L ( oX8.3 + + + c 9.+X@X@X@X@X@X@X@XoX/ x + + + + + + + & d n.2.1 + $ 1 $ s n.v.2 + x 9.@X@XoX( L N V o.a.J.).'.",
"[.'.).J.a.o.V F L ( oX5.3 + + + b w.@X@X@X@X@X@X@X@XoXq.x + + + + + + + + p @.s < $ e ! e r | d < + x 9.@X@XoX( L N V o.a.J.).'.",
"[.'.).J.a.o.V F L ( XX^ 3 + + + x ^ w.oX@X@X@X@X@X@X@Xw.Z : $ + + + + + + & < & + $ e d.t < < < + + x 9.@X@XoX( L N V o.a.J.).'.",
"[.'.).J.a.o.V F L ( XX^ 3 + + + : x ~ oXoXoXoXoXoXoXoXw.^ Z : + + + + + + + + + + + 1 e w $ + + + + c 9.@X@XoX( L N V o.a.J.).'.",
"[.'.).J.a.o.V F L ( XX^ 3 + + + + = b D ~ ~ ~ ~ ~ ~ ~ ~ Q R 0 # + + + + + + + + + + + + + + + + = x Q w.@X@XoX( L N V o.a.J.).'.",
"[.'.).J.a.o.V F L ( XX^ 3 + + + + + = : : : : : : : : : : 0 9 8 # # # + + + + + + + + + + + + = 3 ~ w.oX@X@XoX( L N M o.a.J.).'.",
"[.'.).J.a.o.V N L ( XX^ 3 + + + + + + + + + + + + + + + + @ 5 5 8 # # + + + + + + + + + + + + x ~ w.oX@X@X@XoX( L N M o.a.J.).'.",
"[.'.).J.a.X.M N K T XX/ b < + + + + + + + + + + + + + + + % 9 6 5 8 # + + + + + + + + + + : x Q w.oX@XoXoXoXXXY K N M X.1.J.).'.",
"[.'.).J.1. .l m G U ( q./ b + + + + + + + + + + + + + + + $ % 9 6 5 8 # # # # # # # # # $ 3 ~ w.oX@X@XoXoXXX( U G m l  .1.J.).'.",
"[.'.).D.1.[ j k N K T .Xq.S $ + + + + + + + + + + + + + + + $ % 9 6 5 9 8 8 8 8 8 8 8 8 w Q w.@X@X@XoXoXXX.XT K N k j [ ,.D.).'.",
"[.'.).D.,.] - g m G U T ( D 3 = + + + + + + + + + + + + + + + $ % 9 5 5 7 q t t q 5 5 q W w.oX@X@X@XoXXXXXT U G m g - ) -.B.).'.",
"[.'.).D.,.u X . k F I T ( / D 3 + + + + + + + + + + + + + + + + $ % 0 @ @ f g.$.0 @ @ % W XXoXoXoXoXoXXX( T I F k . X u -.B.).'.",
"[.'.).B.-.u X . k N K Y T ( / S 3 + + + + + + + + + + + + + + + + + $ $ $ { g.:.1 + + : D q.XXXXXXXXXX( T Y K N k . X u -.B.).'.",
"[.'.).B.-.u   . k N K U T T T Y S : + + + + + + + + + + + + + + + + + + + < p 2 & + + = S ( ( ( ( T T T T U K N k . X u -.B.).'.",
"[.'.).B.-.u X . k N K I Y Y T Y A = + + + + + + + + + + + + + + + + + + + + + + + + + = C Y T T T T T T Y I K N k . X u -.B.).'.",
"[.'.).D.<.] , - l M H K I I I I A = + + + + + + + + + + + + + + + + + + + + + + + + = > A I I I I I I I I K H M l - , ] <.D.).'.",
"[.[.).H.l.-.} ) n V M F H K I I A = + + + + + + + + + + + + + + + + + + + + + + + + > A K I I I I I I K H F M C n ) } -.l.H.).[.",
"[.[._.E.D.b.<.%.[ n l m N H I I A = + + + + + < < & + + + < < < + + < < < + + + + + z H I I I I I I I H N m l n [ %.<.b.D.E._.[.",
"[.[.`.).E.T.B.k.%.v - h m F K I A = + + + + < 2 2 < + + + < r 1 + + 1 r < & + + + + z H I I I I I I K F m h - v %.k.D.T.E.).`.[.",
"[.[.[.`._.).E.M.,.] , j l N H H V = + + + + & 2 2 < + + + < 2 1 + + < 2 < + + + + + > H K K K K K H H N l j , ] ,.M.E.)._.`.[.[.",
"[.[.[.[.[.'.).H.l.&.} ) n C M N l + + + + + $ < < & + + + & 1 < + + & 1 & + + + + + ; M N N N N N N M V n ) } &.l.H.).'.[.[.[.[.",
"[.[.[.[.[.[._.E.D.b.<.%.[ n l h - O + + + + + + + + + + + + $ + + + + $ + + + + + + o h k k k k k k l n [ %.<.b.D.E._.[.[.[.[.[.",
"[.[.[.[.{.{.{._.E.T.D.k.%.v -     o O + + + + o o O + + + O o O + + + + o o O + + o                 - v %.k.D.T.E.).`.[.[.[.[.[.",
"[.[.[.{.}.|.|.}.{.'.E.M.,.] = * o o O O + + O o o O O O O O o o O O O O o o O + O o * * * * * * * * = ] ,.M.E.)._.`.[.[.[.[.[.[.",
"[.[.{.}.|.|.|.|.|.|.`.Y.l.-.} a a a p y u u u p p u y 2 2 u u u 2 2 2 u p p p u p p a a a a a a p a } -.l.H.).'.[.[.[.[.[.[.[.[.",
"[.{.}.|.|. X X X X|.}.~.F.b.3.<.<.<.,.,.,.,.,.,.,.,.,.,.,.,.,.,.,.,.,.,.,.3.3.3.3.3.3.3.3.3.3.<.,.<.3.b.D.E._.[.[.[.[.[.[.[.[.[.",
"[.}.|.|. X X X X X|.|.'.E.T.H.F.F.F.F.F.F.F.F.F.F.F.F.F.F.F.F.F.F.F.F.F.F.H.H.Y.Y.Y.Y.Y.Y.H.H.F.F.F.H.T.E.).`.[.[.[.[.[.[.[.[.[.",
"[.}.|.|. X X X X X X|.}.'._.).).).).).).).).).).).).).).).).).).).).).).).).)._.`.`.`.`._.).).).).).)._._.`.[.[.[.[.[.[.[.[.[.[.",
"[.{.}.|.|. X X X X|.|.}.{.[.[.[.[.[.[.[.[.[.[.[.[.[.[.[.[.[.[.[.[.[.[.[.[.[.[.[.[.[.[.[.[.[.[.[.[.[.[.[.[.[.[.[.[.[.[.[.[.[.[.[.",
"[.[.{.}.|.|.|.|.|.|.}.{.[.[.[.[.[.[.[.[.[.[.[.[.[.[.[.[.[.[.[.[.[.[.[.[.[.[.[.[.[.[.[.[.[.[.[.[.[.[.[.[.[.[.[.[.[.[.[.[.[.[.[.[.",
"[.[.[.{.}.|.|.|.|.}.{.[.[.[.[.[.[.[.[.[.[.[.[.[.[.[.[.[.[.[.[.[.[.[.[.[.[.[.[.[.[.[.[.[.[.[.[.[.[.[.[.[.[.[.[.[.[.[.[.[.[.[.[.[.",
"[.[.[.[.{.}.}.}.}.{.[.[.[.[.[.[.[.[.[.[.[.[.[.[.[.[.[.[.[.[.[.[.[.[.[.[.[.[.[.[.[.[.[.[.[.[.[.[.[.[.[.[.[.[.[.[.[.[.[.[.[.[.[.[.",
"[.[.[.[.[.[.[.[.[.[.[.[.[.[.[.[.[.[.[.[.[.[.[.[.[.[.[.[.[.[.[.[.[.[.[.[.[.[.[.[.[.[.[.[.[.[.[.[.[.[.[.[.[.[.[.[.[.[.[.[.[.[.[.[."
};
