/* XPM */
static char *Char_002_1_1725976133[] = {
/* columns rows colors chars-per-pixel */
"32 32 16 1 ",
"  c None",
". c black",
"X c #1D1D1D",
"o c #282828",
"O c gray20",
"+ c gray23",
"@ c #4C3325",
"# c #4C4C4C",
"$ c gray31",
"% c gray39",
"& c gray40",
"* c gray50",
"= c #E59A72",
"- c #B2B2B2",
"; c #FFBD99",
": c white",
/* pixels */
"                                ",
"                                ",
"                                ",
"                                ",
"                                ",
"                                ",
"                                ",
"           ##      ##           ",
"          O:# #### #:O          ",
"          O-:#::::#:-O          ",
"          O--:-::-:--O          ",
"          O*--------*O          ",
"           O*-*::*-*O           ",
"           O**;--;**O           ",
"           O*;.**.;*O           ",
"           O*=.;;.=*O           ",
"           ::*====*::           ",
"          :--%@@@@&--:          ",
"          :-&#O+++#&-:          ",
"          o$$###$$$$#o          ",
"          o%#o$O$$o#%o          ",
"           oo*-::-*oo           ",
"            o&&#O%%o            ",
"            X$#oX##X            ",
"             XX  XX             ",
"                                ",
"                                ",
"                                ",
"                                ",
"                                ",
"                                ",
"                                "
};
