/* XPM */
static const char *ZG9vcl8x[] = {
/* columns rows colors chars-per-pixel */
"64 64 174 2 ",
"   c #0D050D",
".  c #030A0E",
"X  c #0B0C0E",
"o  c #11050F",
"O  c #140C0C",
"+  c #1D0C0D",
"@  c #05130F",
"#  c #0A130E",
"$  c #14110E",
"%  c #1B110E",
"&  c #050D13",
"*  c #0B0D12",
"=  c #070F1A",
"-  c #0B0E1A",
";  c #140C12",
":  c #1B0D12",
">  c #041113",
",  c #0A1113",
"<  c #051019",
"1  c #0A131B",
"2  c #0D181E",
"3  c #141112",
"4  c #1B1112",
"5  c #1E1A14",
"6  c #11121C",
"7  c #1C1619",
"8  c #15191A",
"9  c #1B1B1B",
"0  c #230D0D",
"q  c #2C0B0E",
"w  c #340B0E",
"e  c #3C0B0C",
"r  c #25100E",
"t  c #2B100E",
"y  c #230D11",
"u  c #2B0C11",
"i  c #330C11",
"p  c #3B0E11",
"a  c #370F1C",
"s  c #241213",
"d  c #2B1212",
"f  c #221814",
"g  c #2A1817",
"h  c #271618",
"j  c #231D1D",
"k  c #2A1C1C",
"l  c #341214",
"z  c #3C1116",
"x  c #341219",
"c  c #3C131A",
"v  c #331D1D",
"b  c #3C1D1C",
"n  c #24211E",
"m  c #2F211F",
"M  c #36211F",
"N  c #38211F",
"B  c #251F21",
"V  c #2B1E20",
"C  c #3F1621",
"Z  c #252422",
"A  c #2B2423",
"S  c #262B25",
"D  c #2E2A25",
"F  c #2C2629",
"G  c #2D2B2A",
"H  c #342424",
"J  c #3C2424",
"K  c #322925",
"L  c #302B26",
"P  c #3D2A26",
"I  c #302628",
"U  c #36262A",
"Y  c #302A29",
"T  c #31292B",
"R  c #372A2B",
"E  c #342E2B",
"W  c #342A2D",
"Q  c #342B2E",
"!  c #382929",
"~  c #392A2A",
"^  c #3C2D2B",
"/  c #3A2B2C",
"(  c #382D2F",
")  c #2F3328",
"_  c #2D372A",
"`  c #2D382A",
"'  c #36322E",
"]  c #3A362B",
"[  c #3C312E",
"{  c #3E372E",
"}  c #3E3A2E",
"|  c #372E31",
" . c #3A2E30",
".. c #392F33",
"X. c #3C2E31",
"o. c #363332",
"O. c #3A3031",
"+. c #3A3132",
"@. c #3C3332",
"#. c #3B3134",
"$. c #3C3036",
"%. c #3D3236",
"&. c #3F3435",
"*. c #3B3934",
"=. c #3F3338",
"-. c #3D3639",
";. c #3D3A39",
":. c #4C070B",
">. c #430A0B",
",. c #4B090B",
"<. c #54060C",
"1. c #59040B",
"2. c #53080C",
"3. c #440F14",
"4. c #4B0F13",
"5. c #420F1F",
"6. c #540E12",
"7. c #5A0F14",
"8. c #431116",
"9. c #4D1117",
"0. c #43141B",
"q. c #4A151A",
"w. c #431A1E",
"e. c #4D1A1F",
"r. c #521215",
"t. c #52171F",
"y. c #521B1C",
"u. c #48231F",
"i. c #401621",
"p. c #431C21",
"a. c #4B1C21",
"s. c #521F24",
"d. c #442323",
"f. c #4C2324",
"g. c #422925",
"h. c #492827",
"j. c #422B2C",
"k. c #402E2E",
"l. c #4A2C29",
"z. c #532121",
"x. c #532729",
"c. c #53292B",
"v. c #40312E",
"b. c #44332E",
"n. c #49332D",
"m. c #412F30",
"M. c #423532",
"N. c #413335",
"B. c #433934",
"V. c #483D37",
"C. c #40333A",
"Z. c #41343A",
"A. c #453639",
"S. c #45363A",
"D. c #46373A",
"F. c #48353B",
"G. c #453B3A",
"H. c #493B3C",
"J. c #44433D",
"K. c #4B423D",
"L. c #595757",
"P. c #5C5C58",
"I. c #615559",
"U. c #656563",
"Y. c #6F6166",
"T. c #666864",
"R. c #706266",
"E. c #AEABAB",
"W. c #CECDCD",
"Q. c #D1CCCE",
"!. c #D4CED0",
"~. c #D0D0D0",
"^. c #F9F7F8",
"/. c #FCFBFC",
/* pixels */
"} } } ] L A A D F I I Q X.C.C.Z.A.A.A.&.G S S Z 9 8 8 6 *       . . . . ; : : f B A A F  .$.$.$.| Q Q Q Q Q Q T H H H H ) ` ` ` ",
"} } } ] L A A D I I I Q X.C.C.Z.A.A.A.&.G S S Z 9 8 8 6 ;       . . . . ; : : 7 B A A F  .$.$.$.| Q Q Q Q Q Q T H H H H ) ` ` ` ",
"} } } ] L A A D F F I Q $.C.C.Z.A.A.A.&.G S S Z 9 8 8 6 ;       . . . X ; : : 7 B Z A F  .$.$.#.| ( ( ( Q Q Q R H H H H ) _ ` ` ",
"{ { { ] D A A A A A A F  .=.=.$.N.N.N.O.D Z Z n 8 7 7 3 o o o   X . . X : : : 4 j j B A Q  . .( ( E E Q T T T I H v v H D ) ) ) ",
"v.v.[ ~ A j j j 7 7 7 j Q O.#. ./ ~ ~ H j 5 5 5 : O O O ; ; ; ; o X X O O + + + : 4 % 5 k k A A L T T G A A A A h s s g A D D D ",
"k.k.^ ~ A j j 9 3 3 3 7 T O.O.( U H H m f 5 % % O O O O ; ; ; ; O O O O O + + + O O O + h g k k D D D D A Z Z n s y y s V A A A ",
"k.k.k.~ A j j 9 3 3 3 7 T O.O.( H H H m f % % % O O O O ; ; ; ; O O O O O + + + O O O + h g g k D D D D A Z Z n s y y s V A A A ",
"m.m.m./ A B j j 7 7 7 9 T ( ( R H v v k f % % % O O O O ; ; ; : O O O O + + + + O O O + s g g k A L L D A A A n h s s h A H H H ",
"N.N.N.X.F A A Z Z Z Z Z H ~ ~ H g d d d r r r 0 O O O O : : : : : $ $ $ + 0 0 0 + + + 0 t d d g M H H H D D D A k k k V U ~ ~ ~ ",
"A.A.A.X.Q F F F F Z Z A H J J v d 0 0 0 0 r r 0 O O O O : 4 4 4 3 $ $ % 0 0 0 0 0 0 0 0 q q t d v M M H L D D D A V V A U / / / ",
"F.F.F.N.Q F F F A Z Z A H J J v d 0 0 0 0 r r 0 O O O + : 4 4 4 3 $ $ $ + 0 0 0 0 0 0 0 q q q d v M M H L D D D A V V A U / / / ",
"R.R.Y.I.-.G G G F F F I J J J v d q q q r r 0 0 + O O O : 4 3 3 $ $ $ $ + + + 0 0 0 0 0 q q q l b b b N L L L L D A A H /  . . .",
"!.!.Q.E.L.o.o.o.( ( ( ~ p.w.w.c l l l d d r r 0 % O O O * * * * # # # # O O O + r s s s d p p l z 8.8.b J ~ ~ ~ ( ( ' ' O.#.$.$.",
"/./.^.W.U.*.o.@.O.O.^ ^ p.0.0.0.z l l l d d t 0 4 3 3 3 * & & & # # # # O O O O 4 s s d l p p p 8.8.8.w.J P P ^ [ @.@.@.$.&.&.&.",
"/./.^.W.U.*.o.@.O.O.^ j.p.0.0.0.z l l l d d s s 4 3 3 3 , & & & # # # # X O O O 4 s s s l p p z 8.8.8.0.J P P ^ [ @.@.@.$.&.&.&.",
"~.~.W.E.P.*.o.@.O.^ k.j.p.q.q.0.l l l d s s s 4 3 , , , * & & & , , , , X X X O 4 4 4 s d i i l 8.8.8.0.d.g.g.P [ @.@.@.$.-.-.-.",
"T.T.U.P.J.*.@.@.j.j.j.h.a.e.e.0.d r r r : : : : X . . & , & > > , , , , & . . . * * ; : u u u i 3.8.8.q.d.d.h.g.[ @.@.@.&.-.-.-.",
";.;.*.*.*.*.*.{ j.g.g.h.a.t.t.0.d 0 0 + : : : ; . . . & > > > > 1 1 1 > & . . . * * * ; y u u u 3.4.4.q.a.d.d.g.[ @.@.@.-.;.;.;.",
"*.*.*.*.*.*.*.{ j.g.g.h.a.t.t.0.d r 0 + : : ; * . . . & & > > > 1 1 1 > & . . & * * * ; y u u u 3.3.4.q.a.f.f.g.[ @.@.@.;.;.;.;.",
"*.*.*.*.*.@.@.{ j.l.l.h.a.t.t.0.d % % % ; ; ; * , , , > & & & > 1 1 1 1 & & & & & * * * : y y u z 8.8.q.a.f.f.h.v.@.@.@.G.G.G.G.",
"G.G.G.B.@.{ { b.b.n.n.l.a.q.q.c 4 $ # # , , , , 1 1 1 1 & & & & - - - - - = = = & & & & * ; ; 4 l 0.0.0.f.x.x.l.n.@.*.M.A.H.H.H.",
"G.G.G.B.M.[ [ v.b.n.n.l.a.q.0.c 4 # # # , , , , 1 2 2 1 = & & = - - - - 1 1 1 < < > > > * * * 3 x c c w.x.c.c.x.n.M.M.M.A.H.H.H.",
"G.G.G.B.M.[ [ v.b.n.n.l.a.q.0.c 4 # # # , , , , 1 2 2 1 = & & = - - - - 1 1 1 < < > > > & * * 3 x c c w.f.c.c.c.n.M.M.M.A.H.H.H.",
"B.B.B.B.M.M.M.M.n.n.n.l.p.0.0.c 3 # # # , * * , 1 1 1 1 = = = = - - - - 1 1 1 1 < < < > , * , 3 d z z 0.f.c.c.c.n.M.M.M.A.H.H.H.",
"^ ^ ^ N.B.V.V.V.B.M.M.k.p.0.0.x 3 @ @ @ = = = = * * * * * * * * * * * = 1 6 6 1 1 < < > , > , , u u l c f.c.c.c.M.M.*.B.A.A.A.A.",
"~ ~ ~ ^ V.K.K.V.B.B.M.k.p.0.0.x 3 @ @ , * = = = * & & * * * * * * X X * 6 6 6 6 1 < < < > > > , y u u x f.c.c.c.M.*.*.B.A.F.A.A.",
"~ ~ ~ ^ G.K.K.V.B.B.M.k.p.0.0.x 3 , @ @ * = = = * & & * * * * X X X X * 6 6 6 6 1 < 1 < > > > , y u u x f.x.c.c.M.*.*.B.A.F.F.A.",
"/ / / ^ B.G.G.G.M.M.v.k.p.0.0.x 3 , , , * * * * * * * * * * * X X X X * 3 6 6 6 - - - = , , , , y u u l d.x.x.l.v.@.@.@.N.A.N.Z.",
"X.X.X. .O.' ' ' ' E E ~ i.0.0.x 3 , , * ; ; ; ; * * * * # # # # # # # # * ; ; ; * * * * , 1 1 6 y 0 q u w.f.f.h.[ ' ' ' O.O.O.O.",
"X.X.X. .E T T T T T T H i.0.5.a : * * * ; ; ; ; * * * * # # # # # # # # * * * ; ; ; ; * 1 1 1 3 + 0 0 u w.d.d.h.] ' ' ' o.| | | ",
"X.X.X. .E T T T T T T H C 0.5.a : * * * ; ; ; ; * * * * # # # # # # # # * * ; ; ; ; ; * 1 1 1 3 + 0 0 u w.d.d.h.] ' ' ' o.| | | ",
"X.X.X.( ( ' ' T T R R H C 0.5.a : * * ; : ; ; : ; ; * , # # # # # # # # ; ; ; ; ; ; ; ; 3 1 6 3 y 0 q i w.f.f.h.^ ' ' ' ' | | | ",
"/ / ( ( ( ( ( ~ ~ ~ ~ J c c c a s 3 3 : : : ; ; 3 3 3 3 3 3 3 3 $ $ $ 3 : : : ; ; ; ; ; 3 3 3 3 u u u l p.s.z.f.j.^ [ [ [ ' ' ' ",
"/ / / ( ^ ^ ^ ^ ^ P P J c c c x s 4 4 4 : : ; ; 3 3 3 3 4 : : : : : : : : : : : ; ; : : 3 $ $ 3 u u u l a.z.s.f.j.k.k.^ [ ' ' ' ",
"/ / / ( ^ ^ ^ ^ ^ P P J c c c x s 4 4 4 : ; ; ; 3 3 3 3 : : : : : : : : : : : : : : : : 3 $ $ 3 u u u l a.s.s.f.g.k.k.^ [ ' ' ' ",
"^ ( ( ( ^ ^ ^ ^ ^ P P J c c c x s 4 4 4 : : : : : 3 3 3 : : : : : : : : : : : : : : : : 3 $ $ 4 u u u l a.s.s.f.g.k.^ ^ [ ' ' ' ",
"X.X. . .[ [ [ ^ ^ ^ P J 0.0.c z d y y : : + + : + + : : + + + + : : : : y y : : : : : : : % % + u u u l a.s.s.f.j.^ ^ ^ [ ' ' ' ",
"X.X. . .[ [ [ ^ ^ j.^ d.0.0.0.z d y y : + + + + + + : : 0 0 0 0 : : y : y y y y y y y : : % % + u u i l a.s.s.f.j.^ ^ ^ [ ' ' ' ",
"X.X.X. .[ [ [ ^ ^ j.P J 0.0.0.z d y y y + + + + + : : : 0 0 0 0 : : : : y y y y y y y : : % % + u u i l a.s.z.f.j.^ ^ ^ [ ' ' ' ",
"X.X.X.O.O.[ [ ^ ^ j.^ d.0.0.0.z u u u y y + + + y y y y 0 0 0 0 0 y y y y y y y y y y y : + + 0 u i i z a.s.z.f.j.^ ^ ^ [ ' ' ' ",
"O.O.O.O.O.O.O.[ j.g.g.d.0.8.8.z d u u u u u u u u u u u q q q q u u u u u u u u u u u u y y y u i p i z a.s.s.f.j.^ ^ [ ( ( ( ( ",
"O.O.O.O.O.O.O.[ j.g.g.d.0.8.8.8.i u u u u u u u u u u u q q q q u u u u u u u u u u u u u u u u i p p z q.s.s.f.j.^ ^ ^ ( ( ( ( ",
"O.O.O.O.O.O.@.[ j.g.g.d.0.8.8.8.i u u u u u u u u u u u q q q q u u u u u u u u u u u u u y u u i p p z q.s.s.f.j.^ ^ ^ ( ' ( ( ",
"O.O.O.O.O.O.O.[ j.g.g.d.0.8.8.8.i u u u u u u u u u u u q q q q u u u u u u u u u u u u u u u u p p p z q.s.s.f.j.^ ^ ^ [ [ ( ( ",
"O.O.O.O.[ O.O.[ j.g.g.d.0.9.9.8.p i u i i w w i u i i i w w w w w w w w i u u u u u i u q q q q e e p 3.e.s.s.f.j.^ ^ ^ ( ( ( ( ",
"O.O.O.O.O.O.O.[ ^ g.g.d.q.9.9.8.p i i i w w w w i i i i w w w w w w w w i i i i w w w w q q q w e e e 3.e.s.s.f.j.^ ^ ^ ^ ^ ^ ^ ",
"X.X.O.O.O.O.O.[ ^ g.g.d.q.9.9.8.p i i i w w w w i i i i w w w w w w w w w i i i w w w w q q q w e e e 3.e.s.s.f.j.^ ^ ^ ^ ^ ^ ^ ",
"X.X.X.X.O.O.O.[ P g.g.d.q.9.9.8.p i i w w w w w i i i i w e e w w w w w w w w w w w w w w w w w e e e 3.e.s.s.f.j.^ ^ ^ ^ ^ ^ ^ ",
"X.X.X.X.[ [ [ ^ g.g.g.d.q.9.9.8.p w w w e e e e w w w w w w w w w w w w w w w w w w w w w w w w e >.>.3.e.s.s.f.g.j.j.j.k.k.^ ^ ",
"X.X.X.X.[ [ [ ^ g.g.g.d.q.9.9.4.p w w w e e e e w w w w w w w w w w w w w w w w w w w w w w w w >.>.>.3.e.s.s.f.g.j.j.j.k.k.k.k.",
"X.X.X.X.[ [ [ ^ g.g.g.d.q.9.9.4.p w w w e e e e e w w w w w w w w w w w w w w w w w w w w w w w >.>.>.3.e.s.s.f.g.j.^ ^ k.k.k.k.",
"X.X.X.X.[ [ [ ^ g.g.g.d.q.9.9.4.p w w w e e e e e w w w w w w w e e e e w w w w e e e e e w w e >.,.,.4.y.s.s.f.j.^ ^ ^ k.k.k.k.",
"X.X.X.X.X.[ [ ^ g.g.g.d.q.r.r.4.>.e e e e e e e e e e e e e e e e e e e w w w e e e e e e e e >.>.,.,.4.y.s.z.f.g.^ ^ ^ j.j.m.m.",
"X.X.X.X.X.[ [ ^ g.g.g.d.q.r.r.4.>.e e e >.>.>.e e e e e e e e e e e e e e e e e e >.>.>.>.>.>.>.,.,.,.4.y.z.z.f.j.^ ^ ^ j.j.m.m.",
"X.X.X.X.X.[ [ ^ g.g.g.d.q.r.r.4.>.e e e >.>.>.>.e e e e e e e e e e e e e e e e e >.>.>.>.>.>.>.,.,.,.4.y.z.z.f.g.^ ^ j.j.j.m.m.",
"X.X.X.X.O.[ [ ^ g.g.g.d.9.r.r.4.>.>.>.>.>.>.>.>.>.>.>.>.>.>.>.>.>.>.>.>.>.>.>.>.>.>.>.>.>.>.>.>.,.,.:.4.y.z.z.f.g.^ ^ ^ j.j.m.m.",
"X.X.X.X.[ [ [ ^ g.g.g.u.r.r.6.6.,.,.>.,.:.:.:.,.,.>.>.>.>.>.>.>.,.,.,.,.>.>.>.>.,.,.:.,.,.,.,.,.:.:.:.6.y.z.z.f.g.~ ~ ^ k.j.j.j.",
"X.X.X.X.[ [ [ [ g.g.g.u.r.6.6.6.,.,.,.,.:.:.:.:.,.,.,.,.,.,.,.,.:.:.:.,.,.>.>.,.:.:.:.:.,.,.,.:.:.2.2.6.y.z.z.f.g.~ ~ ^ ^ j.j.j.",
"X.X.X.X.[ [ [ [ g.g.g.u.r.6.6.6.,.,.,.,.:.:.:.:.,.,.,.,.,.,.,.,.:.:.:.:.,.>.>.,.:.:.:.:.,.,.,.:.:.2.2.6.y.z.z.f.g.] ~ ^ ^ j.j.j.",
"X.X.X.X.[ [ [ [ g.g.g.u.r.7.7.6.,.,.,.,.:.:.:.:.:.:.:.:.:.:.:.:.:.2.2.:.,.,.,.,.:.:.:.:.:.:.:.:.2.2.2.6.y.z.z.f.P ] ] ~ ^ j.j.j.",
"X.X. . .[ [ [ [ g.g.g.u.r.7.7.6.2.,.,.,.2.<.<.<.<.2.2.<.2.2.2.2.<.<.<.<.2.2.:.2.2.2.2.2.2.2.2.2.2.2.2.6.y.z.z.f.P ] ] ~ ^ k.k.k.",
" . . . .[ [ [ [ g.g.g.u.r.7.7.7.2.,.,.2.<.<.1.1.<.<.<.<.<.<.<.<.1.1.1.<.2.2.2.2.<.<.<.<.2.2.2.2.<.2.<.6.y.z.z.f.P ^ ~ ~ ^ k.k.k.",
" . . . .[ [ [ [ g.g.g.u.r.7.7.6.2.,.,.2.<.1.1.<.<.<.<.<.<.<.<.<.1.1.1.<.<.2.2.2.<.<.<.<.2.2.2.2.2.2.2.6.y.z.z.f.P ^ ~ ~ ^ k.k.k.",
" . . . .[ [ [ [ g.g.g.u.r.7.7.6.2.,.,.2.<.1.<.<.<.<.<.<.<.<.<.<.1.1.1.<.<.2.2.2.<.<.<.<.2.2.2.2.2.2.2.6.y.z.z.f.P ^ ~ ~ ^ k.k.k."
};
