/* XPM */
static char *_87a21ecb2c54029951576d4d7df94e4CMuVSgsb6yPFHan7[] = {
/* columns rows colors chars-per-pixel */
"64 64 164 2 ",
"   c #1C1E2F",
".  c #161634",
"X  c #1B1D30",
"o  c #19193A",
"O  c #1F2037",
"+  c #262A33",
"@  c #282B35",
"#  c #22243C",
"$  c #393E3A",
"%  c #3E443C",
"&  c #41473D",
"*  c #43493E",
"=  c #1E1E44",
"-  c #201F48",
";  c #242540",
":  c #212149",
">  c #26284A",
",  c #282A4C",
"<  c #363B41",
"1  c #34374A",
"2  c #36394C",
"3  c #383B4C",
"4  c #252653",
"5  c #2B2C56",
"6  c #29275B",
"7  c #2B2A5C",
"8  c #2F3256",
"9  c #313355",
"0  c #33355A",
"q  c #2D2B61",
"w  c #302D63",
"e  c #343265",
"r  c #393766",
"t  c #34336C",
"y  c #39346E",
"u  c #3C396F",
"i  c #373775",
"p  c #3B3772",
"a  c #393876",
"s  c #3C3A7A",
"d  c #413D74",
"f  c #423D7D",
"g  c #3D4243",
"h  c #3B4155",
"j  c #3D405F",
"k  c #3E4160",
"l  c #3F4069",
"z  c #474E43",
"x  c #484F42",
"c  c #414648",
"v  c #484D4D",
"b  c #404457",
"n  c #434A55",
"m  c #454C5A",
"M  c #484D5A",
"N  c #4C515C",
"B  c #59624E",
"V  c #5E684B",
"C  c #54605B",
"Z  c #5E665F",
"A  c #5D6A5D",
"S  c #666F4E",
"D  c #69714F",
"F  c #616D5F",
"G  c #677151",
"H  c #6C7651",
"J  c #6E7852",
"K  c #6E775C",
"L  c #6D7E5F",
"P  c #747C54",
"I  c #424562",
"U  c #474A65",
"Y  c #4A4F66",
"T  c #41426A",
"R  c #545D62",
"E  c #515569",
"W  c #474277",
"Q  c #494577",
"!  c #4B4A71",
"~  c #47417A",
"^  c #4B447B",
"/  c #514D7C",
"(  c #5C6363",
")  c #656F61",
"_  c #677062",
"`  c #6B7763",
"'  c #6F7963",
"]  c #737D66",
"[  c #798559",
"{  c #7E8B5A",
"}  c #6E8060",
"|  c #788565",
" . c #7C8D64",
".. c #7F8B68",
"X. c #7B9162",
"o. c #818D5B",
"O. c #869767",
"+. c #869D64",
"@. c #889D65",
"#. c #8D9C6B",
"$. c #909F62",
"%. c #8EA766",
"&. c #8FA866",
"*. c #8EA169",
"=. c #94A264",
"-. c #90A966",
";. c #9AA966",
":. c #96A56D",
">. c #9DAE6B",
",. c #96B167",
"<. c #97B268",
"1. c #9BB669",
"2. c #9EBB69",
"3. c #A2AE69",
"4. c #A3B26A",
"5. c #A2BE6A",
"6. c #ABBC6E",
"7. c #A6B771",
"8. c #AABB71",
"9. c #B0BF70",
"0. c #A6C16C",
"q. c #A9C36D",
"w. c #AFC372",
"e. c #B4C573",
"r. c #B6CA73",
"t. c #BACD75",
"y. c #BED177",
"u. c #C1CF77",
"i. c #C0D177",
"p. c #C2D479",
"a. c #C8D579",
"s. c #CCDA7C",
"d. c #D0DD7E",
"f. c #443F80",
"g. c #464282",
"h. c #4B4585",
"j. c #4F4880",
"k. c #4E4789",
"l. c #4F488A",
"z. c #524B84",
"x. c #534B8C",
"c. c #584E8E",
"v. c #585087",
"b. c #5B518B",
"n. c #574E90",
"m. c #584F91",
"M. c #5A5190",
"N. c #5C5291",
"B. c #5E5491",
"V. c #615694",
"C. c #625794",
"Z. c #625893",
"A. c #655A94",
"S. c #685C97",
"D. c #645999",
"F. c #675B98",
"G. c #6A5E99",
"H. c #6A5E9A",
"J. c #6D619D",
"K. c #6E61A1",
"L. c #7264A2",
"P. c #7567A5",
"I. c #7769A8",
"U. c #786AA9",
/* pixels */
"y.y.y.y.y.y.y.y.y.y.y.y.y.y.y.y.y.y.y.y.y.y.y.y.y.y.y.y.y.y.y.y.y.y.y.y.y.y.y.y.y.y.y.y.y.y.y.y.y.y.y.y.y.y.y.y.y.y.y.y.y.y.y.y.",
"y.y.y.y.y.y.y.y.y.y.y.y.y.y.y.y.y.y.y.y.y.y.y.y.y.y.y.y.y.y.y.y.y.y.y.y.y.y.y.y.y.y.y.y.y.y.y.y.y.y.y.y.y.y.y.y.y.y.y.y.y.y.y.y.",
"y.y.y.y.y.y.y.y.y.y.y.y.y.y.y.y.y.y.y.y.y.y.y.y.y.y.y.y.y.y.y.y.y.y.y.y.y.y.y.y.y.y.y.y.y.y.y.y.y.y.y.y.y.y.y.y.y.y.y.y.y.y.y.y.",
"y.y.y.y.y.y.y.y.y.y.y.y.y.y.y.y.y.y.y.y.y.y.y.y.y.y.y.y.y.y.y.y.y.y.y.y.y.y.y.y.y.y.y.y.t.r.r.r.r.r.r.r.r.t.y.y.y.y.y.y.y.y.y.y.",
"y.y.y.y.y.y.y.y.y.y.y.y.y.y.y.y.y.y.y.y.y.y.y.y.y.y.y.y.y.y.y.y.y.y.y.y.y.y.y.y.y.y.y.t.w.q.q.q.q.q.q.q.q.w.t.y.y.y.y.y.y.y.y.y.",
"y.y.y.y.y.y.t.r.r.r.r.r.r.t.y.y.y.y.y.y.y.y.y.y.y.y.y.y.y.y.y.y.y.y.y.y.y.y.y.t.t.r.r.r.0.5.5.5.5.5.5.5.5.0.r.t.y.y.y.y.y.y.y.y.",
"y.y.y.y.y.t.w.q.q.q.q.0.5.5.w.w.w.w.w.w.w.w.w.w.w.w.w.w.w.w.w.w.w.w.w.w.w.w.w.8.5.1.1.1.<.,.,.,.,.,.<.1.1.5.0.w.t.y.y.y.y.y.y.y.",
"y.y.y.y.t.r.0.5.5.5.2.<.%.@.O.O.O.O.#.#.#.#.#.#.#.#.#.#.#.#.#.#.#.#.#.#.#.#.O.O.X.X.X.X.X.X.X.X.X.X.X.+.%.<.2.q.r.y.y.y.y.y.y.y.",
"y.y.y.t.w.0.0.5.5.5.2.&.X.' F A A ) ) _ _ _ _ _ _ _ _ _ _ _ _ _ _ _ _ _ _ ) F A A A A A A A A A A A A L X.&.2.q.r.y.y.y.y.y.y.y.",
"y.y.y.r.q.5.5.5.5.5.1.@.L C n h h h h h h b b b b b b b b b b b b b b b b h h h 3 3 3 3 h h h h h h n C } @.1.q.r.y.y.y.y.y.y.y.",
"y.y.y.r.q.5.5.2.1.1.-. .F M 0 5 5 5 5 5 5 5 5 5 5 5 5 5 5 5 5 5 5 5 5 5 5 5 5 5 5 5 5 5 5 5 5 5 5 5 8 m A  .-.5.e.t.y.y.y.y.y.y.",
"y.y.y.r.q.5.2.<.%.+. .` ( U r e t r r r e e e e e e e e e e e e w q q q q q q q q q q q q q q q q q e I R `  .*.4.e.t.y.y.y.y.y.",
"y.y.y.r.q.5.2.&.X.L A R E ! Q ^ ^ j.z.j.^ ^ ^ ~ ~ ~ ~ ~ ~ ~ W d d p y y y y y y p p p p y y y y y y u T Y R _ | :.7.t.y.y.y.y.y.",
"y.y.y.r.q.5.1.@.L C m I ! / v.b.Z.F.G.F.Z.b.v.v.v.v.v.v.v.v.v.z.j.g.f f f f f f f f f f f f f f f f f d l k M ( ..>.r.y.y.y.y.y.",
"y.y.y.r.5.1.-. .A m 0 r W v.A.J.L.P.I.P.L.G.S.A.A.A.A.A.A.A.Z.B.c.x.h.h.h.h.h.h.h.h.h.h.h.h.h.h.h.h.g.f y e 0 N ` #.7.e.r.t.y.y.",
"y.y.t.w.>.@. .` R I r p j.B.J.L.P.I.I.P.L.J.G.S.A.A.V.V.V.V.V.N.c.x.k.k.k.k.k.k.k.k.k.k.k.k.k.k.k.k.h.f p e e I ( ] O.:.7.e.t.y.",
"y.y.t.7.#.| A R Y T p ~ x.F.L.P.P.P.L.L.J.J.G.A.V.B.M.M.M.M.b.x.x.x.k.k.k.k.k.k.k.k.k.k.k.k.k.k.k.k.h.g.f p u T Y R _ ..:.7.t.y.",
"y.y.r.>...Z m k T d ~ x.B.K.I.U.P.L.J.J.G.G.G.A.B.c.x.x.x.x.x.x.x.k.k.k.k.k.k.k.k.k.k.k.k.k.k.k.k.k.k.h.g.~ f d l j m Z ..>.r.y.",
"y.y.e.:.] N 9 q y f h.n.F.L.U.U.L.J.G.G.G.G.A.V.M.x.x.k.k.k.k.k.k.k.k.k.k.k.k.k.k.k.k.k.k.k.k.k.k.k.k.k.h.h.g.f y 7 8 M ' :.e.y.",
"y.y.e.:.' M 5 7 y f h.m.F.K.P.P.L.J.G.S.A.A.V.N.c.x.k.k.k.k.k.k.k.k.k.k.k.k.k.k.k.k.k.k.k.k.k.k.k.k.k.k.k.k.h.f y 7 5 n ` :.e.y.",
"y.y.e.:.' M 5 7 y f h.x.V.G.L.L.J.J.G.A.V.B.M.x.x.x.k.k.k.k.k.k.k.k.k.k.k.k.k.k.k.k.k.k.k.k.k.k.k.k.k.k.k.k.h.f y 7 5 n ` :.e.y.",
"y.y.e.:.' M 5 7 y f h.x.B.F.J.J.G.G.G.A.B.c.x.x.x.k.k.k.k.k.k.k.k.k.k.k.k.k.k.k.k.k.k.k.k.k.k.k.k.k.k.k.k.k.h.f y 7 5 m ` :.e.y.",
"y.y.e.:.' M 5 7 y f h.x.N.Z.G.G.G.G.A.V.M.x.x.k.k.k.k.k.h.h.h.h.h.h.h.h.h.k.k.k.k.k.k.k.k.k.k.k.k.k.k.k.k.k.h.f y 7 5 M ' :.e.y.",
"y.y.e.:.' M 5 7 y f h.x.N.Z.S.S.A.A.V.N.c.x.k.k.k.k.k.h.h.h.g.g.g.g.g.h.h.h.k.k.k.k.k.k.k.k.k.k.k.k.k.k.k.k.h.f y 7 5 M ' :.e.y.",
"y.y.e.:.' M 5 7 y f h.x.N.Z.S.A.V.B.M.x.x.x.k.k.k.k.k.h.g.f.f f f f f f.g.h.k.k.k.k.k.k.k.k.k.k.k.k.k.k.k.k.h.f y 7 5 M ' :.e.y.",
"y.y.e.:.' M 5 7 y f h.x.N.Z.S.A.B.c.x.x.x.k.k.k.k.k.k.h.g.s s s s s s s g.h.k.k.k.k.k.k.k.k.k.k.k.k.k.k.k.k.h.f y 7 5 M ' :.e.y.",
"y.y.e.:.' M 5 7 y f h.x.N.Z.S.Z.N.x.x.k.k.k.k.k.k.k.h.g.f s a i i i a s f g.h.k.k.k.k.k.k.k.k.k.k.k.k.k.k.k.h.f y 7 5 M ' :.e.y.",
"y.y.e.:.' M 5 7 y f h.x.N.Z.S.Z.N.x.x.k.k.k.k.k.k.k.h.g.f s a i i i a s f g.h.k.k.k.k.k.k.k.k.k.k.k.k.k.k.k.h.f y 7 5 M ' :.e.y.",
"y.y.e.:.' M 5 q y f h.x.N.Z.S.Z.N.x.x.k.k.k.k.k.k.k.h.g.f s a i i i a s f g.h.k.k.k.k.k.k.k.k.k.k.k.k.k.k.k.h.f y 7 5 M ' :.e.y.",
"y.y.e.:.' M 5 7 y f h.x.N.Z.S.Z.N.x.x.k.k.k.k.k.k.k.h.g.f s a i i i a s f g.h.k.k.k.k.k.k.k.k.k.k.k.k.k.k.k.h.f y 7 5 M ' :.e.y.",
"y.y.e.:.' M 5 7 y f h.x.M.V.A.V.M.x.l.k.k.k.k.k.k.k.h.h.f.s s a a a s s f h.h.k.k.k.k.k.k.k.k.k.k.k.k.k.k.k.h.f y 7 5 M ' :.e.y.",
"y.y.e.:.' M 5 7 y f h.x.c.N.B.N.c.x.k.k.k.k.k.k.k.k.k.h.g.f s s s s s f g.h.k.k.k.k.k.k.k.k.k.k.k.k.k.k.k.k.h.f y 7 5 M ' :.e.y.",
"y.y.e.:.' M 5 7 y f h.x.x.x.b.x.x.x.k.k.k.k.k.k.k.k.k.h.h.g.f.f f f f.g.h.h.k.k.k.k.k.k.k.k.k.k.k.k.k.k.k.k.h.f y 7 5 M ' :.e.y.",
"y.y.e.:.' M 5 7 y f h.k.x.x.x.x.x.k.k.k.k.k.k.k.k.k.k.k.h.h.h.h.h.h.h.h.h.k.k.k.k.k.k.k.k.k.k.k.k.k.k.k.k.k.h.f y 7 5 M ' :.e.y.",
"y.y.e.:.' M 5 7 y f h.k.k.k.k.k.k.k.k.k.k.k.k.k.k.k.k.k.k.k.k.k.k.k.k.k.k.k.k.k.k.k.k.k.k.k.k.k.k.k.k.k.k.k.h.f y 7 5 M ' :.e.y.",
"y.y.e.:.' M 5 7 y f h.k.k.k.k.k.k.k.k.k.k.k.k.k.k.k.k.k.k.k.k.k.k.k.k.k.k.k.k.k.k.k.k.k.k.k.k.k.k.k.k.k.k.k.h.f y 7 5 M ' :.e.y.",
"y.y.e.:.' M 5 7 y f h.k.k.k.k.k.k.k.k.k.k.k.k.k.k.k.k.k.k.k.k.k.k.k.k.k.k.k.k.k.k.k.k.k.k.k.k.k.k.k.k.k.k.k.h.f y 7 5 M ' :.e.y.",
"y.y.e.:.' M 5 7 y f h.k.k.k.k.k.k.k.k.k.k.k.k.k.k.k.k.k.k.k.k.k.k.k.k.k.k.k.k.k.k.k.k.k.k.k.k.k.k.k.k.k.k.k.h.f y 7 5 M ' :.e.y.",
"y.y.e.:.' M 5 6 e d g.h.h.k.k.k.k.k.k.k.k.k.k.k.k.k.k.k.k.k.k.k.k.k.k.k.k.k.k.k.k.k.k.k.k.k.k.k.k.k.k.k.h.h.g.d e 6 5 M ' :.e.y.",
"y.y.e.:.K n , 4 w p f h.h.h.k.k.k.k.k.k.k.k.k.k.k.k.k.k.k.k.k.k.k.k.k.k.k.k.k.k.k.k.k.k.k.k.k.k.k.k.k.h.h.h.f p w 4 > n K :.e.y.",
"y.y.e.=.K c ; - 5 y s f.g.h.k.k.k.k.k.k.k.k.k.k.k.k.k.k.k.k.k.k.k.k.k.k.k.k.k.k.k.k.k.k.k.k.k.k.k.k.k.h.g.f.s y 5 - # c H =.e.y.",
"y.y.e.=.H g O o 4 e a s g.h.k.k.k.k.k.k.k.k.k.k.k.k.k.k.k.k.k.k.k.k.k.k.k.k.k.k.k.k.k.k.k.k.k.k.k.k.k.h.g.s a e 4 o O % G =.e.y.",
"y.y.e.=.G % X o : q i s f g.h.h.h.h.h.h.h.h.h.h.h.h.h.h.h.h.h.h.h.h.h.h.h.h.h.h.h.h.h.h.h.h.h.h.h.h.h.g.f s i q : o X $ S =.e.y.",
"y.y.e.=.D $   o : q i s s f g.g.g.g.g.g.g.g.g.g.g.g.g.g.g.g.g.g.g.g.g.g.g.g.g.g.g.g.g.g.g.g.g.g.g.g.g.f s s i q : o   $ S =.e.y.",
"y.y.e.=.S $   o : q i a s s f f f f f f f f f f f f f f f f f f f f f f f f f f f f f f f f f f f f f s s a i q : o X $ S =.e.y.",
"y.y.e.$.S $   o : q t i a s s s s s s s s s s s s s s s s s s s s s s s s s s s s s s s s s s s s s s s a i t q : o X $ S =.e.y.",
"y.y.e.=.H * @ # , 7 e t i i i i i i i i i i i i i i i i i i i i i i i i i i i i i i i i i i i i i i i i i t e 7 , # @ * H =.e.y.",
"y.y.r.>.{ V z g 2 9 5 q e t i i i i i i i i i i i i i i i i i i i i i i i i i i i i i i i i i i i i i t e q 5 9 3 g x V { >.r.y.",
"y.y.t.6.=.o.J B v 1 > 4 7 e i i i i i i i i i i i i i i i i i i i i i i i i i i i i i i i i i i i i i e 7 4 > 1 v B J o.=.6.t.y.",
"y.y.t.e.6.4.=.[ B < # = 4 q i i i i i i i i i i i i i i i i i i i i i i i i i i i i i i i i i i i i i q 4 = # < B [ =.4.6.e.t.y.",
"y.y.y.t.t.t.6.$.H * @ # , 7 e t t t t t t t t t t t t t t t t t t t t t t t t t t t t t t t t t t t e 7 , # @ * H $.6.t.t.t.y.y.",
"y.y.y.y.y.y.r.>.{ V z g 2 9 5 7 7 7 7 7 7 7 7 7 7 7 7 7 7 7 7 7 7 7 7 7 7 7 7 7 7 7 7 7 7 7 7 7 7 7 5 9 2 g z V { >.r.y.y.y.y.y.",
"y.y.y.y.y.y.t.6.=.o.J B v 1 > : : : : : : : : : : : : : : : : : : : : : : : : : : : : : : : : : : : > 1 v B J o.=.6.t.y.y.y.y.y.",
"y.y.y.y.p.p.i.t.9.4.=.[ B < O . . . . . . . . . . . . . . . . . . . . . . . . . . . . . . . . . . . O < B [ =.4.6.e.t.y.y.y.y.y.",
"y.y.y.p.s.s.s.s.a.p.e.$.H * +                                                                       + * H $.6.t.t.t.y.y.y.y.y.y.",
"y.y.p.a.s.d.d.d.d.s.t.3.{ V x & & * * * * * * * * & & % % % % % % % % & & * * * * * * * * * * & & % x V { >.r.y.y.y.y.y.y.y.y.y.",
"y.p.s.s.s.d.d.d.d.s.a.e.=.o.P H J J J J J J J J J J H H H H H H H H H H J P P P P P P P P P P J H H P o.=.6.t.y.y.y.y.y.y.y.y.y.",
"y.p.s.d.d.d.d.d.d.d.s.u.8.4.;.;.;.;.;.;.;.;.;.;.;.;.;.;.;.;.;.;.;.;.;.;.;.;.3.4.4.4.4.4.4.3.;.;.;.;.;.4.6.e.t.y.y.y.y.y.y.y.y.y.",
"y.p.s.d.d.d.d.d.d.d.d.s.t.t.r.r.r.r.r.r.r.r.r.r.r.r.r.r.r.r.r.r.r.r.r.r.r.r.t.t.t.t.t.t.t.t.r.r.r.r.r.t.t.t.y.y.y.y.y.y.y.y.y.y.",
"y.p.s.s.s.d.d.d.d.s.s.s.p.y.y.y.y.y.y.y.y.y.y.y.y.y.y.y.y.y.y.y.y.y.y.y.y.y.y.y.y.y.y.y.y.y.y.y.y.y.y.y.y.y.y.y.y.y.y.y.y.y.y.y.",
"y.y.p.a.s.d.d.d.d.s.a.p.y.y.y.y.y.y.y.y.y.y.y.y.y.y.y.y.y.y.y.y.y.y.y.y.y.y.y.y.y.y.y.y.y.y.y.y.y.y.y.y.y.y.y.y.y.y.y.y.y.y.y.y.",
"y.y.y.p.s.s.s.s.s.s.p.y.y.y.y.y.y.y.y.y.y.y.y.y.y.y.y.y.y.y.y.y.y.y.y.y.y.y.y.y.y.y.y.y.y.y.y.y.y.y.y.y.y.y.y.y.y.y.y.y.y.y.y.y.",
"y.y.y.y.p.p.p.p.p.p.y.y.y.y.y.y.y.y.y.y.y.y.y.y.y.y.y.y.y.y.y.y.y.y.y.y.y.y.y.y.y.y.y.y.y.y.y.y.y.y.y.y.y.y.y.y.y.y.y.y.y.y.y.y.",
"y.y.y.y.y.y.y.y.y.y.y.y.y.y.y.y.y.y.y.y.y.y.y.y.y.y.y.y.y.y.y.y.y.y.y.y.y.y.y.y.y.y.y.y.y.y.y.y.y.y.y.y.y.y.y.y.y.y.y.y.y.y.y.y."
};
