/* XPM */
static const char *Zmxvb3JfMQ__[] = {
/* columns rows colors chars-per-pixel */
"64 64 226 2 ",
"   c #1F1A0F",
".  c #1D1D13",
"X  c #1E1D1D",
"o  c #261D09",
"O  c #231C0D",
"+  c #371B0D",
"@  c #241714",
"#  c #241C15",
"$  c #291C14",
"%  c #24161C",
"&  c #2D161A",
"*  c #241C1B",
"=  c #2B1A1A",
"-  c #321C14",
";  c #36181D",
":  c #331E1C",
">  c #1E2214",
",  c #232104",
"<  c #21210E",
"1  c #32260D",
"2  c #232115",
"3  c #2B2115",
"4  c #23211B",
"5  c #2D241C",
"6  c #352217",
"7  c #34221B",
"8  c #39221C",
"9  c #1F1E22",
"0  c #241522",
"q  c #231C23",
"w  c #2A1B22",
"e  c #291B2A",
"r  c #331D22",
"t  c #3C1B23",
"y  c #242122",
"u  c #332223",
"i  c #362229",
"p  c #492C1E",
"a  c #4D321D",
"s  c #4E3A1C",
"d  c #51381E",
"f  c #5C3A1F",
"g  c #68291D",
"h  c #65351E",
"j  c #4D2926",
"k  c #542E24",
"l  c #592B22",
"z  c #552E2B",
"x  c #5C2E2B",
"c  c #4D3B25",
"v  c #493628",
"b  c #4C3B2C",
"n  c #523323",
"m  c #5D3524",
"M  c #523A24",
"N  c #553329",
"B  c #5B322A",
"V  c #542D32",
"C  c #582B34",
"Z  c #583732",
"A  c #6A2C24",
"S  c #782C2B",
"D  c #633325",
"F  c #6E3122",
"G  c #673927",
"H  c #64352C",
"J  c #6A332C",
"K  c #65392C",
"L  c #723525",
"P  c #7D3C24",
"I  c #763F2D",
"U  c #7C3F2B",
"Y  c #6B2D33",
"T  c #682D36",
"R  c #742D33",
"E  c #643433",
"W  c #6C3434",
"Q  c #683932",
"!  c #633339",
"~  c #713335",
"^  c #773E37",
"/  c #7C3D34",
"(  c #6F432B",
")  c #734425",
"_  c #784025",
"`  c #75432D",
"'  c #79422D",
"]  c #6E4730",
"[  c #754232",
"{  c #7C4134",
"}  c #7B4D38",
"|  c #573E45",
" . c #4E4D49",
".. c #574A48",
"X. c #515449",
"o. c #6B5150",
"O. c #853B2C",
"+. c #833C33",
"@. c #833B38",
"#. c #87492C",
"$. c #9B582E",
"%. c #884735",
"&. c #8D5234",
"*. c #995934",
"=. c #A25E2C",
"-. c #A35D35",
";. c #A85E35",
":. c #A25E3B",
">. c #AA5D3C",
",. c #BA5E3E",
"<. c #9E642C",
"1. c #89683E",
"2. c #9E6234",
"3. c #9E613B",
"4. c #9D6D3F",
"5. c #AC672E",
"6. c #B7662E",
"7. c #B36D2E",
"8. c #AF702D",
"9. c #B1702B",
"0. c #A46234",
"q. c #AB6435",
"w. c #AE6C33",
"e. c #A3623A",
"r. c #AB613A",
"t. c #AE6D3C",
"y. c #B46634",
"u. c #BA6635",
"i. c #B36C35",
"p. c #BA6B35",
"a. c #B5663B",
"s. c #BA653D",
"d. c #B46C3B",
"f. c #BA6B3C",
"g. c #AE7033",
"h. c #AD713D",
"j. c #B47135",
"k. c #BA7336",
"l. c #B3713B",
"z. c #BC733C",
"x. c #B87A39",
"c. c #BE793C",
"v. c #C1673A",
"b. c #C3733C",
"n. c #C17B3D",
"m. c #9F5E41",
"M. c #A45C41",
"N. c #8E6942",
"B. c #9C7C4C",
"V. c #997C52",
"C. c #A66446",
"Z. c #AC6D43",
"A. c #B56542",
"S. c #BC6642",
"D. c #B46C42",
"F. c #BA6B42",
"G. c #B46B4B",
"H. c #B96948",
"J. c #AB7041",
"K. c #A37C45",
"L. c #AD7D4C",
"P. c #B47243",
"I. c #BD7542",
"U. c #B27D45",
"Y. c #BC7A44",
"T. c #B7794A",
"R. c #B26F54",
"E. c #C16C44",
"W. c #C26E49",
"Q. c #C27344",
"!. c #C27944",
"~. c #CA7846",
"^. c #C37749",
"/. c #AA8139",
"(. c #9C814F",
"). c #A68447",
"_. c #AB8545",
"`. c #AD824B",
"'. c #B18245",
"]. c #B5844B",
"[. c #B58451",
"{. c #B18D54",
"}. c #B89B61",
"|. c #C78848",
" X c #CC8B4D",
".X c #D28D4B",
"XX c #D8894D",
"oX c #CD934E",
"OX c #CC9949",
"+X c #D5974A",
"@X c #D3924D",
"#X c #CD8852",
"$X c #D28E56",
"%X c #D98C51",
"&X c #D58E5A",
"*X c #CD9453",
"=X c #C49857",
"-X c #CC9B55",
";X c #D39353",
":X c #D99551",
">X c #D59D55",
",X c #DC9C54",
"<X c #D8965D",
"1X c #D59C5A",
"2X c #DA9C5B",
"3X c #E29452",
"4X c #E19E51",
"5X c #D4A048",
"6X c #D4A34B",
"7X c #CAA256",
"8X c #CDA25C",
"9X c #D4A254",
"0X c #DBA355",
"qX c #D3A159",
"wX c #DAA15C",
"eX c #C29F60",
"rX c #DF9764",
"tX c #DC9A62",
"yX c #CBA260",
"uX c #D9A361",
"iX c #A6A19A",
"pX c #AAA3A2",
"aX c #C7C8BE",
"sX c #C8C9C6",
"dX c #F7FAEE",
"fX c #F6FAFA",
/* pixels */
"> > 2 X.sXfXfXsXX.# .   o o o o O # # # * q q * * * X * # $ $ # # . . # # * * * % 0 0 0 w w w w = $ $ $ # 2 2 2 * 9 9 9 # # # # ",
"> > 2 X.sXfXfXsXX.# .   o o o o O # # # * q q * * * X * # $ $ # # . . # # * * * % 0 0 0 w w w w = $ $ $ # 2 2 2 * 9 9 9 * # # # ",
"> > 2 X.sXfXfXsXX.* # # o , o , 2 2 2 4 * q q q * * * * $ 3 3 3 2 2 2 2 * * * # 0 0 0 w w r r w = $ $ $ 3 3 3 2 * q q q * # # # ",
"# # 4  .pXsXsXpXo.b c c s s s s c c c c b b b b b b b c c M M c c c c c c c c b b v b b Z Z Z b M d d s c c c v 5 * * * * # # * ",
"* * = i | o.o.o.B.`.`.`.U.U.U.U.L.L.L.L.L.L.L.L._._._.`.`.L.L.L.`.`.`.`.`.`.`.`.`.L.L.`.`.`.`._././././.).).).1.a - - - = = = = ",
"w w w w t t t H [.uXuXwX2X2X2X2X1X1X2X1X1X-X-X-XqX9X9XqX1X1X1X1X1X1X1X1X0X0X0X0X1X1X1X1X1X>X>X>XOXOXOXOX7X7X7X).f + + + & & & & ",
"w w w w ; ; ; H [.uXuXuX2X2X2X2X2X2X2X2X1X1X1X>X9X9X9X9X1X2X2X2X2X2X2XwX0X0X0X0XqX1X1X1X1X>X>X9X5X5X6X6X7X8X7X_.f + + - & & & & ",
"w w w r j x B } [.wXuXwX2X2X2X2X;X;X;X;X1X1X1X>X9X9X9XqX2X2X2X<X;X;X;X;X;X>X;X;X*X*X*X*XoXoXoXoXOX5X6X6X9XqX8X{.] M d a : = = = ",
"w w w v 1.K.K.`.*X2X2X2X>X,X>X;X|.Y.Y.|.-X1XqXqX9X9X9X,X:X3X3X%X~.Q.Q.Y.Y.I.I.I.Y.Y.Y.c.j.j.j.c.+X,X0X0X0X0X0X-X`.B.V.N.v = = = ",
"w w w b B.=X=X=X1X2X2X2X>X>X>XoXY.P.P.Y.-XqXqXqX9X9X9X,X3X3X3XXXQ.f.f.f.d.d.a.d.d.d.d.i.w.5.5.k.@X,X,X0X0X0X0XqX=X}.}.V.b * * * ",
"w w w b K.=X=X-X1X2X2X2X>X>X>XoXY.P.P.Y.-XqXqXqX9X9X9X,X3X3X3XXXQ.f.f.f.a.a.a.t.d.d.d.i.w.5.5.k.@X,X,X,X0X0X0XqXyX}.}.(.b * * * ",
"q q w b K.=X-X-X1X2X2X,X;X@XoX XI.P.l.Y.*XqXqXqXqXqXqX>X,X3X3XXXQ.p.p.f.d.d.d.d.d.d.d.d.w.w.w.l. X;X;X:X>X0X0XqX8XeX}.(.b 5 = * ",
"* * * b `.>XqXqX,X4X,X:X|.!.Y.I.f.p.p.c.oX>X>XqX8X8X8XqX>X>X,X@Xc.p.u.d.f.D.D.D.l.l.l.l.d.d.d.f.Q.^.^.~.:X3X,X>XqX7X7X).c 3 $ $ ",
"X X * b `.qXwX0X4X4X4X:X!.F.F.F.p.u.u.c.oX>X>XqX8XyXyX8XqXqX>X@Xc.i.p.i.P.P.P.P.l.l.l.l.f.f.f.D.F.F.F.^.%X3X3X,X9X9X6X_.s 3 O O ",
"X X * b `.qXwX0X,X4X4X:X!.F.F.f.u.u.u.c.oX>X>XqX8XyXyX8XqXqX>XoXc.p.p.i.P.P.P.P.z.z.z.l.f.f.f.F.F.F.F.^.%X3X3X,X9X9X6X_.s 3 O O ",
"X X * b `.1XwX>X:X+X+X.XI.f.f.f.u.u.u.b.oX>X>X>X8X8X8XqXqXqX>XoXc.p.p.z.I.Y.Y.Y.Y.Y.Y.Y.P.D.D.F.F.F.F.Q.XXXXXX:X>X9X9X_.M $ $ $ ",
"# # * b L.2X2X;X|.n.n.c.i.y.y.y.u.v.v.b..X:X:X>X>XqXqXqX>X>X>XoXY.f.f.c.|. X X X;X;X;X XQ.F.F.f.a.a.a.s.E.Q.Q.~.;X1X1X`.M $ @ @ ",
"# # # c L.<X<X$Xn.k.k.i.y.y.y.u.u.v.v.b..X:X:X:X>XqXqXqX>X>X>X*XY.f.f.Q. X;X;X>X,X,X,X;XQ.F.F.f.a.y.y.u.s.v.v.Q.$X2X2XL.M $ @ @ ",
"# # # c L.<X<X$Xc.j.j.i.y.y.y.u.u.v.v.b..X:X:X:X>X>X>XqX>X>X>XoXY.f.f.I. X;X;X>X,X,X,X;XQ.F.F.f.a.y.y.u.s.v.v.Q.$X2X2XL.M = @ @ ",
"# # # c U.<X2X;XY.l.d.l.z.z.z.z.v.v.v.b.|..X.X.X;X;X;X;XoXoXoX|.I.f.f.I. X>X>X>X,X,X,X@XQ.F.f.f.a.y.a.a.s.v.v.Q.$X1X1XL.M = # @ ",
"@ @ # c '.,X,X@XT.Z.Z.P. X;X;X XQ.F.F.F.z.z.c.I.!.!.!.!.c.z.z.z.f.f.f.I.;X2X2X2X,X4X,X;XI.d.d.d.d.d.d.d.f.F.F.Q.oX-X-XK.c 2 2 > ",
"O O O s _.9X0XoXT.C.C.T.-XwXwX;X^.F.F.D.d.d.d.d.f.Q.Q.f.d.i.i.i.d.d.d.I.;X2X2X2X,X4X,X@Xc.i.i.i.d.l.l.l.F.F.F.Y.oXOXOXK.c 2 > > ",
"O O O s _.0X0XoXT.C.C.T.-XwXwX;X^.F.F.D.d.d.d.d.f.Q.E.f.d.i.i.i.d.d.f.Y.;X2X2X2X,X,X,X@Xc.i.i.i.l.l.l.l.D.F.F.Y.oXOXOXK.c 2 > > ",
"@ @ # c _.,X0X*XT.Z.Z.P. X;X;X XQ.F.F.f.d.d.d.d.f.E.F.f.d.i.i.i.d.d.f.I.#X;X;X;X@X@X@X Xc.d.d.d.d.l.l.l.D.F.F.Y.oX-XOX).c 4 2 2 ",
"* * * b `.2XwX;Xc.i.i.d.z.b.b.z.f.f.d.d.d.d.d.d.s.s.s.s.d.d.d.d.f.f.f.z.I.Y.Y.I.z.k.k.z.f.F.F.D.d.t.t.t.A.A.H.T.*X>X>X_.b y * * ",
"q q y b [.2X2X;Xc.j.i.i.u.u.u.u.u.i.i.i.l.l.l.d.s.,.,.s.d.d.l.d.f.f.f.f.d.f.f.d.u.6.6.y.f.F.F.F.t.t.t.t.A.H.H.T.*X>X>X`.b y q q ",
"q q y b [.2X2X;Xc.i.i.i.u.u.u.u.i.i.i.i.d.d.l.d.s.,.,.s.d.l.l.d.f.f.f.f.d.d.d.d.u.6.6.u.f.F.F.F.t.t.t.t.A.H.H.T.*X>X>X`.b y q q ",
"* * q b `.2X2X;Xc.i.i.i.i.i.i.y.q.-.-.-.2.2.2.0.a.s.s.s.d.d.l.d.f.f.f.f.d.d.d.d.y.u.u.y.f.F.F.F.z.x.x.z.D.A.A.T.;X>X>X`.b w * * ",
"# # * b '.>X,X@XI.d.d.d.f.d.d.e.%.^ ^ [ ) ) ) #.r.f.f.f.d.d.d.d.d.f.f.d.l.l.l.d.p.p.p.f.f.A.F.I.|.OXOX|.c.f.p.Q.@X,X>XU.M = @ @ ",
"* * * c '.,X,X@XI.D.A.d.f.l.l.e.[ E E H m f f ) 0.f.f.f.d.t.t.d.d.d.d.d.l.l.l.d.f.f.f.f.f.a.D.I.OX6X6XOXc.i.p.b..X,X,XU.M = = = ",
"# # * c U.:X,X@XI.D.A.D.f.l.l.e.[ E E H m f m ) 0.f.f.f.l.h.h.d.d.d.d.d.l.l.l.d.f.f.f.f.f.a.f.I.OX6X6XOXc.i.i.b..X,X;XU.M = = = ",
"* * * v 4.].|.Y.D.D.d.d.f.l.l.e.[ E E H D m D ` e.f.f.z.Y.Y.Y.Y.Y.Y.Y.P.l.j.j.l.f.f.f.f.f.s.f.I.|.OX+X|.k.i.i.z.Y.].].4.v = = = ",
"w w w i [ %.%.&.r.f.f.f.d.d.d.2.` G G H E E Y / -.d.d.z.|.oXoXoXoXoXoX|.x.9.9.i.p.p.f.f.p.p.f.f.Q.Q.Q.I.j.9.7.5.&.} } ] 8 = = = ",
"e e e t B J W { ;.p.p.f.d.d.t.2.` K G H T T T / -.i.i.c.oX>X9X9X9X6X6XoXx.9.7.7.p.p.p.f.p.p.p.f.S.S.S.f.i.9.9.<.` K K N 7 = = = ",
"e e e t x J J { ;.p.p.f.d.d.t.2.` K K H T T Y / -.i.i.c.oXqXqXqX9X9X9XoXx.7.7.i.p.p.p.p.p.p.p.s.S.S.S.f.i.9.9.<.` K Z N 7 = = = ",
"q q w i x H J { -.d.p.d.d.d.t.e.#.' ` { / / / %.q.i.i.c.*X1X1X1XqXqX>XoXc.i.i.i.u.u.u.p.f.s.s.s.f.f.f.p.i.9.8.<.[ K B N 7 # # # ",
"X X # 5 z H H ` -.d.d.d.i.i.i.w.0.e.e.e.:.M.>.>.d.i.i.I.;XtXtXtX2X2X2X;X!.f.d.d.i.u.u.a.A.A.A.A.i.i.i.i.i.w.w.2.[ H B N 7 # # * ",
". . . 5 k H H ` -.d.d.d.i.i.i.i.i.i.i.d.D.F.F.D.d.i.f.I.&XtXtXtXtXtXtX&X!.z.f.d.a.y.y.a.A.A.A.A.i.7.7.7.t.t.t.3.[ H H z : * * * ",
". . . 5 k H H ` -.y.d.d.i.i.i.i.i.i.i.d.F.F.F.F.d.d.f.I.&XtXtXtXtXtXrX&X!.z.f.d.y.y.y.a.A.A.A.A.i.7.7.7.t.t.t.3.[ H H N : * * * ",
". . . 3 k H H [ :.d.d.t.0.-.-.0.d.d.d.d.f.F.F.f.d.d.f.z.#X$X$X&X&X&X&X#XI.l.l.d.i.y.i.d.D.A.A.D.i.i.i.w.e.e.:.*.I E H N 7 @ # # ",
", , , 1 l H J { C.G.G.C.#.P P #.e.Z.D.d.f.d.d.d.d.f.f.f.z.b.b.b.Q.Q.Q.I.l.l.l.l.i.w.w.i.D.D.D.D.Z.Z.t.e.%.+.+./ W Q Q x 8 # # # ",
", , , 1 l J J { C.R.R.C.U F F U :.Z.D.D.d.d.d.d.d.f.f.p.6.6.6.u.a.s.s.f.l.l.l.h.g.g.g.g.l.P.P.P.Z.Z.Z.m.+.R R R W W W x 6 O O O ",
", , , 1 l J J { C.R.R.C.U F F U *.Z.Z.D.d.d.d.d.d.f.f.p.6.6.6.6.a.a.a.d.d.h.l.h.g.w.w.g.l.P.P.P.Z.Z.Z.m.+.R R R W W W x 6 O O O ",
", , , 1 l H J / M.G.G.C.#.P P #.e.Z.Z.d.d.d.d.d.d.f.f.d.y.6.6.y.a.a.a.y.0.2.2.2.2.2.2.0.t.l.l.P.Z.Z.Z.C.%.+.+./ ~ J J x 8 # # # ",
"2 2 2 7 k H H I *.q.q.q.q.0.0.q.t.d.d.d.t.t.t.t.t.l.l.d.i.i.i.i.d.d.d.e.#.` ` ' { { { %.0.g.g.g.h.J.J.t.0.=.=.$.L A A l i w q q ",
"4 4 4 u z H H I $.5.5.w.d.l.z.l.j.j.j.l.t.Z.Z.Z.h.h.h.h.t.i.w.d.d.d.d.:.` G H J W ~ ~ { 2.8.g.g.h.J.J.h.i.7.7.=.P g g l i e e e ",
"4 4 4 u z H H I $.5.5.w.d.z.z.l.j.i.i.d.t.Z.Z.Z.h.h.h.h.t.w.w.t.d.d.d.:.I D D H W W ~ { 2.8.g.g.h.J.h.t.i.7.7.=.P g g l t e e e ",
"* * * u z H H I *.y.y.i.f.f.f.d.q.0.0.e.3.3.3.e.t.h.h.h.d.i.i.d.d.d.d.:.I H D J W ~ ~ / 0.w.i.w.e.3.3.e.w.7.7.=.P A A l r q q q ",
"* * q u z E E { >.F.F.F.F.s.s.>.#.#.P U / ^ { %.e.t.t.d.i.i.i.i.d.f.f.e.' J J J Y R R +.;.d.f.r.%.+.O.%.q.i.i.;.+.~ Y x : * * * ",
"% % q r z E E { C.W.W.W.S.S.s.>.O.F F F J W W / e.t.d.d.i.i.i.i.d.f.f.e.' J J J R R R +.>.f.f.;.O.S S O.;.p.p.;.%.~ ~ x : . . . ",
"* % * r z E E { C.W.W.W.S.S.s.>.O.F F F J W W / *.t.t.d.i.i.i.i.d.f.f.e.' J J J R R R @.>.F.f.;.O.S S O.;.i.p.;.%.~ ~ x : . . . ",
"* * * r z H H { C.F.H.F.S.s.s.;.P F F F J W W / :.t.d.d.d.d.d.d.d.d.d.q.#.' I / +.@.@.%.r.f.f.r.%.+.+.%.q.i.i.-.%.~ W x 5 . . . ",
"= = = 8 n m m ` e.D.D.D.f.d.d.-._ h h D J W W { -.y.i.d.f.F.F.f.i.i.i.w.e.*.*.*.:.:.:.r.y.i.i.y.e.:.:.e.w.i.i.e.^ ! ! V 5 > > > ",
"- $ $ 8 n m m ( 3.D.D.D.d.d.d.*.) h h D J W W { ;.y.y.d.F.E.E.F.i.7.7.i.t.t.t.t.D.D.D.f.i.y.y.i.d.D.D.d.w.w.w.2.^ ! ! V 5 > > > ",
"- - $ 8 n m m ( 3.Z.D.D.t.t.t.*.) h h D Q W W { -.y.y.y.F.E.E.F.i.7.7.i.t.t.t.t.D.D.D.d.i.y.y.i.d.D.D.t.w.w.w.*.^ ! ! V 5 2 > > ",
"$ $ $ 6 p n n K &.3.3.3.-.-.-.&.L D D D Q W W ^ *.=.-.-.>.>.>.;.-.=.0.0.3.3.3.3.e.e.e.:.-.-.-.-.3.3.3.3.2.2.2.&.E C C Z  .X.X.X.",
"# # # $ 6 8 8 p G ( ` ` ' ' ' I G D D H E ! ! Q ` ) ) ) I I I I ' ' ' ' ` ` ` ` ` ` ` I ^ ^ ^ [ [ [ [ [ ` ` ` K j t t ..iXaXaXaX",
"# # # # = = = 8 n m m D G J J J H x x B E ! ! E G G G G D D D H H H H H G G G G D D D H E ! ! ! E H H K K K K N t ; r ..aXdXdXdX",
"# # # # = = = 8 a m m m G G J J H x x B Z ! ! E D G G D m m m H H H H H G G G G D D D H E ! ! E H D H H H K K N t ; ; ..aXdXdXdX",
"# # # * = = = : p a a a n N N N k k k z z V V z n n n n k k k k z z z z k k k k k k k k V C C V z k k N N N N j : & : ..iXaXsXsX",
"* * * # % % % = 3 3 3 3 u u u u r : : t r r r r 7 7 7 7 6 8 8 7 u i i u : - - - 6 6 6 6 u u u u : : : : 8 8 8 : = = = u  .X.X.X.",
"* * * # % % % % # < 2 2 X 9 q q = = = = & % & # * * * # $ $ $ * q q q q @ @ @ @ $ 3 3 3 * * * * # @ @ = = = = = @ @ @ @ 4 y y y ",
"* * * # % % % % # < < 2 X 9 9 q = = = = & % % # * * * # # # $ * q q q q @ @ @ @ $ 3 3 $ * * * # # @ @ % = = = = @ @ @ # X X X X ",
"* * * # % % % % # < < 2 X 9 9 q = = = = & % % # * * * # # # $ * q q q q @ @ @ @ $ 3 3 $ * * * # # @ @ % = = = = @ @ @ # X X X X "
};
