/* XPM */
static char *_a73f40f289c4a5f888c098d59c8dee8iOCmNYdxYrDIJ8ja[] = {
/* columns rows colors chars-per-pixel */
"64 64 23 1 ",
"  c #C0D470",
". c #BED36F",
"X c #BBD16E",
"o c #B9CF6D",
"O c #B0CA69",
"+ c #ABC666",
"@ c #B4CC6A",
"# c #A9C565",
"$ c #A4C263",
"% c #A6C364",
"& c #ABC766",
"* c #B9D06D",
"= c #C1D570",
"- c #C3D671",
"; c #C5D772",
": c #CADB74",
"> c #CEDD75",
", c #C8D973",
"< c #CFDE76",
"1 c #D2E077",
"2 c #D1DF77",
"3 c #CDDD75",
"4 c #C4D772",
/* pixels */
"                                                                ",
"                                                                ",
"                                                                ",
"                                           .XooooooooX.         ",
"                                           XO++++++++OX         ",
"     .XooooooX.                        .Xoo@#$$$$$$$$#@X.       ",
"     XO++++++OX                        XO++#%$$$$$$$$%#OX       ",
"   .X@#$$$$$$#@ooX.                  .X@#$$$$$$$$$$$$$$&*       ",
"   XO#%$$$$$$%#++OX                  XO#%$$$$$$$$$$$$$$&*       ",
"   o+$$$$$$$$$$$$#@X.                o+$$$$$$$$$$$$$$$$&*       ",
"   o+$$$$$$$$$$$$%#OX                o+$$$$$$$$$$$$$$$$&*       ",
"   o+$$$$$$$$$$$$$$&*                XO#%$$$$$$$$$$$$%#OX       ",
"   o+$$$$$$$$$$$$$$&*                .X@#$$$$$$$$$$$$#@X.       ",
"   o+$$$$$$$$$$$$$$&*                  XO&&&&&&&&&&&&OX         ",
"   o+$$$$$$$$$$$$$$&*                  .X************X.         ",
"   XO#%$$$$$$$$$$%#OX                              .XooooX.     ",
"   .X@#$$$$$$$$$$#@X.                              XO++++OX     ",
"     XO&&&&&&&&&&OX                .XooooooX.    .X@#$$$$#@X.   ",
"     .X**********X.                XO++++++OX    XO#%$$$$%#OX   ",
"                 .XooooooX.      .X@#$$$$$$#@X.  o+$$$$$$$$&*   ",
"                 XO++++++OX      XO#%$$$$$$%#OX  o+$$$$$$$$&*   ",
"               .X@#$$$$$$#@X.    o+$$$$$$$$$$&*  XO#%$$$$%#OX   ",
"               XO#%$$$$$$%#OX    o+$$$$$$$$$$&*  .X@#$$$$#@X.   ",
"               o+$$$$$$$$$$&*    XO#%$$$$$$%#OX    XO&&&&OX     ",
"               o+$$$$$$$$$$&*    .X@#$$$$$$#@X.    .X****X.     ",
"               XO#%$$$$$$%#OX      XO&&&&&&OX                   ",
"               .X@#$$$$$$#@X.      .X******X.                   ",
"                 XO&&&&&&OX                                     ",
"                 .X******X.                                     ",
"                                                                ",
"                                                                ",
"                                                                ",
"                                                                ",
"                                                                ",
"                                                                ",
"                                                                ",
"                                                                ",
"     =-;;;;;;;;-=                          =-;;;;;;;;-=         ",
"     -:>>>>>>>>:-                          -:>>>>>>>>:-         ",
"   =-,<11111111<,-=                      =-,<11111111<,;;-=     ",
"   -:<2111111112<:-                      -:<2111111112<>>:-     ",
"   ;>11111111111134                      ;>11111111111111<,-=   ",
"   ;>11111111111134                      ;>111111111111112<:-   ",
"   -:<2111111112<:-                      ;>111111111111111134   ",
"   =-,<11111111<,-=                      ;>111111111111111134   ",
"     -:33333333:-                        -:<21111111111112<:-   ",
"     =-44444444-=                        =-,<111111111111<,-=   ",
"                 =-;;;;;;-=                -:333333333333:-     ",
"                 -:>>>>>>:-                =-444444444444-=     ",
"             =-;;,<111111<,-=        =-;;;;;;-=                 ",
"             -:>><21111112<:-        -:>>>>>>:-                 ",
"             ;>11111111111134      =-,<111111<,-=               ",
"             ;>11111111111134      -:<21111112<:-               ",
"   =-;;;;-=  -:<2111111112<:-      ;>111111111134               ",
"   -:>>>>:-  =-,<11111111<,-=      ;>111111111134               ",
" =-,<1111<,-=  -:33333333:-        -:<21111112<:-               ",
" -:<211112<:-  =-44444444-=        =-,<111111<,-=               ",
" ;>1111111134                        -:333333:-                 ",
" ;>1111111134                        =-444444-=                 ",
" -:<211112<:-                                                   ",
" =-,<1111<,-=                                                   ",
"   -:3333:-                                                     ",
"   =-4444-=                                                     ",
"                                                                "
};
