/* XPM */
static const char *a2V5XzE_[] = {
/* columns rows colors chars-per-pixel */
"64 64 206 2 ",
"   c #040403",
".  c #0B0504",
"X  c #040903",
"o  c #0A0A05",
"O  c #05040A",
"+  c #0B040B",
"@  c #0A090A",
"#  c #120605",
"$  c #150707",
"%  c #130909",
"&  c #090614",
"*  c #100816",
"=  c #361D0C",
"-  c #3A1D0B",
";  c #391D17",
":  c #38210E",
">  c #372717",
",  c #36261B",
"<  c #352B1A",
"1  c #362823",
"2  c #3B2D25",
"3  c #3A2E2B",
"4  c #3A3125",
"5  c #37302A",
"6  c #3B312A",
"7  c #3D3D3C",
"8  c #411C0D",
"9  c #5D3417",
"0  c #633116",
"q  c #433225",
"w  c #433129",
"e  c #543421",
"r  c #433D3D",
"t  c #4A3E3E",
"y  c #3C413B",
"u  c #44413E",
"i  c #564335",
"p  c #5D4731",
"a  c #5B4235",
"s  c #564A3C",
"d  c #614B36",
"f  c #63513D",
"g  c #3D3D42",
"h  c #3D3D4A",
"j  c #443E42",
"k  c #453F49",
"l  c #3F404B",
"z  c #574542",
"x  c #595148",
"c  c #5B514B",
"v  c #624E40",
"b  c #635146",
"n  c #696C66",
"m  c #6B6969",
"M  c #6E696D",
"N  c #92521F",
"B  c #A5551D",
"V  c #AA571A",
"C  c #B2571B",
"Z  c #954E28",
"A  c #8E5024",
"S  c #95522A",
"D  c #AC5724",
"F  c #B25626",
"G  c #B25924",
"H  c #AE602F",
"J  c #B46629",
"K  c #B9642B",
"L  c #B76532",
"P  c #D9721C",
"I  c #D56D25",
"U  c #DB6D26",
"Y  c #DB752A",
"T  c #DD6C34",
"R  c #DA7B34",
"E  c #DC7C39",
"W  c #E36D25",
"Q  c #E46D2B",
"!  c #E6722A",
"~  c #E47333",
"^  c #E27B38",
"/  c #927046",
"(  c #A67745",
")  c #AE764F",
"_  c #A37D4B",
"`  c #A77854",
"'  c #977F6C",
"]  c #DB7740",
"[  c #E77E40",
"{  c #D8853D",
"}  c #E6833E",
"|  c #AB834C",
" . c #B3824E",
".. c #A88253",
"X. c #B18653",
"o. c #9A836A",
"O. c #9C8270",
"+. c #A89A6E",
"@. c #B7956E",
"#. c #AF937A",
"$. c #B49574",
"%. c #BA9975",
"&. c #B5957C",
"*. c #B89778",
"=. c #BC9B7B",
"-. c #CC864C",
";. c #DB8544",
":. c #D89749",
">. c #D18E58",
",. c #CA9957",
"<. c #D4935A",
"1. c #D89658",
"2. c #D49B5B",
"3. c #E58947",
"4. c #E68F4E",
"5. c #E69C59",
"6. c #D5A04E",
"7. c #CEA15C",
"8. c #D5A152",
"9. c #D4A25D",
"0. c #CF9C66",
"q. c #C99A6B",
"w. c #D89567",
"e. c #D39D65",
"r. c #DB9E65",
"t. c #D49669",
"y. c #D59B69",
"u. c #DB9C6B",
"i. c #C19B79",
"p. c #D99E75",
"a. c #E19B68",
"s. c #D3A264",
"d. c #D6A465",
"f. c #D4A36B",
"g. c #DAA36A",
"h. c #D9AA69",
"j. c #DBA474",
"k. c #D1A871",
"l. c #D6AB73",
"z. c #DAAA75",
"x. c #D9A778",
"c. c #E4A365",
"v. c #E7A569",
"b. c #E7AA76",
"n. c #9E9C9C",
"m. c #B59680",
"M. c #A39B96",
"N. c #A39D9A",
"B. c #A4A09D",
"V. c #A09EA0",
"C. c #BFBFBE",
"Z. c #DBBA85",
"A. c #DFBC9B",
"S. c #E5AC81",
"D. c #E7B785",
"F. c #E4BA8C",
"G. c #EABA8E",
"H. c #E7B794",
"J. c #E4BB94",
"K. c #EBBC92",
"L. c #E5BD9A",
"P. c #EABD9B",
"I. c #DEBBA2",
"U. c #C1BEBC",
"Y. c #E3BEA2",
"T. c #EABFA2",
"R. c #BDC5BB",
"E. c #D6C68C",
"W. c #F3C18D",
"Q. c #EBC195",
"!. c #E5C19A",
"~. c #EDC29B",
"^. c #F1C396",
"/. c #C3C1BE",
"(. c #E5C1A3",
"). c #EBC3A3",
"_. c #BCBEC2",
"`. c #C3BFC0",
"'. c #BEC1C1",
"]. c #BFC1C8",
"[. c #C3C3C3",
"{. c #D1CFCD",
"}. c #CDD1CD",
"|. c #D1D1CE",
" X c #CDCFD2",
".X c #D1CFD1",
"XX c #CED1D1",
"oX c #D2D1D1",
"OX c #EFEFEF",
"+X c #EEF1EC",
"@X c #F2F1EC",
"#X c #F2F9EE",
"$X c #FEFFEE",
"%X c #EEF2F2",
"&X c #F4F5F4",
"*X c #FBF5F4",
"=X c #F5FBF2",
"-X c #FCFCF5",
";X c #F4F7FA",
":X c #FDF7FB",
">X c #F5FDFC",
",X c #FDFFF9",
"<X c #FEFAFE",
"1X c #FAFEFE",
"2X c #FEFCFD",
"3X c #FEFEFF",
/* pixels */
"<X<X<X<X>X>X>X>X<X<X*X/.r o X                       . r [.>X1X1X1X1X1X1X3X3X3X3X3X3X3X3X3X3X3X,X,X,X,X,X,X,X,X,X,X1X1X1X3X3X3X3X",
"<X<X<X<X>X>X>X>X<X<X*X/.r o X                       . r [.>X1X1X1X1X1X1X3X3X3X3X3X3X3X3X3X3X3X,X,X,X,X,X,X,X,X,X,X1X1X3X3X3X3X3X",
"<X<X<X<X>X>X>X>X*X*X&XU.r o . .         X X X X .   . r '.;X>X>X1X1X1X1X3X3X3X3X3X3X3X3X3X3X3X,X,X,X,X,X,X,X,X,X,X1X1X3X3X3X3X3X",
"<X<X<X<X>X>X>X%X{./.U.N.c 6 4 4 2 2 2 2 2 4 4 4 2 2 6 c B.'.[.XX%X1X1X3X3X3X3X3X<X3X3X3X3X3X3X,X,X,X,X,X,X,X,X,X3X3X3X3X3X3X3X3X",
"-X-X-X-X>X>X>XXXm u r c O.&.m.m.&.#.#.&.$.%.%.%.&.m.#.' c 7 r m |.1X,X3X3X3X3X3X<X<X<X3X3X3X3X3X3X3X3X,X,X,X,X3X3X3X3X3X3X3X3X3X",
"$X$X$X-X1X>X>X'.u @ o 6 &.Y.T.T.L.A.A.L.K.Q.Q.P.Y.Y.I.#.6 . @ r [.*X,X,X3X3X3X3X<X<X<X<X3X3X3X3X3X3X3X3X,X3X3X3X3X3X3X3X3X3X3X3X",
"$X$X-X-X>X>X%X'.7 o o 6 &.T.).).Y.(.(.!.~.^.^.~.(.(.Y.m.3 . . r /.&X*X-X,X3X3X3X<X<X<X<X3X3X3X3X3X3X3X3X3X3X3X3X3X3X3X3X3X3X3X3X",
"-X-X-X+XXX'.'.n.s > > d =.H.L.L.J.J.J.J.G.G.G.K.H.L.J.=.v 3 3 c B./.[.|.OX,X,X,X<X<X<X3X3X3X3X3X3X3X3X3X3X3X3X3X3X3X3X3X3X3X3X3X",
",X,X,X|.m g 7 s / ( (  .0.j.j.j.z.z.z.z.j.j.j.j.b.b.b.j.i.&.&.' c r u n {.*X-X,X,X,X,X3X3X3X3X3X3X<X<X3X3X3X3X3X3X3X3X,X,X,X,X,X",
"3X3X1X[.g @ @ , ( 1.1.2.e.e.e.y.g.h.h.g.y.w.w.u.c.v.v.b.H.P.L.&.6 o @ r /.&X*X-X,X,X,X3X3X3X3X3X<X<X<X<X3X3X3X3X3X,X,X,X,X,X,X,X",
"3X3X1X[.7     , ( 1.1.1.e.e.e.e.s.d.d.s.t.t.t.w.a.c.c.b.H.T.P.&.2 X X 7 /.&X*X-X,X,X,X3X3X3X3X3X<X<X<X<X3X3X3X3X3X,X,X,X,X,X,X,X",
"3X3X1X[.7   X , ( 2.2.r.g.j.j.0.X.....` ` ` ` ) e.c.c.b.K.P.P.&.2     7 /.&X-X,X,X,X,X,X3X3X3X3X<X<X<X<X3X3X3X3X3X3X3X,X-X-X-X-X",
"<X<X*X[.7 X X , ` u.j.x.D.K.F.%.p < < , , 1 1 p X.9.9.h.D.^.K.@.2     7 [.1X3X3X,X,X,X,X3X3X3X3X<X3X3X3X<X3X3X3X3X3X3X,X=X=X=X=X",
":X:X*X`.7 X X < ` p.j.S.K.~.~.*.4 o X   + + + , | 7.9.h.D.W.W.@.2 O   7 [.1X3X3X,X-X-X,X3X3X3X3X<X3X3X3X<X3X3X3X3X3X3X,X=X#X#X#X",
":X:X*X`.7 X X < ` j.j.S.K.~.~.*.4 X     O + + < _ 7.9.h.D.W.W.@.2 O O 7 [.1X3X3X,X-X-X,X3X3X3X3X3X3X3X3X<X3X3X3X3X3X3X,X=X#X#X#X",
"<X<X*X[.7 X X , ) w.a.b.G.~.K.$.4       O + + , _ 7.9.h.D.^.K.@.2 O O g [.1X3X3X,X,X,X,X3X3X3X3X<X3X3X<X<X<X3X3X3X3X3X3X=X=X=X=X",
",X,X*X[.y X X : H ^ [ 4.b.K.F.$.2 O       . # > ( ,.,.g.F.~.P.&.3 O O g [.>X3X1X1X1X1X1X,X1X1X3X3X3X3X3X3X<X<X<X3X3X3X3X,X,X,X,X",
",X,X*X[.y X X = G ! ! 3.b.G.F.@.2 O       . # > ( ,.,.f.J.).T.m.3 O O g [.>X1X1X1X1X1X1X,X,X,X1X3X3X3X3X3X<X<X<X3X3X3X3X3X3X3X3X",
",X,X*X[.7 X X = G Q ! 3.b.F.F.@.6 @ O O . # $ > ( ,.,.g.J.).(.m.3 O O g [.>X1X1X1X1X1X1X1X1X1X1X3X3X3X3X3X<X<X<X3X3X3X3X3X3X3X3X",
"3X3X*X[.7 X X = G Q ! 3.b.D.D.%.f 6 5 6 2 q q d  .2.2.g.J.).T.&.3 O O g [.1X3X1X1X1X1X1X1X1X1X1X3X3X3X3X3X<X<X<X3X3X3X3X3X3X3X3X",
"3X3X1X[.7   X = V I Y E r.z.z.k.=.&.&.&.$.$.$.q.r.5.5.v.K.).!.&.2 . . r [.1X3X3X1X1X1X1X1X1X1X1X3X3X3X,X,X,X,X<X3X3X3X3X<X3X3X3X",
"3X3X*X[.7     = V I U E 2.f.l.z.J.L.P.L.!.!.J.D.v.5.5.v.K.).!.&.2 . . r [.<X3X3X1X1X1X1X1X1X1X1X,X,X,X,X,X,X,X,X3X3X3X<X3X3X3X3X",
"<X<X*X[.7 @ o = B I I R 2.f.f.z.J.~.~.~.Q.Q.Q.D.v.5.5.v.K.~.!.&.q # # r /.*X<X<X1X1X1X1X1X1X1X1X,X,X,X,X,X,X,X,X<X<X3X<X3X3X3X3X",
"<X3X3X.Xm 7 7 i A B V J -.2.2.r.b.b.S.D.D.F.F.D.v.5.5.v.D.J.J.=.v w w c B./.[.oX%X1X1X1X1X1X1X1X3X,X,X,X,X,X,X,X,X3X3X<X<X3X3X3X",
"3X3X3XOX{.[.U.M.i - - 9 J R R E } } } 3.u.j.j.j.g.g.g.g.l.l.l.k.=.&.&.O.b t t M oX1X3X1X1X1X1X1X1X3X3X3X,X,X,X,X3X3X3X3X3X3X3X3X",
"3X3X3X3X<X*X&XU.r . . - B I I U W ! ! ^ 1.u.y.y.y.g.g.s.s.s.s.l.J.(.Y.&.w # $ t [.1X3X3X1X1X1X1X1X3X3X3X,X,X,X,X3X3X3X3X3X3X3X3X",
"3X3X3X3X,X,X*X[.r @ . - B I I I W W W ~ 1.t.t.t.e.e.e.s.s.s.s.l.J.).(.&.w $ $ t /.*X1X1X3X1X1X1X1X3X3X3X,X,X,X,X3X3X3X3X3X3X3X3X",
"3X3X3X3X,X,X*X|.m r r i A B B V C C C G ( ` ` ` ` ` `  .,.2.1.d.F.K.J.=.v w w b B./.[.oXOX3X1X1X3X3X3X3X,X,X,X,X3X3X3X3X3X3X3X3X",
">X>X>X1X1X3X,XOXoX[.[.N.i = = = - - - : , 1 1 1 , > , 9 J R R ;.r.z.z.k.i.m.m.O.c r r m .X3X3X3X3X3X3X3X,X,X,X,X,X,X,X3X1X1X1X1X",
">X>X>X>X1X3X3X3X1X3X;X[.g + O O . o . . O O O O     . - C U W R 1.s.g.z.J.(.(.m.w # % r [.1X3X3X3X3X3X3X,X,X,X,X,X,X,X,X1X1X1X1X",
">X>X>X>X1X3X3X3X3X3X1X[.g @ O O X o o X O O O O   X . - C U W R 1.e.s.z.L.).).m.w # # r `.*X1X3X3X3X3X3X,X,X,X,X,X,X,X,X1X1X1X1X",
">X>X>X,X1X3X3X3X3X3X3XoXm g g 7 7 7 7 7 g g g g 7 7 7 a Z C C K -.1.1.r.F.L.L.i.f 4 4 x N.`.[..X%X1X3X3X3X,X,X,X,X,X,X3X1X1X1X1X",
"1X1X1X3X3X3X3X3X3X3X3X&XoX[.[.[.[.[.[.[.[.[.[.[.[.[.C.M.i - - 9 J Y Y { u.b.x.k.%.+.+.o.c r j m  X>X1X1X3X3X3X3X3X3X3X3X1X1X>X>X",
"3X3X3X3X3X3X3X3X3X3X3X3X3X1X1X1X1X1X1X1X1X1X1X1X*X*X*XC.7 o . = V P P R 1.u.u.j.Z.E.E.+.4 @ % j [.;X>X1X3X3X3X3X3X3X3X3X1X>X>X>X",
"3X3X3X3X3X3X3X3X3X3X3X3X3X3X3X3X3X3X3X3X3X3X3X3X3X3X*X[.7 @ o = V P P R 1.u.u.j.Z.E.E.+.4 . % r _.%X;X>X3X3X3X3X3X3X3X3X1X>X>X>X",
"3X3X3X3X3X3X3X3X3X3X3X3X3X3X3X3X3X3X3X3X3X3X3X3X3X3X1X.Xm 7 7 i N V V J -.1.1.r.z.Z.Z.@.f 6 w c V._.]. X&X3X3X3X3X3X3X3X,X,X,X,X",
"3X3X3X3X3X3X3X3X3X3X3X3X3X3X3X3X3X3X3X3X3X3X3X3X3X3X3X&XoX[.C.M.a - 8 0 K E E ;.5.c.c.g.i.*.&.O.c g g m {.-X,X,X,X3X3X,X-X-X$X$X",
"3X3X3X3X3X3X3X3X3X3X3X3X3X3X3X3X3X3X3X3X3X3X3X3X3X3X3X3X1X1X*XU.r % # 8 D U Y ^ 4.5.5.c.G.~.L.&.6 @ @ j /.*X-X-X,X3X3X,X$X$X$X$X",
"3X3X3X3X3X3X3X3X3X3X3X3X3X3X3X3X3X3X3X3X3X3X3X3X3X3X3X3X3X3X1X[.j % % - D I U R 4.5.5.c.G.).~.&.6 @ @ 7 U.@X*X*X<X3X3X,X$X$X$X$X",
"3X3X3X3X3X3X3X3X3X3X3X3X3X3X3X3X3X3X3X3X3X3X3X3X3X3X3X3X3X3X1X.XM j r i Z D D K ;.4.4.5.D.K.J.=.v 6 6 c N.U./.{.OX<X3X,X-X-X-X-X",
"3X3X3X3X1X1X1X1X3X3X3X3X3X3X3X3X3X3X3X3X3X3X3X3X1X1X1X1X3X3X3X&XoX[.'.N.i = = 9 K R ^ ;.d.z.z.k.%.$.#.' c 7 7 m oX1X3X3X,X,X,X,X",
"3X3X3X<X1X1X1X1X3X3X3X3X3X3X3X3X3X3X3X3X3X3X3X3X1X1X1X1X3X3X3X3X>X>X;X'.7 o . - D Y ! { 2.f.f.l.Z.J.A.#.2 @ @ 7 [.1X3X3X1X1X1X1X",
"3X3X3X<X1X*X1X1X3X3X3X3X3X3X3X3X3X3X3X3X3X3X3X3X1X*X1X1X3X3X3X3X1X1X>X[.g @ o = D U Y E 2.f.f.l.F.!.J.$.4 o @ 7 [.*X1X3X1X1X1X1X",
"3X3X3X,X1X1X1X1X3X3X3X3X3X3X3X3X3X3X3X3X3X3X3X3X1X1X1X1X3X3X3X3X1X1X>XXXm g 7 i A D D L ,.s.f.l.Z.F.Z.%.f 6 6 c B.[.[.oX%X>X1X>X",
"3X3X3X3X3X3X3X3X3X3X3X3X3X3X3X3X3X3X3X3X3X3X3X3X3X3X3X3X3X3X3X3X3X1X1XOXXX[.'.N.i - - 9  .2.s.s.f.l.l.k.i.*.*.o.b u u m XX>X1X>X",
",X3X3X3X3X3X3X3X3X3X3X3X3X3X3X3X3X3X3X3X3X3X3X3X3X3X3X3X3X3X3X3X3X3X3X1X1X1X*X'.7 o . > _ 2.9.9.s.f.f.l.G.~.~.%.q % % u [.>X1X1X",
"<X<X3X3X3X3X3X3X3X3X3X3X3X3X3X3X3X3X3X3X3X3X3X3X3X3X3X3X3X3X3X3X3X3X3X1X1X1X*X'.7 o . > _ 2.9.9.e.0.f.z.K.^.^.=.q . o r [.=X1X,X",
"3X3X3X3X3X3X3X3X3X3X3X3X3X3X3X3X3X3X3X3X3X3X3X3X3X3X3X3X3X3X3X3X3X3X1XOXXX[.'.B.s , , p | 2.9.2.2.<.<.r.D.G.G.@.2 . . r [.>X1X,X",
"3X3X3X3X3X3X3X3X3X3X3X<X1X1X1X1X3X3X3X3X3X3X3X3X3X1X1X<X3X3X3X3X3X1X1XXXn y y s / _ | | ,.8.8.:.;.^ ^ 3.r.z.g...1 + + j [.1X3X3X",
"3X3X3X3X3X3X3X3X3X3X3X3X1X*X*X1X3X3X3X3X3X3X3X3X1X1X1X1X3X3X3X3X3X1X>X[.y o o < _ 7.s.9.8.6.6.:.^ ~ ~ ^ 1.d.e.` 1 + & j [.1X3X3X",
"3X3X3X3X3X3X3X3X3X3X3X3X1X*X*X1X3X3X3X3X3X3X3X3X1X1X1X1X3X3X3X3X1X>X;XR.y o X < | s.d.9.8.6.:.:.^ ~ ~ ^ 1.e.e.` 2 * * k [.1X3X3X",
"3X3X3X3X3X3X3X3X3X3X3X3X1X1X1X1X3X3X3X3X3X3X3X3X3X1X1X3X3X3X3X&XoX[./.N.i : : e | s.s.2.:.:.:.{ K G F H ( _ _ / c j k M oX1X3X3X",
"3X3X3X3X3X3X3X3X3X3X3X3X3X3X3X3X3X3X3X3X3X3X3X3X3X3X3X3X3X3X<XoXM j r a S D F L >.0.e.<.^ ~ ~ K 9 - = : > > < s B./.[.oX%X1X3X3X",
"3X3X3X3X3X3X3X3X3X3X3X3X3X3X3X3X3X1X1X3X3X3X3X3X3X3X3X3X3X3X1X[.j $ # 8 F T T ] <.0.0.<.^ Q Q F - . X X X X o y /.&X*X-X1X1X1X1X",
"3X3X3X3X3X3X3X3X3X3X3X3X3X3X3X3X3X1X1X3X3X3X3X3X3X3X3X3X3X3X1X[.j $ # 8 F T T ] <.e.0.>.~ Q Q F - o   X X X o y /.*X,X,X3X1X1X1X",
"3X3X3X3X3X3X3X3X3X3X3X3X3X3X3X3X3X<X3X3X3X3X3X3X3X3X3X3X3X3X1X{.m j r a S F F L -.<.<.-.L F F Z i 7 7 7 y y y n |.-X,X,X3X3X3X3X",
"3X3X3X3X3X3X3X3X1X1X1X1X3X3X3X3X3X3X3X3X3X3X3X3X3X3X3X3X,X1X1XOXXX[.'.N.a - 8 0 L ^ ^ L 9 ; ; z n._._.'.R.R.R.}.OX<X<X<X<X<X<X<X",
"3X3X3X3X3X3X3X3X1X1X1X1X3X3X3X3X3X3X3X3X3X3X3X3X3X3X3X3X1X1X1X1X>X>X;X'.r # # 8 G ! ! G ; & & h _.%X;X;X=X#X#X=X<X<X<X<X<X<X<X<X",
"3X3X3X3X3X3X3X3X1X*X1X1X3X3X3X3X3X3X3X3X3X3X3X3X3X3X3X3X1X1X1X1X1X>X>X[.r % # 8 G Q Q G , & & h ].;X3X3X=X=X=X-X<X<X<X<X<X<X<X<X",
"3X3X3X3X3X3X3X3X1X1X1X1X3X3X3X3X3X3X3X3X3X3X3X3X3X3X3X3X3X1X1X1X1X1X>XXXm r r a S G G S z h l M  X;X3X1X-X-X-X-X<X<X<X<X<X<X<X<X",
"3X3X3X3X3X3X<X<X<X<X3X3X3X3X3X3X3X3X3X3X3X3X3X3X3X3X3X3X3X3X3X3X,X,X>XOX|.[./.M.i : : i N.[.[.|.+X-X-X,X<X<X<X<X3X3X3X3X,X,X1X1X",
"3X3X3X3X3X1X1X3X3X3X3X3X3X3X3X3X3X3X3X3X3X3X3X3X3X3X3X3X3X3X3X3X,X,X,X,X,X1X*X/.y o o y /.&X*X-X-X$X$X-X<X<X<X<X3X3X3X1X,X>X>X>X",
"3X3X3X3X3X1X1X3X3X3X3X3X3X3X3X3X3X3X3X3X3X3X3X3X3X3X3X3X3X3X3X3X,X,X,X,X3X3X1X[.y X X y [.*X,X,X-X$X$X-X<X<X<X<X3X3X3X1X,X>X,X,X",
"3X3X3X3X3X1X1X3X3X3X3X3X3X3X3X3X3X3X3X3X3X3X3X3X3X3X3X3X3X3X3X3X,X,X,X,X3X3X1X[.y X X y [.*X,X,X-X$X$X-X<X<X<X<X3X3X3X1X,X>X,X,X"
};
