/* XPM */
static char *_0eb10500671446fb8955ddbc8a72b6aRnvv43H0a1qrAa8t[] = {
/* columns rows colors chars-per-pixel */
"64 64 206 2 ",
"   c #260C0C",
".  c #2F1614",
"X  c #281518",
"o  c #311716",
"O  c #321A16",
"+  c #351D1A",
"@  c #3C1E1C",
"#  c #3E221C",
"$  c #3F2A1F",
"%  c #361F20",
"&  c #3D2824",
"*  c #392932",
"=  c #41211F",
"-  c #412E1E",
";  c #442421",
":  c #4C2B25",
">  c #482D24",
",  c #532F26",
"<  c #542E2B",
"1  c #473525",
"2  c #4C3728",
"3  c #53332A",
"4  c #5B332D",
"5  c #5A3B2D",
"6  c #433037",
"7  c #5B3937",
"8  c #623A2E",
"9  c #693E2F",
"0  c #613631",
"q  c #653B32",
"w  c #6A3E34",
"e  c #663D3A",
"r  c #55452C",
"t  c #5B4435",
"y  c #5A4B32",
"u  c #5C5132",
"i  c #5E583D",
"p  c #6B402F",
"a  c #6E4136",
"s  c #6D443D",
"d  c #724437",
"f  c #73463B",
"g  c #764838",
"h  c #7B4B3B",
"j  c #655C38",
"k  c #6C633C",
"l  c #3D344B",
"z  c #493C4A",
"x  c #52475A",
"c  c #5E5C58",
"v  c #754B42",
"b  c #7B534D",
"n  c #69545C",
"m  c #65634E",
"M  c #716A41",
"N  c #777346",
"B  c #7E7E4A",
"V  c #6B6C5C",
"C  c #554C60",
"Z  c #5E5669",
"A  c #706C6E",
"S  c #777864",
"D  c #756C7A",
"F  c #7A767B",
"G  c #7A767C",
"H  c #814F3C",
"J  c #85513D",
"K  c #8B563F",
"L  c #8F593F",
"P  c #835547",
"I  c #8E5941",
"U  c #925B41",
"Y  c #835C57",
"T  c #95624B",
"R  c #976A5B",
"E  c #876769",
"W  c #926C66",
"Q  c #9C746A",
"!  c #897877",
"~  c #967A7D",
"^  c #A77C6B",
"/  c #84834D",
"(  c #89854E",
")  c #8D8C51",
"_  c #8F9355",
"`  c #969959",
"'  c #949A59",
"]  c #9BA25D",
"[  c #868C66",
"{  c #8B9468",
"}  c #868978",
"|  c #8D9B71",
" . c #8F917C",
".. c #94987C",
"X. c #AC8274",
"o. c #9CA563",
"O. c #96A66D",
"+. c #9EAA6C",
"@. c #9CB36B",
"#. c #9FBA6A",
"$. c #99A477",
"%. c #A5AB62",
"&. c #ABAF64",
"*. c #A7B268",
"=. c #ABB769",
"-. c #A2BF6A",
";. c #ADBA6B",
":. c #B2B969",
">. c #A0AC77",
",. c #A4AD79",
"<. c #A8B475",
"1. c #ADBD72",
"2. c #B0BE77",
"3. c #A6C16C",
"4. c #A9C36D",
"5. c #B5C16F",
"6. c #AEC770",
"7. c #B4C473",
"8. c #BDC672",
"9. c #B6CC74",
"0. c #B9CE75",
"q. c #BED177",
"w. c #C2CD75",
"e. c #C3D177",
"r. c #C2D479",
"t. c #C9D579",
"y. c #CCDA7C",
"u. c #D0DD7E",
"i. c #6F6482",
"p. c #74658D",
"a. c #7B6E8A",
"s. c #7E7686",
"d. c #7B6D94",
"f. c #7E7191",
"g. c #877D8E",
"h. c #9E7F81",
"j. c #857895",
"k. c #8B7C9B",
"l. c #8B8A86",
"z. c #998586",
"x. c #929385",
"c. c #8C8298",
"v. c #978898",
"b. c #96919C",
"n. c #A58686",
"m. c #B8948B",
"M. c #A48C98",
"N. c #B19392",
"B. c #958AA2",
"V. c #9786A9",
"C. c #9887AB",
"Z. c #9488AA",
"A. c #9C8CAC",
"S. c #9A92A2",
"D. c #9E95A7",
"F. c #A299AC",
"G. c #A495B4",
"H. c #A699B4",
"J. c #AB9CBC",
"K. c #ABA1B7",
"L. c #BAA8B7",
"P. c #B2A5BD",
"I. c #B1A9BA",
"U. c #BEAEBF",
"Y. c #C6ADAF",
"T. c #D3BCBB",
"R. c #AE9DC1",
"E. c #B09EC3",
"W. c #ADA2C0",
"Q. c #B3A5C2",
"!. c #B6A9C3",
"~. c #B9ACC4",
"^. c #BCADCA",
"/. c #BBB3C3",
"(. c #BEB2CA",
"). c #C2B6CF",
"_. c #C4B9CF",
"`. c #CDBECC",
"'. c #C4B5D3",
"]. c #C6BBD2",
"[. c #C9BCD6",
"{. c #CBBBDC",
"}. c #D5C4CC",
"|. c #CBC1D5",
" X c #CFC3DA",
".X c #D3C6D6",
"XX c #D1C6DC",
"oX c #D4C9DE",
"OX c #DBCED9",
"+X c #DED0DA",
"@X c #E4D4DB",
"#X c #D4C4E4",
"$X c #D3CAE1",
"%X c #D9CBE5",
"&X c #D7C7E8",
"*X c #DBCCEA",
"=X c #DCD2E5",
"-X c #DFD5E9",
";X c #E3D6EC",
":X c #E3DBEC",
">X c #E6DDF1",
",X c #EADFF5",
"<X c #EBE2EE",
"1X c #EBE3F3",
"2X c #EBE4F4",
"3X c #F2EAFA",
/* pixels */
"q.q.q.q.q.q.q.q.q.q.q.q.q.q.q.q.q.q.q.q.q.q.q.q.q.q.q.q.q.q.q.q.q.q.q.q.q.q.q.q.q.q.q.q.q.q.q.q.q.q.q.q.q.q.q.q.q.q.q.q.q.q.q.q.",
"q.q.q.q.q.q.q.q.q.q.q.q.q.q.q.q.q.q.q.q.q.q.q.q.q.q.q.q.q.q.q.q.q.q.q.q.q.q.q.q.q.q.q.q.q.q.q.q.q.q.q.q.q.q.q.q.q.q.q.q.q.q.q.q.",
"q.q.q.q.q.q.q.q.q.q.q.q.q.q.q.q.q.q.q.q.q.q.q.q.q.q.q.q.q.q.q.q.q.q.q.q.q.q.q.q.q.q.q.q.q.q.q.q.q.q.q.q.q.q.q.q.q.q.q.q.q.q.q.q.",
"q.q.q.q.q.q.q.q.q.q.q.q.q.q.q.q.q.q.q.q.q.q.q.q.q.q.q.q.q.q.q.q.q.q.q.q.q.q.q.q.q.q.q.q.0.9.9.9.9.9.9.9.9.0.q.q.q.q.q.q.q.q.q.q.",
"q.q.q.q.q.q.q.q.q.q.q.q.q.q.q.q.q.q.q.q.q.q.q.q.q.q.q.q.q.q.q.q.q.q.q.q.q.q.q.q.q.q.q.0.6.4.4.4.4.4.4.4.4.6.0.q.q.q.q.q.q.q.q.q.",
"q.q.q.q.q.q.0.9.9.9.9.9.9.0.q.q.q.q.q.q.q.q.q.q.q.q.q.q.q.q.q.q.q.q.q.q.q.q.q.q.0.9.9.9.3.-.-.-.-.-.-.-.-.3.9.0.q.q.q.q.q.q.q.q.",
"q.q.q.q.q.0.6.4.4.4.4.4.4.6.0.q.q.q.q.q.q.q.q.q.q.q.q.q.q.q.q.q.q.q.q.q.q.q.q.0.6.4.4.3.3.-.-.-.-.-.-.-.-.3.3.6.0.q.q.q.q.q.q.q.",
"q.q.q.q.0.9.3.-.-.-.-.-.-.3.9.9.9.0.q.q.q.q.q.q.q.q.q.q.q.q.q.q.q.q.q.q.q.q.0.9.3.-.-.-.-.-.-.-.-.-.-.-.-.-.-.4.9.q.q.q.q.q.q.q.",
"q.q.q.0.6.3.3.-.-.-.-.-.-.3.3.4.4.6.0.q.q.q.q.q.q.q.q.q.q.q.q.q.q.q.q.q.q.0.6.3.3.-.-.-.-.-.-.-.-.-.-.-.-.-.-.4.9.q.q.q.q.q.q.q.",
"q.q.q.9.4.-.-.-.-.-.-.-.-.-.-.-.-.3.9.0.q.q.q.q.q.q.q.q.q.q.q.q.q.q.q.q.q.9.4.-.-.-.-.-.-.-.-.-.-.-.-.-.-.-.-.4.9.q.q.q.q.q.q.q.",
"q.q.q.9.4.-.-.-.-.-.-.-.-.-.-.-.-.3.3.6.0.q.q.q.q.q.q.q.q.q.q.q.q.q.q.q.q.9.4.-.-.-.-.-.-.-.-.-.-.-.-.-.-.-.-.4.9.q.q.q.q.q.q.q.",
"q.q.q.9.4.-.-.-.-.-.-.-.-.-.-.-.-.-.-.4.9.q.q.q.q.q.q.q.q.q.q.q.q.q.q.q.q.0.6.3.3.-.-.-.-.-.-.-.-.-.-.-.-.3.3.6.0.q.q.q.q.q.q.q.",
"q.q.q.9.4.-.-.-.-.-.-.-.-.-.-.-.-.-.-.4.9.q.q.q.q.q.q.q.q.q.q.q.q.q.q.q.q.q.0.9.3.-.-.-.-.-.-.-.-.-.-.-.-.3.9.0.q.q.q.q.q.q.q.q.",
"q.q.q.9.4.-.-.-.-.-.-.-.-.-.-.-.-.-.-.4.9.q.q.q.q.q.q.q.q.q.q.q.q.q.q.q.q.q.q.0.6.4.4.4.4.4.4.4.4.4.4.4.4.6.0.q.q.q.q.q.q.q.q.q.",
"q.q.q.9.4.-.-.-.-.-.-.-.-.-.-.-.-.-.-.4.9.q.q.q.q.q.q.q.q.q.q.q.q.q.q.q.q.q.q.q.0.9.9.9.9.9.9.9.9.9.9.9.9.0.q.q.q.q.q.q.q.q.q.q.",
"q.q.q.0.6.3.3.-.-.-.-.-.-.-.-.-.-.3.3.6.0.q.q.q.q.q.q.q.q.q.q.q.q.q.q.q.q.q.q.q.q.q.q.q.q.q.q.q.q.q.q.q.0.9.9.9.9.0.q.q.q.q.q.q.",
"q.q.q.q.0.9.3.-.-.-.-.-.-.-.-.-.-.3.9.0.q.q.q.q.q.q.q.q.q.q.q.q.q.q.q.q.q.q.q.q.q.q.q.q.q.q.q.q.q.q.q.0.6.4.4.4.4.6.0.q.q.q.q.q.",
"q.q.q.q.q.0.6.4.4.4.4.4.4.4.4.4.4.6.0.q.q.q.q.q.q.q.q.q.q.q.q.q.q.9.2.<.>.>.>.>.>.>.>.>.,.<.7.q.q.q.0.9.3.-.-.-.-.3.9.0.q.q.q.q.",
"q.q.q.q.q.q.0.9.9.9.9.9.9.9.9.9.9.0.q.q.q.q.q.q.q.q.q.q.q.q.q.q.q.7...! G F F F F F F F F } ,.9.q.0.6.3.3.-.-.-.-.3.3.6.0.q.q.q.",
"q.q.q.q.q.q.q.q.q.q.q.q.q.q.q.q.q.q.0.9.9.9.9.9.9.0.0.9.7.7.7.7.7.<.l.a.p.p.p.p.p.p.p.p.p.s...1.7.9.4.-.-.-.-.-.-.-.-.4.9.q.q.q.",
"q.q.q.q.q.q.q.q.q.q.q.q.q.q.q.q.q.0.6.4.4.4.4.4.4.6.1.$. . . . . .x.D.K.W.W.W.W.W.W.W.W.W.H.x.[ O.1.4.-.-.-.-.-.-.-.-.4.9.q.q.q.",
"q.q.q.q.q.q.q.q.q.q.q.q.q.q.q.q.0.9.3.-.-.-.-.#.#.-.>.} i.i.i.i.i.j.!.-X>X>X>X>X>X>X>X>X1X Xv.Z S *.4.3.3.-.-.-.-.3.3.6.0.q.q.q.",
"q.q.q.q.q.q.q.q.q.q.q.q.q.q.q.0.6.3.3.-.-.#.O.| | | ..b.Z.Z.Z.Z.Z.G.].>X,X,X>X:X-X-X-X:X3X:XI.g.} { { 4.3.-.-.-.-.3.9.0.q.q.q.q.",
"q.q.q.q.q.q.q.q.q.q.q.q.q.q.q.9.4.-.-.-.-.@.} D D D c.I.oX$X$X$X$X$X%X*X*X*X#X{.).).).oX1X3X-X|.S.A c 1.6.4.4.4.4.6.0.q.q.q.q.q.",
"q.q.q.q.q.q.q.q.q.q.q.q.q.q.q.9.4.-.-.#.@.$.l.f.d.d.Z.[.2X3X3X3X3X2X;X&X#X#X{.'.~.!.Q._.=X2X3X1XK.Z l 1.0.9.9.9.9.0.q.q.q.q.q.q.",
"q.q.q.q.q.q.q.q.q.q.q.q.q.q.q.0.6.3.-.O.} l.F.!.^.^.'.$X-X>X>X>X>X>X-X*X*X*X#X{.'.^.!.^.].oX:X1XK.Z l 1.q.q.q.q.q.q.q.q.q.q.q.q.",
"q.q.q.q.q.q.q.q.q.q.q.q.q.q.q.q.0.6.#.| G j.!.;X1X1X>X*X&X*X*X*X*X*X*X*X*X*X#X#X{.^.Q.Q.~._.=X:XF.Z l 1.q.q.q.q.q.q.q.q.q.q.q.q.",
"q.q.q.q.q.q.q.q.q.q.q.q.q.q.q.q.9.+.[ } b.J.).oX=X=X%X%X&X*X*X*X*X*X*X%X#X{.'.^.Q.J.H.P.).XXoX Xv.x * ;.q.q.q.q.q.q.q.q.q.q.q.q.",
"q.q.q.q.q.q.q.q.q.q.q.q.q.q.q.q.7.[ c s./.=X|.(.(.(.'.XX*X*X*X*X*X*X&X#X{.(.Q.G.A.C.V.P.$X:XXX~.G 6 X =.q.q.q.q.q.q.q.q.q.q.q.q.",
"q.q.q.q.q.q.q.q.q.q.q.q.q.q.7.<.O.} D B.].=X].!.!.^.'. X*X#X#X{.'.^.^.Q.J.G.G.H.H.H.J.^.$X%XU.v.n &   =.q.q.q.q.q.q.q.q.q.q.q.q.",
"q.q.q.q.q.q.q.q.q.q.q.q.q.q.=.[ S l.I.(._.].^.!.^.'.{.#X#X{.'.P.A.c.k.k.j.j.B.~.XX$X$XXX X~.M.E t +   =.q.q.q.q.q.q.q.q.q.q.q.q.",
"q.q.q.q.q.q.q.q.q.q.q.q.q.q.+.V C S.-X;X[.~.!.P.^.'.{.{.{.^.P.A.k.a.a.a.a.a.B.].1X<X:X.X~.M.E f < o   =.q.q.q.q.q.q.q.q.q.q.q.q.",
"q.q.q.q.q.q.q.q.q.q.q.q.q.q.+.V x S.;X2X-X X!.G.G.J.E.E.R.H.G.H.K.P.P.P.P.P.~.]. XT.Y.N.h.E b q : o   =.q.q.q.q.q.q.q.q.q.q.q.q.",
"q.q.q.q.q.q.q.q.q.q.q.q.q.q.+.V x B.;X3X3X;X^.A.V.C.C.C.C.V.V.P.XX:X:X:X:X:X=X].L.n.R T P v e 4 ; .   =.q.q.q.q.q.q.q.q.q.q.q.q.",
"q.q.q.q.q.q.q.q.q.q.q.q.q.q.o.m z g.|.>X3X2X X!.Q.Q.Q.Q.Q.Q.Q.).oX=X}.T.T.T.Y.N.z.W I h d q 4 < ; .   =.q.q.q.q.q.q.q.q.q.q.q.q.",
"q.q.q.q.q.q.q.q.q.q.q.q.q.q.o.i * A P.oX1X3X>X-X=X=X=X=X=X=X=XoX[.U.N.X.^ ^ ^ R Y b h d q 4 4 < ; .   =.q.q.q.q.q.q.q.q.q.q.q.q.",
"q.q.q.q.q.q.q.q.q.q.q.q.q.q.' u % n v.L.`.OXOX+XOXOXOX@X@X@X@X}.L.M.Q U U U K H h d a w 0 4 < : : > - ;.q.q.q.q.q.q.q.q.q.q.q.q.",
"q.q.q.q.q.q.r.r.r.r.r.r.r.r.] u + 7 E ! ~ ~ n.n.n.~ z.n.m.m.m.m.X.Q R U U U I K H d q q q 0 : ; y N / 9.r.r.q.q.q.q.q.q.q.q.q.q.",
"q.q.q.q.q.r.t.y.y.y.y.y.y.y.%.j # 3 s s e e s v f e s P T T T T T U U U U U U I K d 0 0 w q ; + j %.w.t.y.t.r.q.q.q.q.q.q.q.q.q.",
"q.q.q.q.r.t.y.u.u.u.u.u.u.u.:.) k y 3 < < 4 0 q w a d h J K U U U U U U U U I K J h d w w 4 = O k :.u.u.u.y.t.r.r.r.q.q.q.q.q.q.",
"q.q.q.r.t.y.y.u.u.u.u.u.u.u.t.8.%.M $ @ : < 4 4 w H J h h J I U U U U U U U K H h h J h q < @ O k :.u.u.u.y.y.y.y.t.r.q.q.q.q.q.",
"q.q.q.r.y.u.u.u.u.u.u.u.u.u.u.u.w.) y 2 : : < 4 w h H h h J I U U U U U U U K J h H J d 4 : 2 r / 5.u.u.u.u.u.u.u.y.t.r.q.q.q.q.",
"q.q.q.r.y.u.u.u.u.u.u.u.u.u.u.u.t.;.' M 2 @ < q w w d h K K U U U U U U U U U K J J h q ; > k ' =.e.u.u.u.u.u.u.u.y.y.t.r.q.q.q.",
"q.q.q.r.t.y.y.u.u.u.u.u.u.u.u.y.y.t.0._ y & 3 q 0 < 4 h K U U U U U U U U I K J H h a 5 > r ) w.y.u.u.u.u.u.u.u.u.u.u.y.r.q.q.q.",
"q.q.q.q.r.t.y.u.u.u.u.u.u.u.u.y.t.r.q.*./ k y : ; = : w J K U U U U U U K J h 9 4 , : t k ( &.t.u.u.u.u.u.u.u.u.u.u.u.y.r.q.q.q.",
"q.q.q.q.q.r.t.y.y.y.y.y.y.y.y.t.r.q.q.9.5.] j # o . # 4 g H K L L L L L J h q > + o + y ' w.t.y.u.u.u.u.u.u.u.u.u.y.y.t.r.q.q.q.",
"q.q.q.q.q.q.r.r.r.r.r.r.r.r.r.r.q.q.q.q.q.;./ j u u y 5 4 8 9 p p p p 9 8 4 5 y u u u B ;.u.u.u.u.u.u.u.u.u.u.u.u.y.t.r.q.q.q.q.",
"q.q.q.q.q.q.q.q.q.q.q.q.q.q.q.q.q.q.r.r.r.0.=.o.] ] / y # @ # # # # # # @ @ 2 N ' ] ] *.8.y.y.y.y.y.y.y.y.y.y.y.y.t.r.q.q.q.q.q.",
"q.q.q.q.q.q.q.q.q.q.q.q.q.q.q.q.q.r.t.y.y.y.y.y.y.t.%.k 1 - - - - - - - - - u ' 0.q.q.q.r.r.r.r.r.r.r.r.r.r.r.r.r.r.q.q.q.q.q.q.",
"q.q.q.q.q.q.q.q.q.q.q.q.q.q.r.r.r.t.y.u.u.u.u.u.u.y.5.' / B B B B B B B B B _ ;.e.r.r.r.r.r.q.q.q.q.q.q.q.q.q.q.q.q.q.q.q.q.q.q.",
"q.q.q.q.q.q.q.q.q.q.q.q.q.r.t.y.y.y.y.u.u.u.u.u.u.y.t.w.7.7.7.7.7.7.7.7.7.7.w.t.y.y.y.y.y.t.r.q.q.q.q.q.q.q.q.q.q.q.q.q.q.q.q.q.",
"q.q.q.q.q.q.q.q.q.q.q.q.q.r.y.u.u.u.u.u.u.u.u.u.u.u.u.y.r.q.q.q.q.q.q.q.r.t.y.u.u.u.u.u.u.y.t.r.q.q.q.q.q.q.q.q.q.q.q.q.q.q.q.q.",
"q.q.q.q.q.q.q.q.q.q.q.q.q.r.y.u.u.u.u.u.u.u.u.u.u.u.u.y.r.q.q.q.q.q.q.r.t.y.y.u.u.u.u.u.u.y.y.t.r.q.q.q.q.q.q.q.q.q.q.q.q.q.q.q.",
"q.q.q.q.r.r.r.r.r.r.q.q.q.r.t.y.y.u.u.u.u.u.u.u.u.y.y.t.r.q.q.q.q.q.q.r.y.u.u.u.u.u.u.u.u.u.u.y.r.q.q.q.q.q.q.q.q.q.q.q.q.q.q.q.",
"q.q.q.r.t.y.y.y.y.t.r.q.q.q.r.t.y.u.u.u.u.u.u.u.u.y.t.r.q.q.q.q.q.q.q.r.y.u.u.u.u.u.u.u.u.u.u.y.r.q.q.q.q.q.q.q.q.q.q.q.q.q.q.q.",
"q.q.r.t.y.u.u.u.u.y.t.r.q.q.q.r.t.y.y.y.y.y.y.y.y.t.r.q.q.q.q.q.q.q.q.r.t.y.y.u.u.u.u.u.u.y.y.t.r.q.q.q.q.q.q.q.q.q.q.q.q.q.q.q.",
"q.r.t.y.y.u.u.u.u.y.y.t.r.q.q.q.r.r.r.r.r.r.r.r.r.r.q.q.q.q.q.q.q.q.q.q.r.t.y.u.u.u.u.u.u.y.t.r.q.q.q.q.q.q.q.q.q.q.q.q.q.q.q.q.",
"q.r.y.u.u.u.u.u.u.u.u.y.r.q.q.q.q.q.q.q.q.q.q.q.q.q.q.q.q.q.q.q.q.q.q.q.q.r.t.y.y.y.y.y.y.t.r.q.q.q.q.q.q.q.q.q.q.q.q.q.q.q.q.q.",
"q.r.y.u.u.u.u.u.u.u.u.y.r.q.q.q.q.q.q.q.q.q.q.q.q.q.q.q.q.q.q.q.q.q.q.q.q.q.r.r.r.r.r.r.r.r.q.q.q.q.q.q.q.q.q.q.q.q.q.q.q.q.q.q.",
"q.r.t.y.y.u.u.u.u.y.y.t.r.q.q.q.q.q.q.q.q.q.q.q.q.q.q.q.q.q.q.q.q.q.q.q.q.q.q.q.q.q.q.q.q.q.q.q.q.q.q.q.q.q.q.q.q.q.q.q.q.q.q.q.",
"q.q.r.t.y.u.u.u.u.y.t.r.q.q.q.q.q.q.q.q.q.q.q.q.q.q.q.q.q.q.q.q.q.q.q.q.q.q.q.q.q.q.q.q.q.q.q.q.q.q.q.q.q.q.q.q.q.q.q.q.q.q.q.q.",
"q.q.q.r.t.y.y.y.y.t.r.q.q.q.q.q.q.q.q.q.q.q.q.q.q.q.q.q.q.q.q.q.q.q.q.q.q.q.q.q.q.q.q.q.q.q.q.q.q.q.q.q.q.q.q.q.q.q.q.q.q.q.q.q.",
"q.q.q.q.r.r.r.r.r.r.q.q.q.q.q.q.q.q.q.q.q.q.q.q.q.q.q.q.q.q.q.q.q.q.q.q.q.q.q.q.q.q.q.q.q.q.q.q.q.q.q.q.q.q.q.q.q.q.q.q.q.q.q.q.",
"q.q.q.q.q.q.q.q.q.q.q.q.q.q.q.q.q.q.q.q.q.q.q.q.q.q.q.q.q.q.q.q.q.q.q.q.q.q.q.q.q.q.q.q.q.q.q.q.q.q.q.q.q.q.q.q.q.q.q.q.q.q.q.q."
};
