/* XPM */
static char *_b3a102f8e4f466e9526151d4edddb8d4DXMLqnYm5eZb7AT[] = {
/* columns rows colors chars-per-pixel */
"64 64 201 2 ",
"   c #7E6A74",
".  c #6B7672",
"X  c #6E7A72",
"o  c #7E7677",
"O  c #777B77",
"+  c #956B5F",
"@  c #9F745F",
"#  c #A0755F",
"$  c #A5785E",
"%  c #A97A5E",
"&  c #865D72",
"*  c #955672",
"=  c #945A73",
"-  c #985973",
";  c #826E66",
":  c #946C60",
">  c #996D60",
",  c #8A7767",
"<  c #8E7865",
"1  c #9A7062",
"2  c #9C7D66",
"3  c #8D6475",
"4  c #876875",
"5  c #936576",
"6  c #946A77",
"7  c #9B6B77",
"8  c #996C79",
"9  c #8A7577",
"0  c #8F7A7B",
"q  c #93727A",
"w  c #937D7E",
"e  c #9C7D7B",
"r  c #A17563",
"t  c #A47A63",
"y  c #AB7E63",
"u  c #A56676",
"i  c #A86576",
"p  c #A66B79",
"a  c #AC6A79",
"s  c #B26E7A",
"d  c #A4747A",
"f  c #A47A7B",
"g  c #AB7B7E",
"h  c #B5737D",
"j  c #B9737D",
"k  c #658279",
"l  c #6A877B",
"z  c #6C8C7B",
"x  c #748D76",
"c  c #748279",
"v  c #778578",
"b  c #738D7B",
"n  c #7A8D7B",
"m  c #6E947C",
"M  c #7A9376",
"N  c #73947C",
"B  c #789579",
"V  c #7B957A",
"C  c #769B7F",
"Z  c #88806B",
"A  c #9D8167",
"S  c #9E8C6A",
"D  c #8B877C",
"F  c #98847D",
"G  c #819777",
"H  c #829C73",
"J  c #809579",
"K  c #839B7A",
"L  c #899F79",
"P  c #AF8263",
"I  c #A38468",
"U  c #A78669",
"Y  c #B18463",
"T  c #B58967",
"R  c #B58A69",
"E  c #BA8E6A",
"W  c #A5956D",
"Q  c #BE936D",
"!  c #A4847E",
"~  c #AD817F",
"^  c #BD9D71",
"/  c #92AE6E",
"(  c #96B16C",
")  c #99B46C",
"_  c #9FBB6B",
"`  c #88A372",
"'  c #8CA970",
"]  c #8DA37A",
"[  c #91A576",
"{  c #95AD77",
"}  c #94A97A",
"|  c #98AA7A",
" . c #99B272",
".. c #9DB278",
"X. c #A2BF6A",
"o. c #ABA671",
"O. c #BFA271",
"+. c #B2AB74",
"@. c #BBAA74",
"#. c #A5B477",
"$. c #A5BA76",
"%. c #ABBE77",
"&. c #AABD7A",
"*. c #B5B476",
"=. c #B9B576",
"-. c #B2BC77",
";. c #BEBB75",
":. c #BABC79",
">. c #C1976F",
",. c #C2996F",
"<. c #C29970",
"1. c #C0A172",
"2. c #A6C16C",
"3. c #A9C36D",
"4. c #AEC473",
"5. c #AEC07A",
"6. c #B2C477",
"7. c #B6CC74",
"8. c #BACD76",
"9. c #B2C279",
"0. c #BAC77C",
"q. c #B7C878",
"w. c #BCCC7A",
"e. c #BED177",
"r. c #BED078",
"t. c #C2CC7E",
"y. c #C3D479",
"u. c #C9D57D",
"i. c #CCDA7D",
"p. c #D0DD7E",
"a. c #AC7D80",
"s. c #B57A81",
"d. c #B97B82",
"f. c #C07C84",
"g. c #769581",
"h. c #7A9581",
"j. c #769B80",
"k. c #7A9D81",
"l. c #7BA081",
"z. c #938781",
"x. c #869C83",
"c. c #929384",
"v. c #939D85",
"b. c #9B9986",
"n. c #AC8381",
"m. c #A28C81",
"M. c #AB8A82",
"N. c #B38B84",
"B. c #B98886",
"V. c #A19283",
"C. c #A99B87",
"Z. c #B59587",
"A. c #82A385",
"S. c #88A787",
"D. c #85A986",
"F. c #86A688",
"G. c #8BAC8A",
"H. c #95A287",
"J. c #9BA48A",
"K. c #95AE8B",
"L. c #9AAA8A",
"P. c #8EB18B",
"I. c #94B58E",
"U. c #9BB48E",
"Y. c #96B88F",
"T. c #99BA8F",
"R. c #97BA90",
"E. c #9BBD91",
"W. c #A5AB8D",
"Q. c #B6A58A",
"!. c #A7B18E",
"~. c #BAB08F",
"^. c #A5B691",
"/. c #ABBC93",
"(. c #C4868B",
"). c #C5888B",
"_. c #C98A8E",
"`. c #C69292",
"'. c #CE9394",
"]. c #D39496",
"[. c #D4999A",
"{. c #DBA3A0",
"}. c #9EC092",
"|. c #A3C594",
" X c #ABC395",
".X c #A6C996",
"XX c #A9CC97",
"oX c #ABCE99",
"OX c #BBC695",
"+X c #B5C997",
"@X c #ADD19A",
"#X c #ADD29B",
"$X c #B1D49B",
"%X c #B2D59B",
"&X c #B6D69B",
"*X c #BBD69A",
"=X c #B6D89B",
"-X c #BAD99B",
";X c #BCDB9C",
":X c #BEDC9C",
">X c #C0DD9C",
/* pixels */
"e.e.e.e.e.e.e.e.e.e.e.e.e.e.e.e.e.e.e.e.e.e.e.e.e.e.e.e.e.e.e.e.e.e.e.e.e.e.e.e.e.e.e.e.e.e.e.e.e.e.e.e.e.e.e.e.e.e.e.e.e.e.e.e.",
"e.e.e.e.e.e.e.e.e.e.e.e.e.e.e.e.e.e.e.e.e.e.e.8.6.%.%.%.%.%.%.%.%.%.%.%.&.%.%.%.%.6.8.e.e.e.e.e.e.e.e.e.e.e.e.e.e.e.e.e.e.e.e.e.",
"e.e.e.e.e.e.e.e.e.e.e.e.e.e.e.e.e.e.e.e.e.e.e.5.[ G G G G G G G G G G G G G G G G } 6.e.e.e.e.e.e.e.e.e.e.e.e.e.e.e.e.e.e.e.e.e.",
"e.e.e.e.e.e.e.e.e.e.e.e.e.e.e.e.e.e.e.8.6.%.%...B b b b b b b b b b b b b b z z z K ..5.7.7.7.7.7.7.7.7.7.8.e.e.e.e.e.e.e.e.e.e.",
"e.e.e.e.e.e.e.e.e.e.e.e.e.e.e.e.e.e.e.5.[ G G K A.F.G.I.I.I.I.I.I.I.I.I.I.G.F.A.A.A.K [ $.3.3.3.3.3.3.3.3.4.8.e.e.e.e.e.e.e.e.e.",
"e.e.e.e.e.e.8.7.7.7.7.7.7.8.e.8.6.%.%...B b b k.P.E..XoXoX@X@X@X@XoXoXoXoXXX|.E.T.G.h.B ' ( ( ) _ X.X.X.X.2.7.8.e.e.e.e.e.e.e.e.",
"e.e.e.e.e.8.4.3.3.3.3.3.3.4.8.5.[ G G K A.F.G.R.|..XoX%X=X-X-X-X-X&X%X%X=X&X%XoX.XE.G.k.B x M H ) X.X.X.X.2.2.4.8.e.e.e.e.e.e.e.",
"e.e.e.e.8.7.2.X.X.X.X.X.X.X.$.{ B b b k.P.E..XoXoX@X@X%X-X>X>X>X:X-X%X%X-X:X:X-X%X.XE.G.h.z z M ' ) _ X.X.X.X.3.7.e.e.e.e.e.e.e.",
"e.e.e.8.4.2.2.X.X.X.X.X.X.( H B x.F.G.R.|..XoX@X@X@X@X%X;X>X>X>X>X-X%X%X;X>X>X-X%XoX.XE.S.A.A.x.B H ) X.X.X.X.3.7.e.e.e.e.e.e.e.",
"e.e.e.7.3.X.X.X.X.X.X._ ) ' B h.G.}.XX@X@X%X%X%X@X@X%X&X;X>X>X:X:X-X%X%X-X;X;X-X%X@X@X.XE.R.T.G.h.M ' ) _ X.X.3.7.e.e.e.e.e.e.e.",
"e.e.e.7.3.X.X.X.X.X.X.( H B A.G.E.oX&X-X-X-X-X&X%X%X=X-X:X>X>X;X&X%X@X@X%X%X%X%X@X@X@XoX.X.X.XE.G.k.B H ) X.X.3.7.e.e.e.e.e.e.e.",
"e.e.e.7.3.X.X.X.X._ ) ' B h.S.E..X%X-X>X>X>X:X-X&X&X;X>X>X:X:X-X%X@X@X@X%X%X%X%X%X%X@X@X@X@X@X.XR.S.C M ' ) X.4.8.e.e.e.e.e.e.e.",
"e.e.e.7.3.X.X.X.X.( H B A.S.I.E..X%X;X>X>X>X>X:X-X-X:X>X>X;X&X%X@X@X@X%X=X-X-X-X-X&X%X@X@X@X@X.XE.I.D.k.B ` $.8.e.e.e.e.e.e.e.e.",
"e.e.e.7.3.X.X.X.X./ x b S.R.E.}.oX%X-X;X;X:X:X>X>X:X:X;X;X-X%X@X@X@X@X%X-X*X+XOXOX+X%XoX X/./.^.T.I.I.F.z M $.e.e.e.e.e.e.e.e.e.",
"e.e.e.7.3.X.X.X.X./ x b I..X.X.XoX@X%X%X&X=X:X>X>X;X&X%X%X%X@X@X@X@X@X%X;XOXQ.N.N.Q.OXOXC.M.! V.L.Y.I.F.z M $.e.e.e.e.e.e.e.e.e.",
"e.e.e.8.4.2.2._ ( ' B k.E.oX@X@X@X@X@X@X@X%X-X;X;X-X%X@X@X@X@X@X@X@X@XoXOX~.B.d.s.N.~.~.~ a i d c.K.U.G.g.B { %.7.8.e.e.e.e.e.e.",
"e.e.e.e.8.7.2.( H B A.G..X@X@X@X@X@X@X@X@X@X%X%X%X%X@X@X@X@X@X@X@X@X@X/.C.Z.'.]._.(.B.N.j h s p q z.U.E.G.x.B ` _ 4.8.e.e.e.e.e.",
"e.e.e.e.e.8.3. .x b S.E..X@X@X@X@X@X@X@X@X@X@X@X@X@X@X@X@X@X@X@X@X@X@X^.~ d.[.{.].).j h h j j a = q ^..XR.F.z x / 2.7.8.e.e.e.e.",
"e.e.e.e.e.e.7...x z S.E..X@X@X@X@X@X@X@X@X@X@X@X@X@X@X@X@X@X@X@X@X@X@X!.f h '.[._.f.j h j j j a = q ^..XR.F.z x / 2.2.4.8.e.e.e.",
"e.e.e.e.e.e.8.$.x z S.E..X.X/././. XoXoX X/././..XoXoX@X@X@X@X@X@X@X@X^.M.a.(.).f.j j j j j s p 5 w ^..XR.F.z x / X.X.3.7.e.e.e.",
"e.e.e.e.e.e.8.$.x z S.R.E.!.C.M.M.C. X/.C.M.! V.U..XoX@X@X@X@X@X@X@X@X.X!.C.s.h j j s s h s u 6 z.v.U.E.Y.F.z x / X.X.3.7.e.e.e.",
"e.e.e.e.e.e.8.$.x z S.U.L.C.N.s.s.N.W.W.~ a i d b.U..X@X@X@X@X@X@X@X@X@XoX!.! d a a i i a p 8 w H.I.I.I.G.A.B M ( 2.2.4.8.e.e.e.",
"e.e.e.e.e.e.8.$.n z S.L.V.N.`.'._.(.N.n.h h s p q z.^.@X@X@X@X@X@X@X@X@X@X XJ.F 7 - * * - 8 b.L.U.Y.I.G.k.B ` / _ 2.7.8.e.e.e.e.",
"e.e.e.e.e.e.8.$.n z S.H.f d.[.{.].).j h h j j a = q W.XXXXXXXXoXoX@X@XoXoX.XE.H.w 5 5 5 3 w W.|.R.Y.I.F.z x  .2.3.4.8.e.e.e.e.e.",
"e.e.e.e.e.e.8.$.x z S.v.d h '.[._.f.j h j j j a = 6 H.}.}.}.}..XoX@X@XoX.X|..X^.W.J.J.b.c.v.U.E.R.Y.I.F.z M $.7.7.8.e.e.e.e.e.e.",
"e.e.e.e.e.e.8.%.K B F.v.e g (.).f.j j j j j s p 5 0 H.Y.Y.Y.Y.E..XXX.X.XE.E..X.X.X.X.X|.U.I.I.Y.Y.Y.I.S.g.B ..6.8.e.e.e.e.e.e.e.",
"e.e.e.e.e.e.e.7.$.} B h.c.m.g h j j s s h s u 6 z.v.K.Y.Y.Y.Y.R.E.}.}.E.R.R.E.}.}.}.}.E.R.Y.Y.Y.Y.Y.I.I.S.A.K } 6.e.e.e.e.e.e.e.",
"e.e.e.e.e.e.e.8.8.#.B b S.H.F d a a i i a p 5 0 H.I.I.Y.Y.Y.Y.Y.Y.Y.Y.Y.Y.Y.Y.Y.Y.Y.Y.Y.Y.Y.Y.Y.Y.Y.I.I.I.F.b B %.e.e.e.e.e.e.e.",
"e.e.e.e.e.e.e.e.8.$.x z S.K.v.F 7 - * * - 6 z.v.K.Y.Y.Y.Y.Y.Y.Y.Y.Y.Y.Y.Y.Y.Y.Y.Y.Y.Y.Y.Y.Y.Y.Y.Y.Y.Y.Y.I.F.z M &.e.e.e.e.e.e.e.",
"e.e.e.e.e.e.e.8.5.{ B b S.I.I.v.q 3 3 3 3 0 H.I.I.Y.Y.Y.Y.Y.Y.Y.Y.Y.Y.Y.Y.Y.Y.Y.Y.Y.Y.Y.Y.Y.Y.Y.Y.Y.I.I.P.A.l M &.e.e.e.e.e.e.e.",
"e.e.e.e.e.e.e.5.[ B b g.G.Y.I.K.v.c.c.c.c.v.K.Y.Y.Y.Y.Y.Y.Y.Y.Y.Y.Y.Y.Y.Y.Y.Y.Y.Y.Y.Y.Y.Y.Y.Y.Y.Y.Y.I.P.D.N l M &.e.e.e.e.e.e.e.",
"e.e.e.e.e.e.8.$.M k z C D.P.P.P.I.I.G.G.G.G.I.Y.I.I.P.P.P.P.P.P.I.Y.Y.Y.Y.Y.Y.Y.I.I.P.P.P.P.P.P.P.P.P.D.C z k M &.e.e.e.e.e.e.e.",
"e.e.e.e.e.e.8.$.x k z N k.l.l.D.P.P.D.l.l.D.P.Y.I.P.D.l.l.l.l.D.P.Y.Y.Y.Y.Y.Y.Y.I.P.D.l.l.l.l.l.l.l.l.k.N z k M &.e.e.e.e.e.e.e.",
"e.e.e.e.e.e.8.$.x k z m m m N k.G.G.k.m N k.G.Y.I.G.k.m m m N k.H.J.L.L.I.I.L.J.H.S.C m N N m N m m m m m z k M &.e.e.e.e.e.e.e.",
"e.e.e.e.e.e.8.$.x k z m m m m k.G.G.C m m k.G.Y.I.G.C m m m m n F ! ! V.L.L.m.! e D n m m m m m m m m m m z k M &.e.e.e.e.e.e.e.",
"e.e.e.e.e.e.8.$.x k z m m m m C D.D.C m m C D.P.P.D.l.j.C C n D a.s.j n.V.b.g a u 6 O b C j.C C N m m m m z b L 5.e.e.e.e.e.e.e.",
"e.e.e.e.e.e.8.$.x k z m m m m N k.k.N m m N k.l.l.l.D.S.S.x.F n.`.'._.B.n.g h h s p 4 9 x.S.D.D.C m m z l B [ $.7.e.e.e.e.e.e.e.",
"e.e.e.e.e.e.e.%.L b z m m m m N C j.j.j.C C N m N k.D.P.G.v.f s.[.{.].).j h h j j a = 4 x.G.G.D.C m m z k B $.8.e.e.e.e.e.e.e.e.",
"e.e.e.e.e.y.y.y.9.} B l z m m C D.S.S.S.D.D.C m m N k.l.k.D 7 h '.[._.f.j h j j j a * 4 n l.l.k.N m m z k B &.e.e.e.e.e.e.e.e.e.",
"e.e.e.e.y.y.i.i.u.&.B k z m m C D.G.G.G.G.D.C m m m m m N n 9 d B.).f.j j j j j s u &   v m m m m m m z k B 5.y.y.y.e.e.e.e.e.e.",
"e.e.e.y.u.i.i.p.i.9.B k z m m N k.l.l.l.l.k.N m m m m m m b v 0 d h j j s s h s u 3 o c b m m m m m m z k J 9.i.i.u.y.e.e.e.e.e.",
"e.e.e.y.i.p.p.p.i.0.] b m m m m m m m m m m m m m m m m m m N v 9 7 p a i i a p 3   c m m m m m m m m z x [ 0.p.p.i.y.y.e.e.e.e.",
"e.e.e.y.i.p.p.p.i.u.9.| B l z m m m m m m m m m m m m m m m m b v 9 5 - * * = 3 o c b m m m m m m z k B | 0.u.p.p.i.i.u.y.e.e.e.",
"e.e.e.y.u.i.i.p.p.i.u.9.] x m z z m m m m m m m m m m m m m m m N c 4 & & & &   c m m m z z z z z z B ] 0.i.i.p.p.p.p.u.y.e.e.e.",
"e.e.e.e.y.y.i.p.p.i.i.u.9.| B k k l z m m m m m m m m m m m m m m b c O O O O c b m m z l k k k l B ..0.u.p.p.p.p.p.p.u.y.e.e.e.",
"e.e.e.e.e.y.u.u.u.u.u.u.y.9.L x x b z z z z z z z z z z z z z z z z z z z z z z z z z z x n n n B ] 0.i.i.p.p.p.p.i.i.u.y.e.e.e.",
"e.e.e.e.e.e.y.y.y.y.y.y.y.w.&.#...] b k k k k k k k k k k k k k k k k k k k k k k k l B | &.&.&.&.0.u.p.p.p.p.p.p.i.y.y.e.e.e.e.",
"e.e.e.e.e.e.e.e.e.e.r.r.r.8.8.8.8.$.L x x x x c X . X X X X X X X X X X X X . X c x x L 9.y.y.y.y.u.u.u.u.u.u.u.u.u.y.e.e.e.e.e.",
"e.e.e.e.e.e.e.e.e.e.e.e.e.e.e.e.e.w.%.$.$.$.$.| , ; , < < < < < < < < < < , ; Z [ ....$.8.y.y.y.y.y.y.y.y.y.y.y.y.y.e.e.e.e.e.e.",
"e.e.e.e.e.e.e.e.e.e.e.e.e.e.y.y.y.y.u.u.u.u.u.=.A + # $ $ $ $ $ $ $ $ $ $ @ : A *.w.w.r.y.y.e.e.e.e.e.e.e.e.e.e.e.e.e.e.e.e.e.e.",
"e.e.e.e.e.e.e.e.e.e.e.e.e.y.u.i.i.i.i.p.p.p.i.;.A + t y % % % % % % % % y t : I ;.i.i.i.i.u.y.e.e.e.e.e.e.e.e.e.e.e.e.e.e.e.e.e.",
"e.e.e.e.e.e.e.e.e.e.e.e.e.y.i.p.p.p.p.p.p.i.i.;.2 > y Y y % % % % % % y Y y > I ;.i.i.p.p.i.y.y.e.e.e.e.e.e.e.e.e.e.e.e.e.e.e.e.",
"e.e.e.e.e.e.e.e.e.e.e.e.e.y.i.p.p.p.p.p.p.i.u.*.2 > y Y Y P P P P P P Y Y y > A =.u.i.p.p.i.i.u.y.e.e.e.e.e.e.e.e.e.e.e.e.e.e.e.",
"e.e.e.e.y.y.y.y.y.y.e.e.e.y.u.i.i.i.i.i.i.u.t.+.2 > y T T T T T T R R R R y > A *.u.u.i.i.i.i.u.y.e.e.e.e.e.e.e.e.e.e.e.e.e.e.e.",
"e.e.e.y.u.i.i.i.i.u.y.e.e.e.y.y.i.i.u.u.u.u.t.+.2 > y R E E T R Q Q Q Q Q U 1 A *.t.u.u.u.u.i.u.y.e.e.e.e.e.e.e.e.e.e.e.e.e.e.e.",
"e.e.y.y.i.p.p.p.p.i.y.y.e.e.e.y.u.u.w.w.w.0.*.o.t r P E Q Q E E Q >.>.>.>.R t I o.:.w.t.t.t.u.u.y.e.e.e.e.e.e.e.e.e.e.e.e.e.e.e.",
"e.y.u.i.i.p.p.p.p.i.i.u.y.e.e.8.w.0.9.9.9.+.W I U R E Q >.>.Q Q >.<.<.<.>.Q R U U W :.t.t.t.w.w.w.e.e.e.e.e.e.e.e.e.e.e.e.e.e.e.",
"e.y.i.p.p.p.p.p.p.p.p.u.y.e.e.8.6.9.9.9.9.o.S I E Q >.>.>.>.>.>.>.<.<.<.>.>.Q E I W *.w.w.0.9.6.8.e.e.e.e.e.e.e.e.e.e.e.e.e.e.e.",
"e.y.i.p.p.p.p.p.p.p.p.u.y.e.e.8.9.9.9.9.9.%.o.o.^ <.<.<.<.<.<.<.<.<.<.<.<.<.,.^ o.o.-.9.9.9.9.9.8.e.e.e.e.e.e.e.e.e.e.e.e.e.e.e.",
"e.y.u.i.i.p.p.p.p.i.i.u.y.e.e.8.6.9.9.9.9.9.-.*.@.O.O.O.O.<.<.<.,.<.^ O.O.O.1.@.*.-.-.9.9.9.9.9.8.e.e.e.e.e.e.e.e.e.e.e.e.e.e.e.",
"e.e.y.y.i.p.p.p.p.i.y.y.e.e.e.8.8.q.9.9.9.9.9.-.*.*.*.*.=.@.<.<.<.O.@.*.*.*.=.*.-.9.9.9.9.9.8.8.r.e.e.e.e.e.e.e.e.e.e.e.e.e.e.e.",
"e.e.e.y.u.u.u.u.u.u.y.e.e.e.e.e.e.8.6.9.9.9.9.9.-.-.-.-.-.*.@.O.1.@.*.-.-.-.-.-.9.9.9.9.9.q.8.e.e.e.e.e.e.e.e.e.e.e.e.e.e.e.e.e.",
"e.e.e.e.y.y.y.y.y.y.e.e.e.e.e.e.e.8.8.8.8.q.9.9.9.9.9.9.9.-.*.*.=.*.-.9.9.9.9.9.9.9.8.8.8.8.r.e.e.e.e.e.e.e.e.e.e.e.e.e.e.e.e.e.",
"e.e.e.e.e.e.e.e.e.e.e.e.e.e.e.e.e.e.e.e.e.8.9.9.9.9.9.9.9.9.-.-.-.-.9.9.9.9.9.9.9.9.8.e.e.e.e.e.e.e.e.e.e.e.e.e.e.e.e.e.e.e.e.e."
};
