/* XPM */
static const char *d2FsbF8x[] = {
/* columns rows colors chars-per-pixel */
"64 64 9 1 ",
"  c gray67",
". c #AFAFAF",
"X c gray69",
"o c #B4B4B4",
"O c gray72",
"+ c #BCBCBC",
"@ c #C0C0C0",
"# c gray77",
"$ c #C8C8C8",
/* pixels */
"XXXXXooooOOOooooooooooooOOooOOOOooooXXooooooXXXXooXX.....XXX....",
"XXXXXoooooOOooooooooooooOOooOOOOooooXXooooooXXXXooXX......XX....",
"XXXXXoooooooooooooooooooOoooOOOOooooXXXoooooXXXXXooX............",
"XXXXXooooooooooooooooooooooooooooooooXooooooXXXXXXXX............",
"ooooooooooooooooooooOOooooooXXXXooooooooooooXXXXXXX......... ...",
"oooooooooooXXXXoooooOOOOooooXXXXooooooooooooXXXXXXX.........    ",
"ooooooooooooXXXoooooOOOOooooXXXXooooooooooooXXXXXXX.........    ",
"oooooooooXXoXXXoooooOOOOOooooXXoooooooooooooXXXXXXX.........  ..",
"ooooooooooooooooooooOOOOOOooooooooooooooooooXXXXXXXX............",
"XooooXXoooooooooooooOOOOOOooooooooooooooooooXXXXXXXX.....XX.....",
"XXooXXXXooooooooooooOOOOOOOOooooooooooooooooXXXXooXX....XXXX....",
"XXooXXXoooooooooooooOOOOOOOOoooooOOooooooOOooXXXoooXX..XXXXXXXXX",
"XXXXooooooooooooOOOOOOOOOOOOOOOOOOOOOOOoOOOOoooooooooXXXXooXXXXX",
"XXXXooooooOOOOooOOOOOOOOOOOOOOOOOOOOOOOoOOOOoooooOoooXooooooXXoo",
"XXXXooooooooOOOoooOOOOOOOOOOOOOOOOOOOooOOOOOooooOOOoooooooooXXoo",
"XXXoooooooooOOOOooOOOOOOOOOOOOOOOOOOOOOOOOOOooooOOoooooooooooXoo",
"ooooooooOOoooOOOOOOOOOOOOOOOOOOOO+++OOOO+++OOooOOOOOoooooooooooo",
"ooOOOoooOOoooOOOOOOOOO+OOOOOOOOO++++OO+++++OOooOOOOOoooooooooooo",
"ooOOOOooOOooooOOOOOOOOOOOOOOOoOO++++O++O+++OOoooOOOOoooooooooooo",
"ooOOOOooOOOOOOOOOOOOOOOOOOOOOOOO++++OO+++++OOooOOOOOoooooooooooo",
"oooOOOOOOOOOOOOOOOOO++OOOOOOOOOO++++++OO+++OOOOOOOOOOoooOOOooooo",
"ooooOOOOOOOOOOOOOOOO++OOOO++OOOO+++++OOO+++OOOOOOOOOooooOOOooooo",
"ooooOOOOOOOOOOOOOOOO++++OO++++O+++++++OO+++OOOOOOOOOooooooOOoooo",
"ooooOOOOOOOOOOOOOOO++++++++++++++++++++O+++OOOOOOOOOoooooOOOoooo",
"ooooOOOO++++++++++++++++++++@@@++++++OOO++++OOOO++OOOOOOOOOOoOOO",
"ooooOOOO++++++++++++++++++@@@@@@@++++O++++++OOOO++++OOOOOOOOoOOo",
"ooooOOO+++++++++++++++++@@@@@@@@@+++++++++++OOOO++++OOOOOOOOoooo",
"OOOOO++++++++++++++++++@@@@@@@@@@@@+++++++++OOOO++++OOOOOOOOoooo",
"+++++++++++++++++@@@@@@@@@@@++++@@@@@@++@++++OOO++++OOOOOOOOOooo",
"++++++++++++++++@@@@@##@@@@@++++@@#@@@@@@@@@+OOO++++OOOOOOOOOooo",
"++++++++++++++++@@@@@#@@@@@@++++@@@@@@@@@@@++OO+++++OOOOOOOOOooo",
"++++++++++++++++@@@@@@@@@@@@@+++@@@@@@@@@@@+++++++++OOOOOOOOOOOO",
"++++++++++++++++@@@@@@@@@#@@@@@@@@@@@@@@@@@@++++++++++++++++OOOO",
"+++++++++@+@++++@@@@@@@@####@@@@@@@@@@@@@@@@@@@@++++++++++++OOOO",
"OO+O+++++@@@@@++@@@@@@@@####@@@@@@@@@@@@@@@@@@@@++@@++++++++OOOO",
"OO+++++++@@@@@@@@@@@@@@@@@@@@@@@@@@@@@@@@@@@@@@@@++@++++++++OOOO",
"+++++++++++++++++@@@@@@@@@@@@@+@@@@@@@@@@@@@@@@@@@@@@@++++++OO++",
"++++++++++++++++++@@@@@@+++++++@@@@@@@@@@@@@@@@@@@@@@+++++++OO++",
"++++++++++++++++++++@@@@+++@+++@@@@@@@@@@@@@@@@@@@@@@@+++++++O++",
"++++++++++++++++++++@@@@@@@@+@+@@@@@@@@@@@@@@@@@@@@@@@+++++++O++",
"++++++++@@++++++@@@@@@@@@@@@@@@@@#@@####@@@@@@@@@@@@@@@+++++++++",
"++++++++@@+@++++@@@@@@@@@@@@@@@@@#@@@###@@@@@@@@@@@@@@@+++++++++",
"++++++++@@@@@@++@@@@@@@@@@@@@@@@##@@@@##@@@@@@@@@@@@@@@@++++++++",
"++++++++@@@@@@@@@@@@@@@@###@@@@@@#@@@@@@@@@@@@@@@@@@@@@@@+++++++",
"++++++@@@@@@@@@@@@@@@@#######@##@@@@@@@@@@@@@@@@@@@@@@@@@@@+++++",
"+++++@@@@@@@@@@@@@@@@###########@@@@@@@@@@@@@@@@@@@@@@@@@@@+++++",
"++++@@@@@@@@@@@@@@@@@##########@@@@@@@@@@@@@@@@@@@@@@@@@++@@++++",
"++++@@@@@@@@@@@@@@@@##@@####@@@@@@@@@@@@@@@@@@@@@@@@@@@@++@@++++",
"@@@@@@@@@@@@@@@@@@@@@@@@@@@@@@@@@@@@@@@@@@@@@@@@@@@@@@@@@@@@++++",
"@@@@@@@@@@@@@@@@@@@@@@@@@@@@@@@@@@@@@@@@@@@@@@@@@@@@@@@@++@@++++",
"@@@@@@@@@@@@@@@@@@@@@@@@@@@@@@@@@@@@@@@@@@@@@@@@@@@@@@@@++++++++",
"@@@@@@@@@@@@@@@@@@@@@@@@@@@@@@@@@@@@@@@@@@@@@@@@@@@@@@@@++++++++",
"@@@@@@@@@@@@+++@++++@@@@@@@@@@@@@@@@@@@@@@@@@@@@@@@@@@@@@@@@++++",
"@@@@@@@@@@@@+++@++++@@@@@@@@@@@@@@@@@@@@@@@@@@@@@@@@@@@@@@@@++++",
"@@@@@@@@@@@@++@@++++@@@@@@@@@@@@@@@@@@@@@@@@@@@@@@@@@@@@@@@@++@@",
"@@@@@@@@@@@@@+@@@@@@@@@@@@@@@@@@@@@@@@@@@@@@@@@@@@@@@@@@@@@@@+@@",
"@@@@@@@@@@@@@@@@@@@@@@@@####@@@@@@@@#@@@@@@@@@@@@#@#@@@@@@@@@@@@",
"@@@@@@@#@@@@@@@@@@@@@@################@@@@@@@@@@@###@@@@@@@@@@@@",
"@@@@@@@@@@@@@@@@@@@@@@@@##################@#####@#@#@@##@@@@@@@@",
"#@@@########@@@@@@@@@@@@########################@@#@@@@##@@@@@@@",
"######$#######@@##@@########@@############################@@@@##",
"$$#$$$$$##########@#########@@###$$$########################@@##",
"$$$$$$$$####################@@@####$########################@@##",
"$$$$$$$$####################@@@#############################@@##"
};
